STARTFONT 2.1
COMMENT
COMMENT Converted from OpenType font "Saira-VariableFont_wdth,wght.ttf" by "otf2bdf 3.0".
COMMENT
FONT -FreeType-Saira Thin-Medium-R-Normal--30-300-72-72-P-130-ISO10646-1
SIZE 30 72 72
FONTBOUNDINGBOX 42 46 -5 -12
STARTPROPERTIES 19
FOUNDRY "FreeType"
FAMILY_NAME "Saira Thin"
WEIGHT_NAME "Medium"
SLANT "R"
SETWIDTH_NAME "Normal"
ADD_STYLE_NAME ""
PIXEL_SIZE 30
POINT_SIZE 300
RESOLUTION_X 72
RESOLUTION_Y 72
SPACING "P"
AVERAGE_WIDTH 130
CHARSET_REGISTRY "ISO10646"
CHARSET_ENCODING "1"
FONT_ASCENT 34
FONT_DESCENT 13
COPYRIGHT "Copyright 2020 The Saira Project Authors (https://github.com/Omnibus-Type/Saira)"
_OTF_FONTFILE "Saira-VariableFont_wdth,wght.ttf"
_OTF_PSNAME "Saira-Thin"
ENDPROPERTIES
CHARS 661
STARTCHAR 000D
ENCODING 13
SWIDTH 233 0
DWIDTH 7 0
BBX 0 0 0 0
BITMAP
ENDCHAR
STARTCHAR 0020
ENCODING 32
SWIDTH 233 0
DWIDTH 7 0
BBX 0 0 0 0
BITMAP
ENDCHAR
STARTCHAR 0021
ENCODING 33
SWIDTH 200 0
DWIDTH 6 0
BBX 2 21 2 0
BITMAP
C0
C0
C0
C0
C0
C0
C0
C0
C0
C0
80
80
80
80
80
80
00
00
00
C0
C0
ENDCHAR
STARTCHAR 0022
ENCODING 34
SWIDTH 266 0
DWIDTH 8 0
BBX 4 7 2 14
BITMAP
90
90
90
90
90
90
90
ENDCHAR
STARTCHAR 0023
ENCODING 35
SWIDTH 833 0
DWIDTH 25 0
BBX 17 21 2 0
BITMAP
010200
010200
020400
020400
020400
020400
040800
7FFF80
040800
040800
081800
081000
081000
081000
FFFF00
102000
102000
102000
102000
204000
204000
ENDCHAR
STARTCHAR 0024
ENCODING 36
SWIDTH 533 0
DWIDTH 16 0
BBX 12 21 2 0
BITMAP
0200
0200
0F00
72E0
4200
C200
8200
8200
4200
4200
3FC0
0260
0230
0210
0210
0210
0220
0260
7FC0
0200
0200
ENDCHAR
STARTCHAR 0025
ENCODING 37
SWIDTH 800 0
DWIDTH 24 0
BBX 20 21 2 0
BITMAP
7E0080
C20180
810100
810200
810600
810400
810800
811800
811000
812000
C267E0
3C4810
008810
018810
010810
020810
060810
040810
080810
080810
1007E0
ENDCHAR
STARTCHAR 0026
ENCODING 38
SWIDTH 733 0
DWIDTH 22 0
BBX 19 21 2 0
BITMAP
07FC00
380200
400000
400000
400000
C00000
400000
400000
400000
300000
0FC3E0
300200
400200
C00200
800200
800200
800200
C00200
400200
600200
1FFE00
ENDCHAR
STARTCHAR 0027
ENCODING 39
SWIDTH 166 0
DWIDTH 5 0
BBX 1 7 2 14
BITMAP
80
80
80
80
80
80
80
ENDCHAR
STARTCHAR 0028
ENCODING 40
SWIDTH 266 0
DWIDTH 8 0
BBX 5 27 3 -5
BITMAP
18
20
20
40
40
80
80
80
80
80
80
80
80
80
80
80
80
80
80
80
80
40
40
20
20
10
08
ENDCHAR
STARTCHAR 0029
ENCODING 41
SWIDTH 266 0
DWIDTH 8 0
BBX 5 27 1 -5
BITMAP
80
40
20
20
10
10
10
10
10
18
08
08
08
08
08
08
18
18
10
10
10
10
20
20
40
80
80
ENDCHAR
STARTCHAR 002A
ENCODING 42
SWIDTH 433 0
DWIDTH 13 0
BBX 10 11 2 10
BITMAP
0800
0800
0800
C8C0
6B00
1C00
1E00
6B00
88C0
0800
0800
ENDCHAR
STARTCHAR 002B
ENCODING 43
SWIDTH 533 0
DWIDTH 16 0
BBX 12 12 2 2
BITMAP
0200
0200
0200
0200
0200
0200
FFF0
0200
0200
0200
0200
0200
ENDCHAR
STARTCHAR 002C
ENCODING 44
SWIDTH 166 0
DWIDTH 5 0
BBX 2 5 1 -3
BITMAP
40
40
40
40
C0
ENDCHAR
STARTCHAR 002D
ENCODING 45
SWIDTH 366 0
DWIDTH 11 0
BBX 7 1 2 8
BITMAP
FE
ENDCHAR
STARTCHAR 002E
ENCODING 46
SWIDTH 166 0
DWIDTH 5 0
BBX 1 2 2 0
BITMAP
80
80
ENDCHAR
STARTCHAR 002F
ENCODING 47
SWIDTH 333 0
DWIDTH 10 0
BBX 10 24 0 -2
BITMAP
00C0
0080
0080
0100
0100
0100
0200
0200
0600
0400
0400
0C00
0800
0800
1000
1000
1000
2000
2000
2000
4000
4000
C000
8000
ENDCHAR
STARTCHAR 0030
ENCODING 48
SWIDTH 666 0
DWIDTH 20 0
BBX 15 21 3 0
BITMAP
1FE0
6018
C004
8004
8004
8004
8006
8006
8006
8006
8006
8006
8006
8006
8006
8004
8004
8004
8004
400C
3FF0
ENDCHAR
STARTCHAR 0031
ENCODING 49
SWIDTH 366 0
DWIDTH 11 0
BBX 6 21 1 0
BITMAP
04
1C
74
C4
04
04
04
04
04
04
04
04
04
04
04
04
04
04
04
04
04
ENDCHAR
STARTCHAR 0032
ENCODING 50
SWIDTH 600 0
DWIDTH 18 0
BBX 14 21 2 0
BITMAP
7FE0
0018
0008
0004
0004
0004
0004
000C
0008
0030
00C0
0700
1C00
6000
4000
4000
C000
8000
8000
8000
FFFC
ENDCHAR
STARTCHAR 0033
ENCODING 51
SWIDTH 600 0
DWIDTH 18 0
BBX 13 21 2 0
BITMAP
FFC0
8070
0018
0008
0008
0008
0008
0008
0010
0030
0FC0
0030
0018
0008
0008
0008
0008
0008
0008
0030
FFE0
ENDCHAR
STARTCHAR 0034
ENCODING 52
SWIDTH 633 0
DWIDTH 19 0
BBX 15 21 2 0
BITMAP
0080
0180
0100
0200
0200
0400
0C10
0810
1810
1010
2010
2010
4010
C010
8010
FFFE
0010
0010
0010
0010
0010
ENDCHAR
STARTCHAR 0035
ENCODING 53
SWIDTH 600 0
DWIDTH 18 0
BBX 13 21 3 0
BITMAP
FFF0
8000
8000
8000
8000
8000
8000
8000
8000
FFC0
8070
0018
0008
0008
0008
0008
0008
0008
0018
0030
FFE0
ENDCHAR
STARTCHAR 0036
ENCODING 54
SWIDTH 633 0
DWIDTH 19 0
BBX 15 21 3 0
BITMAP
0FF8
3004
4000
C000
8000
8000
8000
8000
8000
9FF0
E00C
8004
8004
8006
8002
8002
8006
8004
C004
600C
3FF0
ENDCHAR
STARTCHAR 0037
ENCODING 55
SWIDTH 566 0
DWIDTH 17 0
BBX 14 21 1 0
BITMAP
FFFC
0004
0008
0008
0018
0010
0030
0020
0060
0040
0040
0080
0080
0100
0100
0300
0200
0600
0400
0400
0800
ENDCHAR
STARTCHAR 0038
ENCODING 56
SWIDTH 666 0
DWIDTH 20 0
BBX 15 21 3 0
BITMAP
1FE0
7018
C004
8006
8002
8002
8002
8006
8004
6018
1FE0
601C
8004
8002
8002
8002
8002
8002
8004
400C
3FF0
ENDCHAR
STARTCHAR 0039
ENCODING 57
SWIDTH 633 0
DWIDTH 19 0
BBX 15 21 2 0
BITMAP
1FE0
6018
C004
8004
8004
8006
8002
8002
8006
8006
400E
3FF2
0002
0002
0002
0006
0004
0004
000C
0018
7FF0
ENDCHAR
STARTCHAR 003A
ENCODING 58
SWIDTH 166 0
DWIDTH 5 0
BBX 1 15 2 0
BITMAP
80
80
00
00
00
00
00
00
00
00
00
00
00
80
80
ENDCHAR
STARTCHAR 003B
ENCODING 59
SWIDTH 166 0
DWIDTH 5 0
BBX 2 18 1 -3
BITMAP
40
40
00
00
00
00
00
00
00
00
00
00
00
40
40
40
40
C0
ENDCHAR
STARTCHAR 003C
ENCODING 60
SWIDTH 533 0
DWIDTH 16 0
BBX 12 13 2 1
BITMAP
0010
0070
0180
0600
1800
E000
8000
6000
1800
0700
01C0
0030
0010
ENDCHAR
STARTCHAR 003D
ENCODING 61
SWIDTH 533 0
DWIDTH 16 0
BBX 12 7 2 4
BITMAP
FFF0
0000
0000
0000
0000
0000
FFF0
ENDCHAR
STARTCHAR 003E
ENCODING 62
SWIDTH 533 0
DWIDTH 16 0
BBX 12 13 2 1
BITMAP
8000
6000
1800
0600
01C0
0070
0010
0060
0180
0600
3800
E000
8000
ENDCHAR
STARTCHAR 003F
ENCODING 63
SWIDTH 500 0
DWIDTH 15 0
BBX 11 21 1 0
BITMAP
7F80
8060
0020
0020
0020
0020
0020
0020
0020
00C0
0700
0C00
0800
0800
0800
0800
0000
0000
0000
0800
0800
ENDCHAR
STARTCHAR 0040
ENCODING 64
SWIDTH 933 0
DWIDTH 28 0
BBX 22 24 3 -3
BITMAP
07FF80
380070
400018
C00008
80000C
807004
818E04
800104
800104
800104
800104
80FF04
838104
820104
820104
820104
820304
820708
81F9F0
800000
800000
400000
700000
1FFF00
ENDCHAR
STARTCHAR 0041
ENCODING 65
SWIDTH 666 0
DWIDTH 20 0
BBX 18 21 1 0
BITMAP
004000
00C000
00A000
01A000
012000
011000
021000
020800
040800
040C00
040400
080400
080200
1FFE00
100300
300100
200100
200080
400080
400040
C00040
ENDCHAR
STARTCHAR 0042
ENCODING 66
SWIDTH 700 0
DWIDTH 21 0
BBX 15 21 3 0
BITMAP
FFE0
C038
C004
C006
C002
C002
C002
C006
C004
C008
FFF0
C00C
C004
C002
C002
C002
C002
C002
C006
C00C
FFF0
ENDCHAR
STARTCHAR 0043
ENCODING 67
SWIDTH 566 0
DWIDTH 17 0
BBX 12 21 3 0
BITMAP
1FF0
7000
4000
8000
8000
8000
8000
8000
8000
8000
8000
8000
8000
8000
8000
8000
8000
8000
4000
6000
3FF0
ENDCHAR
STARTCHAR 0044
ENCODING 68
SWIDTH 700 0
DWIDTH 21 0
BBX 15 21 3 0
BITMAP
FF80
C038
C004
C006
C002
C002
C002
C002
C002
C002
C002
C002
C002
C002
C002
C002
C002
C006
C004
C00C
FFF0
ENDCHAR
STARTCHAR 0045
ENCODING 69
SWIDTH 600 0
DWIDTH 18 0
BBX 13 21 3 0
BITMAP
FFF8
C000
C000
C000
C000
C000
C000
C000
C000
C000
FFF0
C000
C000
C000
C000
C000
C000
C000
C000
C000
FFF8
ENDCHAR
STARTCHAR 0046
ENCODING 70
SWIDTH 566 0
DWIDTH 17 0
BBX 13 21 3 0
BITMAP
FFF8
C000
C000
C000
C000
C000
C000
C000
C000
C000
FFF0
C000
C000
C000
C000
C000
C000
C000
C000
C000
C000
ENDCHAR
STARTCHAR 0047
ENCODING 71
SWIDTH 666 0
DWIDTH 20 0
BBX 14 21 3 0
BITMAP
0FF8
3004
4000
C000
8000
8000
8000
8000
8000
8000
8000
80FC
8004
8004
8004
8004
8004
8004
4004
6004
1FFC
ENDCHAR
STARTCHAR 0048
ENCODING 72
SWIDTH 733 0
DWIDTH 22 0
BBX 16 21 3 0
BITMAP
C001
C001
C001
C001
C001
C001
C001
C001
C001
C001
FFFF
C001
C001
C001
C001
C001
C001
C001
C001
C001
C001
ENDCHAR
STARTCHAR 0049
ENCODING 73
SWIDTH 266 0
DWIDTH 8 0
BBX 2 21 3 0
BITMAP
C0
C0
C0
C0
C0
C0
C0
C0
C0
C0
C0
C0
C0
C0
C0
C0
C0
C0
C0
C0
C0
ENDCHAR
STARTCHAR 004A
ENCODING 74
SWIDTH 333 0
DWIDTH 10 0
BBX 6 21 1 0
BITMAP
0C
0C
0C
0C
0C
0C
0C
0C
0C
0C
0C
0C
0C
0C
0C
0C
08
08
08
18
F0
ENDCHAR
STARTCHAR 004B
ENCODING 75
SWIDTH 666 0
DWIDTH 20 0
BBX 16 21 3 0
BITMAP
C003
C006
C004
C008
C010
C030
C060
C040
C080
C100
FF00
C100
C080
C040
C060
C020
C010
C008
C00C
C006
C003
ENDCHAR
STARTCHAR 004C
ENCODING 76
SWIDTH 533 0
DWIDTH 16 0
BBX 12 21 3 0
BITMAP
C000
C000
C000
C000
C000
C000
C000
C000
C000
C000
C000
C000
C000
C000
C000
C000
C000
C000
C000
C000
FFF0
ENDCHAR
STARTCHAR 004D
ENCODING 77
SWIDTH 900 0
DWIDTH 27 0
BBX 21 21 3 0
BITMAP
C00008
C00018
E00018
E00028
D00028
D00048
D80048
C80088
CC0088
C40188
C60108
C20308
C20208
C10208
C10408
C08408
C08808
C04808
C05008
C03008
C02008
ENDCHAR
STARTCHAR 004E
ENCODING 78
SWIDTH 733 0
DWIDTH 22 0
BBX 16 21 3 0
BITMAP
C001
C001
E001
F001
D001
C801
C401
C401
C201
C101
C181
C081
C041
C061
C021
C011
C019
C009
C005
C003
C003
ENDCHAR
STARTCHAR 004F
ENCODING 79
SWIDTH 733 0
DWIDTH 22 0
BBX 16 21 3 0
BITMAP
1FF8
600E
4002
8003
8001
8001
8001
8001
8001
8001
8001
8001
8001
8001
8001
8001
8001
8001
C002
6006
3FFC
ENDCHAR
STARTCHAR 0050
ENCODING 80
SWIDTH 666 0
DWIDTH 20 0
BBX 15 21 3 0
BITMAP
FFE0
C038
C004
C004
C002
C002
C002
C002
C002
C004
C004
C018
FFE0
C000
C000
C000
C000
C000
C000
C000
C000
ENDCHAR
STARTCHAR 0051
ENCODING 81
SWIDTH 733 0
DWIDTH 22 0
BBX 16 24 3 -3
BITMAP
1FF8
600E
4002
8003
8001
8001
8001
8001
8001
8001
8001
8001
8001
8001
8181
80C1
8041
8021
C012
601E
3FFC
0004
0002
0003
ENDCHAR
STARTCHAR 0052
ENCODING 82
SWIDTH 700 0
DWIDTH 21 0
BBX 15 21 3 0
BITMAP
FFE0
C03C
C004
C002
C002
C002
C002
C002
C002
C006
C00C
FFF8
C010
C010
C018
C008
C008
C004
C004
C006
C002
ENDCHAR
STARTCHAR 0053
ENCODING 83
SWIDTH 633 0
DWIDTH 19 0
BBX 15 21 2 0
BITMAP
0FFC
3004
4000
4000
C000
8000
8000
C000
4000
7800
0FF8
000C
0004
0002
0002
0002
0002
0006
0004
000C
7FF8
ENDCHAR
STARTCHAR 0054
ENCODING 84
SWIDTH 566 0
DWIDTH 17 0
BBX 15 21 1 0
BITMAP
FFFE
0100
0100
0100
0100
0100
0100
0100
0100
0100
0100
0100
0100
0100
0100
0100
0100
0100
0100
0100
0100
ENDCHAR
STARTCHAR 0055
ENCODING 85
SWIDTH 733 0
DWIDTH 22 0
BBX 15 21 3 0
BITMAP
8002
8002
8002
8002
8002
8002
8002
8002
8002
8002
8002
8002
8002
8002
8002
8002
8002
4002
4006
600C
1FF8
ENDCHAR
STARTCHAR 0056
ENCODING 86
SWIDTH 666 0
DWIDTH 20 0
BBX 18 21 1 0
BITMAP
8000C0
400080
400080
600100
200100
200300
100200
100200
180400
080400
080400
040800
040800
061000
021000
021000
012000
012000
01C000
00C000
00C000
ENDCHAR
STARTCHAR 0057
ENCODING 87
SWIDTH 1000 0
DWIDTH 30 0
BBX 27 21 1 0
BITMAP
C0040020
40060020
40060040
600A0040
20090040
200900C0
20110080
10108080
10108080
10208100
1820C100
08204100
08404200
08406200
04402200
04802200
04803400
02801400
03001400
03001800
03000800
ENDCHAR
STARTCHAR 0058
ENCODING 88
SWIDTH 666 0
DWIDTH 20 0
BBX 18 21 1 0
BITMAP
C000C0
600080
200100
100200
080600
0C0400
060800
021000
012000
00E000
00C000
00C000
012000
031000
060800
040C00
080400
100200
300100
600180
C000C0
ENDCHAR
STARTCHAR 0059
ENCODING 89
SWIDTH 600 0
DWIDTH 18 0
BBX 16 21 1 0
BITMAP
8001
C003
4002
2004
200C
1008
0810
0810
0420
0660
0240
0180
0180
0180
0180
0180
0180
0180
0180
0180
0180
ENDCHAR
STARTCHAR 005A
ENCODING 90
SWIDTH 600 0
DWIDTH 18 0
BBX 14 21 2 0
BITMAP
FFFC
0004
0008
0018
0010
0020
0060
0040
0080
0100
0300
0200
0400
0C00
0800
1000
3000
2000
4000
C000
FFFC
ENDCHAR
STARTCHAR 005B
ENCODING 91
SWIDTH 300 0
DWIDTH 9 0
BBX 5 27 3 -5
BITMAP
F8
C0
C0
C0
C0
C0
C0
C0
C0
C0
C0
C0
C0
C0
C0
C0
C0
C0
C0
C0
C0
C0
C0
C0
C0
F8
F8
ENDCHAR
STARTCHAR 005C
ENCODING 92
SWIDTH 333 0
DWIDTH 10 0
BBX 10 24 0 -2
BITMAP
8000
4000
4000
6000
2000
2000
3000
1000
1000
0800
0800
0800
0400
0400
0600
0200
0200
0300
0100
0100
0080
0080
0080
0040
ENDCHAR
STARTCHAR 005D
ENCODING 93
SWIDTH 300 0
DWIDTH 9 0
BBX 5 27 1 -5
BITMAP
F8
08
08
08
08
08
08
08
08
08
08
08
08
08
08
08
08
08
08
08
08
08
08
08
08
F8
F8
ENDCHAR
STARTCHAR 005E
ENCODING 94
SWIDTH 466 0
DWIDTH 14 0
BBX 10 9 2 13
BITMAP
0C00
1200
1200
3100
2100
2180
4080
4080
8040
ENDCHAR
STARTCHAR 005F
ENCODING 95
SWIDTH 333 0
DWIDTH 10 0
BBX 10 1 0 -5
BITMAP
FFC0
ENDCHAR
STARTCHAR 0060
ENCODING 96
SWIDTH 166 0
DWIDTH 5 0
BBX 5 4 0 18
BITMAP
C0
20
10
18
ENDCHAR
STARTCHAR 0061
ENCODING 97
SWIDTH 566 0
DWIDTH 17 0
BBX 12 16 2 0
BITMAP
0E00
71E0
0030
0010
0010
0010
0010
0010
7FF0
8010
8010
8010
8010
8030
C030
7FD0
ENDCHAR
STARTCHAR 0062
ENCODING 98
SWIDTH 600 0
DWIDTH 18 0
BBX 13 22 3 0
BITMAP
8000
8000
8000
8000
8000
8000
8600
B9E0
C010
C010
8010
8018
8008
8008
8008
8008
8018
8010
8010
C010
A030
9FE0
ENDCHAR
STARTCHAR 0063
ENCODING 99
SWIDTH 466 0
DWIDTH 14 0
BBX 10 16 2 0
BITMAP
0300
3CC0
4000
4000
C000
8000
8000
8000
8000
8000
8000
8000
C000
4000
6000
3FC0
ENDCHAR
STARTCHAR 0064
ENCODING 100
SWIDTH 600 0
DWIDTH 18 0
BBX 13 22 2 0
BITMAP
0008
0008
0008
0008
0008
0008
0308
3DE8
4028
4018
C008
8008
8008
8008
8008
8008
8008
8008
4018
4018
6028
3FC8
ENDCHAR
STARTCHAR 0065
ENCODING 101
SWIDTH 566 0
DWIDTH 17 0
BBX 13 16 2 0
BITMAP
0200
3CE0
4010
4010
8010
8008
8008
8008
FFF8
8000
8000
8000
4000
4000
6000
3FF0
ENDCHAR
STARTCHAR 0066
ENCODING 102
SWIDTH 333 0
DWIDTH 10 0
BBX 8 22 1 0
BITMAP
0F
18
10
10
10
10
10
FF
10
10
10
10
10
10
10
10
10
10
10
10
10
10
ENDCHAR
STARTCHAR 0067
ENCODING 103
SWIDTH 600 0
DWIDTH 18 0
BBX 13 22 2 -6
BITMAP
0300
3DE8
4038
4018
8008
8008
8008
8008
8008
8008
8008
8008
4018
4018
6028
3FC8
0008
0008
0018
0010
0030
7FC0
ENDCHAR
STARTCHAR 0068
ENCODING 104
SWIDTH 600 0
DWIDTH 18 0
BBX 12 22 3 0
BITMAP
8000
8000
8000
8000
8000
8000
8600
B9E0
C030
C010
8010
8010
8010
8010
8010
8010
8010
8010
8010
8010
8010
8010
ENDCHAR
STARTCHAR 0069
ENCODING 105
SWIDTH 233 0
DWIDTH 7 0
BBX 1 22 3 0
BITMAP
80
80
00
00
00
00
00
80
80
80
80
80
80
80
80
80
80
80
80
80
80
80
ENDCHAR
STARTCHAR 006A
ENCODING 106
SWIDTH 233 0
DWIDTH 7 0
BBX 4 28 0 -6
BITMAP
10
10
00
00
00
00
00
10
10
10
10
10
10
10
10
10
10
10
10
10
10
10
10
10
10
10
10
E0
ENDCHAR
STARTCHAR 006B
ENCODING 107
SWIDTH 533 0
DWIDTH 16 0
BBX 11 22 3 0
BITMAP
8000
8000
8000
8000
8000
8000
8000
8060
80C0
8180
8300
8200
8400
8800
F800
8C00
8600
8200
8100
8080
8040
8020
ENDCHAR
STARTCHAR 006C
ENCODING 108
SWIDTH 233 0
DWIDTH 7 0
BBX 1 22 3 0
BITMAP
80
80
80
80
80
80
80
80
80
80
80
80
80
80
80
80
80
80
80
80
80
80
ENDCHAR
STARTCHAR 006D
ENCODING 109
SWIDTH 900 0
DWIDTH 27 0
BBX 21 16 3 0
BITMAP
020100
B9CEF0
C05010
C02008
802008
802008
802008
802008
802008
802008
802008
802008
802008
802008
802008
802008
ENDCHAR
STARTCHAR 006E
ENCODING 110
SWIDTH 600 0
DWIDTH 18 0
BBX 12 16 3 0
BITMAP
0600
B9E0
C030
C010
8010
8010
8010
8010
8010
8010
8010
8010
8010
8010
8010
8010
ENDCHAR
STARTCHAR 006F
ENCODING 111
SWIDTH 566 0
DWIDTH 17 0
BBX 13 16 2 0
BITMAP
0600
3CF0
4018
4008
8008
8008
8008
8008
8008
8008
8008
8008
8008
4008
4010
3FE0
ENDCHAR
STARTCHAR 0070
ENCODING 112
SWIDTH 600 0
DWIDTH 18 0
BBX 13 22 3 -6
BITMAP
0600
B9E0
C010
C010
8010
8018
8008
8008
8008
8008
8018
8010
8010
C010
A030
9FE0
8000
8000
8000
8000
8000
8000
ENDCHAR
STARTCHAR 0071
ENCODING 113
SWIDTH 600 0
DWIDTH 18 0
BBX 13 22 2 -6
BITMAP
0300
3CE8
4018
4018
8008
8008
8008
8008
8008
8008
8008
8008
4018
4018
6028
3FC8
0008
0008
0008
0008
0008
0008
ENDCHAR
STARTCHAR 0072
ENCODING 114
SWIDTH 333 0
DWIDTH 10 0
BBX 6 16 3 0
BITMAP
04
BC
A0
C0
80
80
80
80
80
80
80
80
80
80
80
80
ENDCHAR
STARTCHAR 0073
ENCODING 115
SWIDTH 500 0
DWIDTH 15 0
BBX 11 16 2 0
BITMAP
0600
71C0
8000
8000
8000
8000
8000
7000
1FC0
0060
0020
0020
0020
0020
0060
FFC0
ENDCHAR
STARTCHAR 0074
ENCODING 116
SWIDTH 333 0
DWIDTH 10 0
BBX 8 20 1 0
BITMAP
10
10
10
10
10
FF
10
10
10
10
10
10
10
10
10
10
10
10
10
10
ENDCHAR
STARTCHAR 0075
ENCODING 117
SWIDTH 600 0
DWIDTH 18 0
BBX 12 15 3 0
BITMAP
8010
8010
8010
8010
8010
8010
8010
8010
8010
8010
8010
8010
8030
4070
3F90
ENDCHAR
STARTCHAR 0076
ENCODING 118
SWIDTH 533 0
DWIDTH 16 0
BBX 14 15 1 0
BITMAP
C00C
4008
4010
2010
2010
3020
1020
1040
0840
0840
0C80
0480
0500
0300
0300
ENDCHAR
STARTCHAR 0077
ENCODING 119
SWIDTH 800 0
DWIDTH 24 0
BBX 22 15 1 0
BITMAP
C03004
403008
403808
204818
204810
204C10
108430
108420
108420
090260
090240
090240
060180
060180
060180
ENDCHAR
STARTCHAR 0078
ENCODING 120
SWIDTH 533 0
DWIDTH 16 0
BBX 14 15 1 0
BITMAP
C00C
2010
1020
1860
0C40
0480
0300
0300
0780
04C0
0840
1020
3010
6018
C00C
ENDCHAR
STARTCHAR 0079
ENCODING 121
SWIDTH 600 0
DWIDTH 18 0
BBX 12 21 3 -6
BITMAP
8010
8010
8010
8010
8010
8010
8010
8010
8010
8010
8010
8010
8030
4070
3F90
0010
0010
0010
0020
0060
FFC0
ENDCHAR
STARTCHAR 007A
ENCODING 122
SWIDTH 500 0
DWIDTH 15 0
BBX 11 15 2 0
BITMAP
FFE0
0040
00C0
0080
0100
0200
0600
0400
0800
1000
3000
2000
4000
C000
FFE0
ENDCHAR
STARTCHAR 007B
ENCODING 123
SWIDTH 300 0
DWIDTH 9 0
BBX 7 27 1 -5
BITMAP
06
08
08
10
10
10
10
10
10
10
10
30
60
C0
30
10
10
10
10
10
10
10
10
08
08
04
02
ENDCHAR
STARTCHAR 007C
ENCODING 124
SWIDTH 266 0
DWIDTH 8 0
BBX 2 27 3 -5
BITMAP
C0
C0
C0
C0
C0
C0
C0
C0
C0
C0
C0
C0
C0
C0
C0
C0
C0
C0
C0
C0
C0
C0
C0
C0
C0
C0
C0
ENDCHAR
STARTCHAR 007D
ENCODING 125
SWIDTH 300 0
DWIDTH 9 0
BBX 7 27 1 -5
BITMAP
C0
60
20
10
10
10
10
10
10
10
10
18
0C
06
18
10
10
10
10
10
10
10
10
20
20
40
80
ENDCHAR
STARTCHAR 007E
ENCODING 126
SWIDTH 500 0
DWIDTH 15 0
BBX 11 4 2 7
BITMAP
0020
7C20
87C0
8000
ENDCHAR
STARTCHAR 00A0
ENCODING 160
SWIDTH 233 0
DWIDTH 7 0
BBX 0 0 0 0
BITMAP
ENDCHAR
STARTCHAR 00A1
ENCODING 161
SWIDTH 200 0
DWIDTH 6 0
BBX 2 20 2 -5
BITMAP
C0
C0
00
00
00
80
80
80
80
80
80
C0
C0
C0
C0
C0
C0
C0
C0
C0
ENDCHAR
STARTCHAR 00A2
ENCODING 162
SWIDTH 466 0
DWIDTH 14 0
BBX 10 21 2 0
BITMAP
0200
0200
0300
3EC0
6200
4200
4200
8200
8200
8200
8200
8200
8200
8200
C200
4200
4200
2200
1FC0
0200
0200
ENDCHAR
STARTCHAR 00A3
ENCODING 163
SWIDTH 566 0
DWIDTH 17 0
BBX 14 21 2 0
BITMAP
03FC
0C00
1000
1000
2000
2000
2000
2000
2000
2000
FFE0
2000
2000
2000
2000
2000
2000
2000
2000
2000
FFFC
ENDCHAR
STARTCHAR 00A4
ENCODING 164
SWIDTH 766 0
DWIDTH 23 0
BBX 19 22 2 -1
BITMAP
C00060
6000C0
30C180
1F1F00
080200
100300
100100
100100
100100
100100
100100
100100
100100
100100
100100
100100
180200
0C0600
13F900
200080
400060
800040
ENDCHAR
STARTCHAR 00A5
ENCODING 165
SWIDTH 633 0
DWIDTH 19 0
BBX 16 21 1 0
BITMAP
C001
4003
6002
2006
1004
1008
0808
0C10
7FFE
0220
0240
0140
7FFE
0080
0080
0080
0080
0080
0080
0080
0080
ENDCHAR
STARTCHAR 00A6
ENCODING 166
SWIDTH 266 0
DWIDTH 8 0
BBX 2 27 3 -5
BITMAP
C0
C0
C0
C0
C0
C0
C0
C0
C0
C0
00
00
00
00
00
00
C0
C0
C0
C0
C0
C0
C0
C0
C0
C0
C0
ENDCHAR
STARTCHAR 00A7
ENCODING 167
SWIDTH 700 0
DWIDTH 21 0
BBX 17 26 2 -5
BITMAP
03FC00
0C0000
100000
100000
100000
100000
100000
180000
6F0000
40F000
800E00
800100
800080
800080
C00080
700080
0F0180
00F100
001C00
000400
000400
000400
000400
000400
000C00
1FF000
ENDCHAR
STARTCHAR 00A8
ENCODING 168
SWIDTH 266 0
DWIDTH 8 0
BBX 8 2 0 19
BITMAP
83
83
ENDCHAR
STARTCHAR 00A9
ENCODING 169
SWIDTH 733 0
DWIDTH 22 0
BBX 16 21 3 0
BITMAP
1FF0
6006
8002
8001
8001
87E1
8401
8801
8801
8801
8801
8801
8801
8801
8801
87E1
8001
8001
8002
4002
3FFC
ENDCHAR
STARTCHAR 00AA
ENCODING 170
SWIDTH 400 0
DWIDTH 12 0
BBX 9 12 1 9
BITMAP
7F00
0180
0080
0080
0080
7F80
4080
8080
8080
8080
7380
0C00
ENDCHAR
STARTCHAR 00AB
ENCODING 171
SWIDTH 466 0
DWIDTH 14 0
BBX 9 12 2 3
BITMAP
1880
1100
2300
6200
4600
8C00
8400
4600
6200
2100
1100
1880
ENDCHAR
STARTCHAR 00AC
ENCODING 172
SWIDTH 533 0
DWIDTH 16 0
BBX 12 6 2 2
BITMAP
FFF0
0010
0010
0010
0010
0010
ENDCHAR
STARTCHAR 00AD
ENCODING 173
SWIDTH 366 0
DWIDTH 11 0
BBX 7 1 2 8
BITMAP
FE
ENDCHAR
STARTCHAR 00AE
ENCODING 174
SWIDTH 733 0
DWIDTH 22 0
BBX 16 21 3 0
BITMAP
1FF0
6006
8002
8001
8001
8FE1
8811
8811
8811
8811
8831
8FC1
8821
8821
8821
8811
8001
8001
8002
4002
3FFC
ENDCHAR
STARTCHAR 00AF
ENCODING 175
SWIDTH 266 0
DWIDTH 8 0
BBX 8 1 0 19
BITMAP
FF
ENDCHAR
STARTCHAR 00B0
ENCODING 176
SWIDTH 400 0
DWIDTH 12 0
BBX 7 9 2 12
BITMAP
7C
C2
82
82
82
82
82
82
7E
ENDCHAR
STARTCHAR 00B1
ENCODING 177
SWIDTH 533 0
DWIDTH 16 0
BBX 12 18 2 0
BITMAP
0200
0200
0200
0200
0200
0200
FFF0
0200
0200
0200
0200
0200
0000
0000
0000
0000
0000
FFF0
ENDCHAR
STARTCHAR 00B2
ENCODING 178
SWIDTH 366 0
DWIDTH 11 0
BBX 8 11 1 13
BITMAP
7F
01
01
01
03
1C
70
C0
80
80
FF
ENDCHAR
STARTCHAR 00B3
ENCODING 179
SWIDTH 366 0
DWIDTH 11 0
BBX 8 11 1 13
BITMAP
FE
01
01
01
02
3E
01
01
01
01
FE
ENDCHAR
STARTCHAR 00B4
ENCODING 180
SWIDTH 166 0
DWIDTH 5 0
BBX 5 4 0 18
BITMAP
18
20
40
80
ENDCHAR
STARTCHAR 00B5
ENCODING 181
SWIDTH 600 0
DWIDTH 18 0
BBX 12 21 3 -6
BITMAP
8010
8010
8010
8010
8010
8010
8010
8010
8010
8010
8010
8010
8030
C070
BF90
8000
8000
8000
8000
8000
8000
ENDCHAR
STARTCHAR 00B6
ENCODING 182
SWIDTH 566 0
DWIDTH 17 0
BBX 12 25 2 -4
BITMAP
0F90
7F90
7F90
FF90
FF90
FF90
FF90
FF90
FF90
FF90
FF90
FF90
7F90
3F90
0090
0090
0090
0090
0090
0090
0090
0090
0090
0090
0090
ENDCHAR
STARTCHAR 00B7
ENCODING 183
SWIDTH 166 0
DWIDTH 5 0
BBX 1 2 2 8
BITMAP
80
80
ENDCHAR
STARTCHAR 00B8
ENCODING 184
SWIDTH 100 0
DWIDTH 3 0
BBX 3 7 0 -6
BITMAP
20
40
40
40
40
80
80
ENDCHAR
STARTCHAR 00B9
ENCODING 185
SWIDTH 233 0
DWIDTH 7 0
BBX 4 11 1 13
BITMAP
70
B0
30
30
30
30
30
30
30
30
30
ENDCHAR
STARTCHAR 00BA
ENCODING 186
SWIDTH 400 0
DWIDTH 12 0
BBX 10 12 1 9
BITMAP
3F00
4080
4040
4040
C040
8040
8040
4040
4040
4040
6180
1400
ENDCHAR
STARTCHAR 00BB
ENCODING 187
SWIDTH 466 0
DWIDTH 14 0
BBX 10 12 2 3
BITMAP
C400
4200
2100
1100
1080
08C0
0880
1080
3100
2300
4200
C400
ENDCHAR
STARTCHAR 00BC
ENCODING 188
SWIDTH 666 0
DWIDTH 20 0
BBX 18 21 1 0
BITMAP
100200
700400
B00C00
300800
301000
303000
302000
304000
30C000
308000
310C00
330800
021800
041100
0C2100
086100
104100
30FFC0
200100
400100
C00100
ENDCHAR
STARTCHAR 00BD
ENCODING 189
SWIDTH 700 0
DWIDTH 21 0
BBX 19 21 1 0
BITMAP
100200
700400
B00C00
300800
301000
303000
302000
304000
30C000
308000
311FC0
330020
020020
040020
0C00C0
080380
100C00
301000
201000
401000
C01FE0
ENDCHAR
STARTCHAR 00BE
ENCODING 190
SWIDTH 800 0
DWIDTH 24 0
BBX 22 21 1 0
BITMAP
780020
870040
0100C0
010080
010100
060300
3E0200
010400
010C00
010800
0310C0
FE3080
002100
004110
00C210
008610
010410
030FFC
020010
040010
0C0010
ENDCHAR
STARTCHAR 00BF
ENCODING 191
SWIDTH 433 0
DWIDTH 13 0
BBX 11 21 2 -6
BITMAP
0300
0300
0000
0000
0000
0100
0100
0100
0300
0600
1C00
6000
C000
8000
8000
8000
8000
8000
4000
7CE0
0700
ENDCHAR
STARTCHAR 00C0
ENCODING 192
SWIDTH 666 0
DWIDTH 20 0
BBX 18 27 1 0
BITMAP
030000
008000
004000
002000
000000
000000
004000
00C000
00A000
01A000
012000
011000
021000
020800
040800
040C00
040400
080400
080200
1FFE00
100300
300100
200100
200080
400080
400040
C00040
ENDCHAR
STARTCHAR 00C1
ENCODING 193
SWIDTH 666 0
DWIDTH 20 0
BBX 18 27 1 0
BITMAP
001800
002000
004000
008000
000000
000000
004000
00C000
00A000
01A000
012000
011000
021000
020800
040800
040C00
040400
080400
080200
1FFE00
100300
300100
200100
200080
400080
400040
C00040
ENDCHAR
STARTCHAR 00C2
ENCODING 194
SWIDTH 666 0
DWIDTH 20 0
BBX 18 27 1 0
BITMAP
00E000
012000
021000
040800
000000
000000
004000
00C000
00A000
01A000
012000
011000
021000
020800
040800
040C00
040400
080400
080200
1FFE00
100300
300100
200100
200080
400080
400040
C00040
ENDCHAR
STARTCHAR 00C3
ENCODING 195
SWIDTH 666 0
DWIDTH 20 0
BBX 18 27 1 0
BITMAP
000400
07C400
083C00
000000
000000
000000
004000
00C000
00A000
01A000
012000
011000
021000
020800
040800
040C00
040400
080400
080200
1FFE00
100300
300100
200100
200080
400080
400040
C00040
ENDCHAR
STARTCHAR 00C4
ENCODING 196
SWIDTH 666 0
DWIDTH 20 0
BBX 18 26 1 0
BITMAP
060800
060800
000000
000000
000000
004000
00C000
00A000
01A000
012000
011000
021000
020800
040800
040C00
040400
080400
080200
1FFE00
100300
300100
200100
200080
400080
400040
C00040
ENDCHAR
STARTCHAR 00C5
ENCODING 197
SWIDTH 666 0
DWIDTH 20 0
BBX 18 25 1 0
BITMAP
03F000
020800
020800
020800
03F000
00C000
00A000
01A000
012000
011000
021000
020800
040800
040C00
040400
080400
080200
1FFE00
100300
300100
200100
200080
400080
400040
C00040
ENDCHAR
STARTCHAR 00C6
ENCODING 198
SWIDTH 933 0
DWIDTH 28 0
BBX 27 21 0 0
BITMAP
001FFFE0
00300000
00300000
00480000
00C80000
00880000
018C0000
01040000
03040000
02060000
0603FF80
04020000
08020000
0FFF0000
10010000
10010000
20008000
20008000
40008000
4000C000
80007FE0
ENDCHAR
STARTCHAR 00C7
ENCODING 199
SWIDTH 566 0
DWIDTH 17 0
BBX 12 27 3 -6
BITMAP
1FF0
7000
4000
8000
8000
8000
8000
8000
8000
8000
8000
8000
8000
8000
8000
8000
8000
8000
4000
6000
3FF0
0200
0200
0200
0600
0400
0400
ENDCHAR
STARTCHAR 00C8
ENCODING 200
SWIDTH 600 0
DWIDTH 18 0
BBX 13 27 3 0
BITMAP
0C00
0200
0100
0180
0000
0000
FFF8
C000
C000
C000
C000
C000
C000
C000
C000
C000
FFF0
C000
C000
C000
C000
C000
C000
C000
C000
C000
FFF8
ENDCHAR
STARTCHAR 00C9
ENCODING 201
SWIDTH 600 0
DWIDTH 18 0
BBX 13 27 3 0
BITMAP
00E0
0080
0100
0200
0000
0000
FFF8
C000
C000
C000
C000
C000
C000
C000
C000
C000
FFF0
C000
C000
C000
C000
C000
C000
C000
C000
C000
FFF8
ENDCHAR
STARTCHAR 00CA
ENCODING 202
SWIDTH 600 0
DWIDTH 18 0
BBX 13 27 3 0
BITMAP
0300
0480
0840
1020
0000
0000
FFF8
C000
C000
C000
C000
C000
C000
C000
C000
C000
FFF0
C000
C000
C000
C000
C000
C000
C000
C000
C000
FFF8
ENDCHAR
STARTCHAR 00CB
ENCODING 203
SWIDTH 600 0
DWIDTH 18 0
BBX 13 26 3 0
BITMAP
1060
1060
0000
0000
0000
FFF8
C000
C000
C000
C000
C000
C000
C000
C000
C000
FFF0
C000
C000
C000
C000
C000
C000
C000
C000
C000
FFF8
ENDCHAR
STARTCHAR 00CC
ENCODING 204
SWIDTH 266 0
DWIDTH 8 0
BBX 5 27 1 0
BITMAP
C0
20
10
18
00
00
30
30
30
30
30
30
30
30
30
30
30
30
30
30
30
30
30
30
30
30
30
ENDCHAR
STARTCHAR 00CD
ENCODING 205
SWIDTH 266 0
DWIDTH 8 0
BBX 5 27 3 0
BITMAP
38
20
40
80
00
00
C0
C0
C0
C0
C0
C0
C0
C0
C0
C0
C0
C0
C0
C0
C0
C0
C0
C0
C0
C0
C0
ENDCHAR
STARTCHAR 00CE
ENCODING 206
SWIDTH 266 0
DWIDTH 8 0
BBX 8 27 0 0
BITMAP
18
24
42
81
00
00
18
18
18
18
18
18
18
18
18
18
18
18
18
18
18
18
18
18
18
18
18
ENDCHAR
STARTCHAR 00CF
ENCODING 207
SWIDTH 266 0
DWIDTH 8 0
BBX 8 26 0 0
BITMAP
83
83
00
00
00
18
18
18
18
18
18
18
18
18
18
18
18
18
18
18
18
18
18
18
18
18
ENDCHAR
STARTCHAR 00D0
ENCODING 208
SWIDTH 700 0
DWIDTH 21 0
BBX 17 21 1 0
BITMAP
3FE000
300E00
300100
300180
300080
300080
300080
300080
300080
300080
FE0080
300080
300080
300080
300080
300080
300080
300180
300100
300300
3FFC00
ENDCHAR
STARTCHAR 00D1
ENCODING 209
SWIDTH 733 0
DWIDTH 22 0
BBX 16 27 3 0
BITMAP
0008
0F88
1078
0000
0000
0000
C001
C001
E001
F001
D001
C801
C401
C401
C201
C101
C181
C081
C041
C061
C021
C011
C019
C009
C005
C003
C003
ENDCHAR
STARTCHAR 00D2
ENCODING 210
SWIDTH 733 0
DWIDTH 22 0
BBX 16 27 3 0
BITMAP
0600
0300
0180
0080
0000
0000
1FF8
600E
4002
8003
8001
8001
8001
8001
8001
8001
8001
8001
8001
8001
8001
8001
8001
8001
C002
6006
3FFC
ENDCHAR
STARTCHAR 00D3
ENCODING 211
SWIDTH 733 0
DWIDTH 22 0
BBX 16 27 3 0
BITMAP
0060
0040
0080
0100
0000
0000
1FF8
600E
4002
8003
8001
8001
8001
8001
8001
8001
8001
8001
8001
8001
8001
8001
8001
8001
C002
6006
3FFC
ENDCHAR
STARTCHAR 00D4
ENCODING 212
SWIDTH 733 0
DWIDTH 22 0
BBX 16 27 3 0
BITMAP
0380
0240
0420
0810
0000
0000
1FF8
600E
4002
8003
8001
8001
8001
8001
8001
8001
8001
8001
8001
8001
8001
8001
8001
8001
C002
6006
3FFC
ENDCHAR
STARTCHAR 00D5
ENCODING 213
SWIDTH 733 0
DWIDTH 22 0
BBX 16 27 3 0
BITMAP
0008
1F88
10F0
0000
0000
0000
1FF8
600E
4002
8003
8001
8001
8001
8001
8001
8001
8001
8001
8001
8001
8001
8001
8001
8001
C002
6006
3FFC
ENDCHAR
STARTCHAR 00D6
ENCODING 214
SWIDTH 733 0
DWIDTH 22 0
BBX 16 26 3 0
BITMAP
0830
0830
0000
0000
0000
1FF8
600E
4002
8003
8001
8001
8001
8001
8001
8001
8001
8001
8001
8001
8001
8001
8001
8001
C002
6006
3FFC
ENDCHAR
STARTCHAR 00D7
ENCODING 215
SWIDTH 466 0
DWIDTH 14 0
BBX 10 9 2 3
BITMAP
C0C0
6180
3300
1E00
0C00
1E00
3300
6180
C0C0
ENDCHAR
STARTCHAR 00D8
ENCODING 216
SWIDTH 733 0
DWIDTH 22 0
BBX 16 24 3 -2
BITMAP
0003
1FFA
600E
4006
800B
8011
8011
8021
8041
8041
8081
8181
8101
8201
8201
8401
8801
8801
9001
E002
6006
7FFC
C000
8000
ENDCHAR
STARTCHAR 00D9
ENCODING 217
SWIDTH 733 0
DWIDTH 22 0
BBX 15 27 3 0
BITMAP
0600
0300
0100
0080
0000
0000
8002
8002
8002
8002
8002
8002
8002
8002
8002
8002
8002
8002
8002
8002
8002
8002
8002
4002
4006
600C
1FF8
ENDCHAR
STARTCHAR 00DA
ENCODING 218
SWIDTH 733 0
DWIDTH 22 0
BBX 15 27 3 0
BITMAP
0060
00C0
0080
0100
0000
0000
8002
8002
8002
8002
8002
8002
8002
8002
8002
8002
8002
8002
8002
8002
8002
8002
8002
4002
4006
600C
1FF8
ENDCHAR
STARTCHAR 00DB
ENCODING 219
SWIDTH 733 0
DWIDTH 22 0
BBX 15 27 3 0
BITMAP
0380
0240
0420
0810
0000
0000
8002
8002
8002
8002
8002
8002
8002
8002
8002
8002
8002
8002
8002
8002
8002
8002
8002
4002
4006
600C
1FF8
ENDCHAR
STARTCHAR 00DC
ENCODING 220
SWIDTH 733 0
DWIDTH 22 0
BBX 15 26 3 0
BITMAP
0830
0830
0000
0000
0000
8002
8002
8002
8002
8002
8002
8002
8002
8002
8002
8002
8002
8002
8002
8002
8002
8002
4002
4006
600C
1FF8
ENDCHAR
STARTCHAR 00DD
ENCODING 221
SWIDTH 600 0
DWIDTH 18 0
BBX 16 27 1 0
BITMAP
0070
0040
0080
0100
0000
0000
8001
C003
4002
2004
200C
1008
0810
0810
0420
0660
0240
0180
0180
0180
0180
0180
0180
0180
0180
0180
0180
ENDCHAR
STARTCHAR 00DE
ENCODING 222
SWIDTH 666 0
DWIDTH 20 0
BBX 15 21 3 0
BITMAP
C000
C000
C000
C000
FFE0
C038
C004
C004
C002
C002
C002
C002
C002
C004
C004
C038
FFE0
C000
C000
C000
C000
ENDCHAR
STARTCHAR 00DF
ENCODING 223
SWIDTH 600 0
DWIDTH 18 0
BBX 13 23 3 0
BITMAP
0200
3DE0
4010
4018
8008
8008
8008
8018
8010
83E0
8060
8010
8008
8008
8008
8008
8008
8008
8008
8008
8008
8010
8FE0
ENDCHAR
STARTCHAR 00E0
ENCODING 224
SWIDTH 566 0
DWIDTH 17 0
BBX 12 22 2 0
BITMAP
0C00
0400
0200
0100
0000
0000
0E00
71E0
0030
0010
0010
0010
0010
0010
7FF0
8010
8010
8010
8010
8030
C030
7FD0
ENDCHAR
STARTCHAR 00E1
ENCODING 225
SWIDTH 566 0
DWIDTH 17 0
BBX 12 22 2 0
BITMAP
00C0
0100
0200
0400
0000
0000
0E00
71E0
0030
0010
0010
0010
0010
0010
7FF0
8010
8010
8010
8010
8030
C030
7FD0
ENDCHAR
STARTCHAR 00E2
ENCODING 226
SWIDTH 566 0
DWIDTH 17 0
BBX 12 22 2 0
BITMAP
0700
0480
0840
1060
0000
0000
0E00
71E0
0030
0010
0010
0010
0010
0010
7FF0
8010
8010
8010
8010
8030
C030
7FD0
ENDCHAR
STARTCHAR 00E3
ENCODING 227
SWIDTH 566 0
DWIDTH 17 0
BBX 12 22 2 0
BITMAP
0010
3E10
21E0
0000
0000
0000
0E00
71E0
0030
0010
0010
0010
0010
0010
7FF0
8010
8010
8010
8010
8030
C030
7FD0
ENDCHAR
STARTCHAR 00E4
ENCODING 228
SWIDTH 566 0
DWIDTH 17 0
BBX 12 21 2 0
BITMAP
1060
1060
0000
0000
0000
0E00
71E0
0030
0010
0010
0010
0010
0010
7FF0
8010
8010
8010
8010
8030
C030
7FD0
ENDCHAR
STARTCHAR 00E5
ENCODING 229
SWIDTH 566 0
DWIDTH 17 0
BBX 12 23 2 0
BITMAP
0FC0
1040
1040
1040
0FC0
0000
0000
0E00
71E0
0030
0010
0010
0010
0010
0010
7FF0
8010
8010
8010
8010
8030
C030
7FD0
ENDCHAR
STARTCHAR 00E6
ENCODING 230
SWIDTH 933 0
DWIDTH 28 0
BBX 24 16 2 0
BITMAP
0E0040
71E7BC
003802
001802
001002
001002
001002
001002
7FFFFF
C01000
801000
801000
801000
802800
C02C00
7FC7FE
ENDCHAR
STARTCHAR 00E7
ENCODING 231
SWIDTH 466 0
DWIDTH 14 0
BBX 10 22 2 -6
BITMAP
0300
3CC0
4000
4000
C000
8000
8000
8000
8000
8000
8000
8000
C000
4000
6000
3FC0
0200
0400
0400
0400
0C00
0800
ENDCHAR
STARTCHAR 00E8
ENCODING 232
SWIDTH 566 0
DWIDTH 17 0
BBX 13 22 2 0
BITMAP
1800
0400
0200
0100
0000
0000
0200
3CE0
4010
4010
8010
8008
8008
8008
FFF8
8000
8000
8000
4000
4000
6000
3FF0
ENDCHAR
STARTCHAR 00E9
ENCODING 233
SWIDTH 566 0
DWIDTH 17 0
BBX 13 22 2 0
BITMAP
01C0
0100
0200
0400
0000
0000
0200
3CE0
4010
4010
8010
8008
8008
8008
FFF8
8000
8000
8000
4000
4000
6000
3FF0
ENDCHAR
STARTCHAR 00EA
ENCODING 234
SWIDTH 566 0
DWIDTH 17 0
BBX 13 22 2 0
BITMAP
0700
0D80
08C0
1040
0000
0000
0200
3CE0
4010
4010
8010
8008
8008
8008
FFF8
8000
8000
8000
4000
4000
6000
3FF0
ENDCHAR
STARTCHAR 00EB
ENCODING 235
SWIDTH 566 0
DWIDTH 17 0
BBX 13 21 2 0
BITMAP
1040
1040
0000
0000
0000
0200
3CE0
4010
4010
8010
8008
8008
8008
FFF8
8000
8000
8000
4000
4000
6000
3FF0
ENDCHAR
STARTCHAR 00EC
ENCODING 236
SWIDTH 233 0
DWIDTH 7 0
BBX 5 22 0 0
BITMAP
C0
20
10
08
00
00
00
10
10
10
10
10
10
10
10
10
10
10
10
10
10
10
ENDCHAR
STARTCHAR 00ED
ENCODING 237
SWIDTH 233 0
DWIDTH 7 0
BBX 4 22 2 0
BITMAP
30
20
40
80
00
00
00
40
40
40
40
40
40
40
40
40
40
40
40
40
40
40
ENDCHAR
STARTCHAR 00EE
ENCODING 238
SWIDTH 233 0
DWIDTH 7 0
BBX 7 22 0 0
BITMAP
38
6C
46
82
00
00
00
10
10
10
10
10
10
10
10
10
10
10
10
10
10
10
ENDCHAR
STARTCHAR 00EF
ENCODING 239
SWIDTH 233 0
DWIDTH 7 0
BBX 7 21 0 0
BITMAP
82
82
00
00
00
00
10
10
10
10
10
10
10
10
10
10
10
10
10
10
10
ENDCHAR
STARTCHAR 00F0
ENCODING 240
SWIDTH 566 0
DWIDTH 17 0
BBX 13 22 2 0
BITMAP
0300
00B0
07C0
0060
0020
0010
0610
3DF0
4018
4008
8008
8008
8008
8008
8008
8008
8008
8008
8008
4008
4010
3FE0
ENDCHAR
STARTCHAR 00F1
ENCODING 241
SWIDTH 600 0
DWIDTH 18 0
BBX 12 22 3 0
BITMAP
0020
7E20
41C0
0000
0000
0000
0600
B9E0
C030
C010
8010
8010
8010
8010
8010
8010
8010
8010
8010
8010
8010
8010
ENDCHAR
STARTCHAR 00F2
ENCODING 242
SWIDTH 566 0
DWIDTH 17 0
BBX 13 22 2 0
BITMAP
0C00
0400
0200
0100
0000
0000
0600
3CF0
4018
4008
8008
8008
8008
8008
8008
8008
8008
8008
8008
4008
4010
3FE0
ENDCHAR
STARTCHAR 00F3
ENCODING 243
SWIDTH 566 0
DWIDTH 17 0
BBX 13 22 2 0
BITMAP
00C0
0100
0200
0400
0000
0000
0600
3CF0
4018
4008
8008
8008
8008
8008
8008
8008
8008
8008
8008
4008
4010
3FE0
ENDCHAR
STARTCHAR 00F4
ENCODING 244
SWIDTH 566 0
DWIDTH 17 0
BBX 13 22 2 0
BITMAP
0700
0480
0840
1060
0000
0000
0600
3CF0
4018
4008
8008
8008
8008
8008
8008
8008
8008
8008
8008
4008
4010
3FE0
ENDCHAR
STARTCHAR 00F5
ENCODING 245
SWIDTH 566 0
DWIDTH 17 0
BBX 13 22 2 0
BITMAP
0010
3E10
21E0
0000
0000
0000
0600
3CF0
4018
4008
8008
8008
8008
8008
8008
8008
8008
8008
8008
4008
4010
3FE0
ENDCHAR
STARTCHAR 00F6
ENCODING 246
SWIDTH 566 0
DWIDTH 17 0
BBX 13 21 2 0
BITMAP
1040
1040
0000
0000
0000
0600
3CF0
4018
4008
8008
8008
8008
8008
8008
8008
8008
8008
8008
4008
4010
3FE0
ENDCHAR
STARTCHAR 00F7
ENCODING 247
SWIDTH 533 0
DWIDTH 16 0
BBX 12 13 2 1
BITMAP
0600
0600
0000
0000
0000
0000
FFF0
0000
0000
0000
0000
0600
0600
ENDCHAR
STARTCHAR 00F8
ENCODING 248
SWIDTH 566 0
DWIDTH 17 0
BBX 13 19 2 -2
BITMAP
0008
0610
3CF0
4038
4048
8048
8088
8108
8108
8208
8608
8408
8808
8808
5008
6010
3FE0
4000
C000
ENDCHAR
STARTCHAR 00F9
ENCODING 249
SWIDTH 600 0
DWIDTH 18 0
BBX 12 22 3 0
BITMAP
1800
0C00
0600
0300
0000
0000
0000
8010
8010
8010
8010
8010
8010
8010
8010
8010
8010
8010
8010
8030
4070
3F90
ENDCHAR
STARTCHAR 00FA
ENCODING 250
SWIDTH 600 0
DWIDTH 18 0
BBX 12 22 3 0
BITMAP
0180
0200
0400
0C00
0000
0000
0000
8010
8010
8010
8010
8010
8010
8010
8010
8010
8010
8010
8010
8030
4070
3F90
ENDCHAR
STARTCHAR 00FB
ENCODING 251
SWIDTH 600 0
DWIDTH 18 0
BBX 12 22 3 0
BITMAP
0600
0900
1080
2040
0000
0000
0000
8010
8010
8010
8010
8010
8010
8010
8010
8010
8010
8010
8010
8030
4070
3F90
ENDCHAR
STARTCHAR 00FC
ENCODING 252
SWIDTH 600 0
DWIDTH 18 0
BBX 12 21 3 0
BITMAP
3040
3040
0000
0000
0000
0000
8010
8010
8010
8010
8010
8010
8010
8010
8010
8010
8010
8010
8030
4070
3F90
ENDCHAR
STARTCHAR 00FD
ENCODING 253
SWIDTH 600 0
DWIDTH 18 0
BBX 12 28 3 -6
BITMAP
0180
0200
0400
0C00
0000
0000
0000
8010
8010
8010
8010
8010
8010
8010
8010
8010
8010
8010
8010
8030
4070
3F90
0010
0010
0010
0020
0060
FFC0
ENDCHAR
STARTCHAR 00FE
ENCODING 254
SWIDTH 600 0
DWIDTH 18 0
BBX 13 28 3 -6
BITMAP
8000
8000
8000
8000
8000
8000
8600
B9E0
C010
C010
8010
8018
8008
8008
8008
8008
8018
8010
8010
C010
A030
9FE0
8000
8000
8000
8000
8000
8000
ENDCHAR
STARTCHAR 00FF
ENCODING 255
SWIDTH 600 0
DWIDTH 18 0
BBX 12 27 3 -6
BITMAP
3040
3040
0000
0000
0000
0000
8010
8010
8010
8010
8010
8010
8010
8010
8010
8010
8010
8010
8030
4070
3F90
0010
0010
0010
0020
0060
FFC0
ENDCHAR
STARTCHAR 0100
ENCODING 256
SWIDTH 666 0
DWIDTH 20 0
BBX 18 25 1 0
BITMAP
07F800
000000
000000
000000
004000
00C000
00A000
01A000
012000
011000
021000
020800
040800
040C00
040400
080400
080200
1FFE00
100300
300100
200100
200080
400080
400040
C00040
ENDCHAR
STARTCHAR 0101
ENCODING 257
SWIDTH 566 0
DWIDTH 17 0
BBX 12 20 2 0
BITMAP
1FE0
0000
0000
0000
0E00
71E0
0030
0010
0010
0010
0010
0010
7FF0
8010
8010
8010
8010
8030
C030
7FD0
ENDCHAR
STARTCHAR 0102
ENCODING 258
SWIDTH 666 0
DWIDTH 20 0
BBX 18 27 1 0
BITMAP
040800
040800
020800
03F000
000000
000000
004000
00C000
00A000
01A000
012000
011000
021000
020800
040800
040C00
040400
080400
080200
1FFE00
100300
300100
200100
200080
400080
400040
C00040
ENDCHAR
STARTCHAR 0103
ENCODING 259
SWIDTH 566 0
DWIDTH 17 0
BBX 12 22 2 0
BITMAP
1020
1020
1040
0F80
0000
0000
0E00
71E0
0030
0010
0010
0010
0010
0010
7FF0
8010
8010
8010
8010
8030
C030
7FD0
ENDCHAR
STARTCHAR 0104
ENCODING 260
SWIDTH 666 0
DWIDTH 20 0
BBX 18 27 1 -6
BITMAP
004000
00C000
00A000
01A000
012000
011000
021000
020800
040800
040C00
040400
080400
080200
1FFE00
100300
300100
200100
200080
400080
400040
C00040
000040
000080
000080
000100
000180
0000C0
ENDCHAR
STARTCHAR 0105
ENCODING 261
SWIDTH 566 0
DWIDTH 17 0
BBX 12 22 2 -6
BITMAP
0E00
71E0
0030
0010
0010
0010
0010
0010
7FF0
8010
8010
8010
8010
8030
C030
7FD0
0010
0020
0020
0040
0060
0030
ENDCHAR
STARTCHAR 0106
ENCODING 262
SWIDTH 566 0
DWIDTH 17 0
BBX 12 27 3 0
BITMAP
00C0
0080
0100
0200
0000
0000
1FF0
7000
4000
8000
8000
8000
8000
8000
8000
8000
8000
8000
8000
8000
8000
8000
8000
8000
4000
6000
3FF0
ENDCHAR
STARTCHAR 0107
ENCODING 263
SWIDTH 466 0
DWIDTH 14 0
BBX 10 22 2 0
BITMAP
0180
0200
0400
0800
0000
0000
0300
3CC0
4000
4000
C000
8000
8000
8000
8000
8000
8000
8000
C000
4000
6000
3FC0
ENDCHAR
STARTCHAR 0108
ENCODING 264
SWIDTH 566 0
DWIDTH 17 0
BBX 12 27 3 0
BITMAP
0700
0480
0840
1020
0000
0000
1FF0
7000
4000
8000
8000
8000
8000
8000
8000
8000
8000
8000
8000
8000
8000
8000
8000
8000
4000
6000
3FF0
ENDCHAR
STARTCHAR 0109
ENCODING 265
SWIDTH 466 0
DWIDTH 14 0
BBX 10 22 2 0
BITMAP
0E00
0900
1080
2040
0000
0000
0300
3CC0
4000
4000
C000
8000
8000
8000
8000
8000
8000
8000
C000
4000
6000
3FC0
ENDCHAR
STARTCHAR 010A
ENCODING 266
SWIDTH 566 0
DWIDTH 17 0
BBX 12 26 3 0
BITMAP
0300
0000
0000
0000
0000
1FF0
7000
4000
8000
8000
8000
8000
8000
8000
8000
8000
8000
8000
8000
8000
8000
8000
8000
4000
6000
3FF0
ENDCHAR
STARTCHAR 010B
ENCODING 267
SWIDTH 466 0
DWIDTH 14 0
BBX 10 21 2 0
BITMAP
0400
0400
0000
0000
0000
0300
3CC0
4000
4000
C000
8000
8000
8000
8000
8000
8000
8000
C000
4000
6000
3FC0
ENDCHAR
STARTCHAR 010C
ENCODING 268
SWIDTH 566 0
DWIDTH 17 0
BBX 12 27 3 0
BITMAP
1860
0C80
0580
0300
0000
0000
1FF0
7000
4000
8000
8000
8000
8000
8000
8000
8000
8000
8000
8000
8000
8000
8000
8000
8000
4000
6000
3FF0
ENDCHAR
STARTCHAR 010D
ENCODING 269
SWIDTH 466 0
DWIDTH 14 0
BBX 10 22 2 0
BITMAP
20C0
1100
0B00
0600
0000
0000
0300
3CC0
4000
4000
C000
8000
8000
8000
8000
8000
8000
8000
C000
4000
6000
3FC0
ENDCHAR
STARTCHAR 010E
ENCODING 270
SWIDTH 700 0
DWIDTH 21 0
BBX 15 27 3 0
BITMAP
0820
0440
0280
0300
0000
0000
FF80
C038
C004
C006
C002
C002
C002
C002
C002
C002
C002
C002
C002
C002
C002
C002
C002
C006
C004
C00C
FFF0
ENDCHAR
STARTCHAR 010F
ENCODING 271
SWIDTH 600 0
DWIDTH 18 0
BBX 15 22 2 0
BITMAP
0008
000A
000A
000A
000A
000A
030A
3DEA
4028
4018
C008
8008
8008
8008
8008
8008
8008
8008
4018
4018
6028
3FC8
ENDCHAR
STARTCHAR 0110
ENCODING 272
SWIDTH 700 0
DWIDTH 21 0
BBX 17 21 1 0
BITMAP
3FE000
300E00
300100
300180
300080
300080
300080
300080
300080
300080
FE0080
300080
300080
300080
300080
300080
300080
300180
300100
300300
3FFC00
ENDCHAR
STARTCHAR 0111
ENCODING 273
SWIDTH 600 0
DWIDTH 18 0
BBX 15 22 2 0
BITMAP
0008
01FE
0008
0008
0008
0008
0308
3DE8
4028
4018
C008
8008
8008
8008
8008
8008
8008
8008
4018
4018
6028
3FC8
ENDCHAR
STARTCHAR 0112
ENCODING 274
SWIDTH 600 0
DWIDTH 18 0
BBX 13 25 3 0
BITMAP
1FE0
0000
0000
0000
FFF8
C000
C000
C000
C000
C000
C000
C000
C000
C000
FFF0
C000
C000
C000
C000
C000
C000
C000
C000
C000
FFF8
ENDCHAR
STARTCHAR 0113
ENCODING 275
SWIDTH 566 0
DWIDTH 17 0
BBX 13 20 2 0
BITMAP
1FE0
0000
0000
0000
0200
3CE0
4010
4010
8010
8008
8008
8008
FFF8
8000
8000
8000
4000
4000
6000
3FF0
ENDCHAR
STARTCHAR 0114
ENCODING 276
SWIDTH 600 0
DWIDTH 18 0
BBX 13 27 3 0
BITMAP
1020
1020
1860
0FC0
0000
0000
FFF8
C000
C000
C000
C000
C000
C000
C000
C000
C000
FFF0
C000
C000
C000
C000
C000
C000
C000
C000
C000
FFF8
ENDCHAR
STARTCHAR 0115
ENCODING 277
SWIDTH 566 0
DWIDTH 17 0
BBX 13 22 2 0
BITMAP
1040
1040
1040
0F80
0000
0000
0200
3CE0
4010
4010
8010
8008
8008
8008
FFF8
8000
8000
8000
4000
4000
6000
3FF0
ENDCHAR
STARTCHAR 0116
ENCODING 278
SWIDTH 600 0
DWIDTH 18 0
BBX 13 26 3 0
BITMAP
0300
0000
0000
0000
0000
FFF8
C000
C000
C000
C000
C000
C000
C000
C000
C000
FFF0
C000
C000
C000
C000
C000
C000
C000
C000
C000
FFF8
ENDCHAR
STARTCHAR 0117
ENCODING 279
SWIDTH 566 0
DWIDTH 17 0
BBX 13 21 2 0
BITMAP
0200
0200
0000
0000
0000
0200
3CE0
4010
4010
8010
8008
8008
8008
FFF8
8000
8000
8000
4000
4000
6000
3FF0
ENDCHAR
STARTCHAR 0118
ENCODING 280
SWIDTH 600 0
DWIDTH 18 0
BBX 13 27 3 -6
BITMAP
FFF8
C000
C000
C000
C000
C000
C000
C000
C000
C000
FFF0
C000
C000
C000
C000
C000
C000
C000
C000
C000
FFF8
0008
0010
0010
0020
0030
0018
ENDCHAR
STARTCHAR 0119
ENCODING 281
SWIDTH 566 0
DWIDTH 17 0
BBX 13 22 2 -6
BITMAP
0200
3CE0
4010
4010
8010
8008
8008
8008
FFF8
8000
8000
8000
4000
4000
6000
3FF0
0020
0020
0040
0040
0040
0030
ENDCHAR
STARTCHAR 011A
ENCODING 282
SWIDTH 600 0
DWIDTH 18 0
BBX 13 27 3 0
BITMAP
1860
0CC0
0780
0300
0000
0000
FFF8
C000
C000
C000
C000
C000
C000
C000
C000
C000
FFF0
C000
C000
C000
C000
C000
C000
C000
C000
C000
FFF8
ENDCHAR
STARTCHAR 011B
ENCODING 283
SWIDTH 566 0
DWIDTH 17 0
BBX 13 22 2 0
BITMAP
1040
0880
0500
0300
0000
0000
0200
3CE0
4010
4010
8010
8008
8008
8008
FFF8
8000
8000
8000
4000
4000
6000
3FF0
ENDCHAR
STARTCHAR 011C
ENCODING 284
SWIDTH 666 0
DWIDTH 20 0
BBX 14 27 3 0
BITMAP
0380
0240
0420
0810
0000
0000
0FF8
3004
4000
C000
8000
8000
8000
8000
8000
8000
8000
80FC
8004
8004
8004
8004
8004
8004
4004
6004
1FFC
ENDCHAR
STARTCHAR 011D
ENCODING 285
SWIDTH 600 0
DWIDTH 18 0
BBX 13 28 2 -6
BITMAP
0300
0480
0840
1020
0000
0000
0300
3DE8
4038
4018
8008
8008
8008
8008
8008
8008
8008
8008
4018
4018
6028
3FC8
0008
0008
0018
0010
0030
7FC0
ENDCHAR
STARTCHAR 011E
ENCODING 286
SWIDTH 666 0
DWIDTH 20 0
BBX 14 27 3 0
BITMAP
0810
0810
0820
07E0
0000
0000
0FF8
3004
4000
C000
8000
8000
8000
8000
8000
8000
8000
80FC
8004
8004
8004
8004
8004
8004
4004
6004
1FFC
ENDCHAR
STARTCHAR 011F
ENCODING 287
SWIDTH 600 0
DWIDTH 18 0
BBX 13 28 2 -6
BITMAP
1020
1020
1040
0FC0
0000
0000
0300
3DE8
4038
4018
8008
8008
8008
8008
8008
8008
8008
8008
4018
4018
6028
3FC8
0008
0008
0018
0010
0030
7FC0
ENDCHAR
STARTCHAR 0120
ENCODING 288
SWIDTH 666 0
DWIDTH 20 0
BBX 14 26 3 0
BITMAP
0180
0000
0000
0000
0000
0FF8
3004
4000
C000
8000
8000
8000
8000
8000
8000
8000
80FC
8004
8004
8004
8004
8004
8004
4004
6004
1FFC
ENDCHAR
STARTCHAR 0121
ENCODING 289
SWIDTH 600 0
DWIDTH 18 0
BBX 13 27 2 -6
BITMAP
0300
0300
0000
0000
0000
0300
3DE8
4038
4018
8008
8008
8008
8008
8008
8008
8008
8008
4018
4018
6028
3FC8
0008
0008
0018
0010
0030
7FC0
ENDCHAR
STARTCHAR 0122
ENCODING 290
SWIDTH 666 0
DWIDTH 20 0
BBX 14 29 3 -8
BITMAP
0FF8
3004
4000
C000
8000
8000
8000
8000
8000
8000
8000
80FC
8004
8004
8004
8004
8004
8004
4004
6004
1FFC
0000
0000
0000
0180
0180
0080
0080
0300
ENDCHAR
STARTCHAR 0123
ENCODING 291
SWIDTH 600 0
DWIDTH 18 0
BBX 13 29 2 -6
BITMAP
0180
0200
0200
0300
0300
0000
0000
0300
3DE8
4038
4018
8008
8008
8008
8008
8008
8008
8008
8008
4018
4018
6028
3FC8
0008
0008
0018
0010
0030
7FC0
ENDCHAR
STARTCHAR 0124
ENCODING 292
SWIDTH 733 0
DWIDTH 22 0
BBX 16 27 3 0
BITMAP
0180
0240
0420
0810
0000
0000
C001
C001
C001
C001
C001
C001
C001
C001
C001
C001
FFFF
C001
C001
C001
C001
C001
C001
C001
C001
C001
C001
ENDCHAR
STARTCHAR 0125
ENCODING 293
SWIDTH 600 0
DWIDTH 18 0
BBX 15 27 0 0
BITMAP
3800
6C00
4600
8200
0000
1000
1000
1000
1000
1000
1000
10C0
173C
1806
1802
1002
1002
1002
1002
1002
1002
1002
1002
1002
1002
1002
1002
ENDCHAR
STARTCHAR 0126
ENCODING 294
SWIDTH 733 0
DWIDTH 22 0
BBX 16 21 3 0
BITMAP
C001
C001
C001
C001
C001
FFFF
C001
C001
C001
C001
C001
FFFF
C001
C001
C001
C001
C001
C001
C001
C001
C001
ENDCHAR
STARTCHAR 0127
ENCODING 295
SWIDTH 600 0
DWIDTH 18 0
BBX 14 22 1 0
BITMAP
2000
FF00
2000
2000
2000
2000
2180
2E78
300C
3004
2004
2004
2004
2004
2004
2004
2004
2004
2004
2004
2004
2004
ENDCHAR
STARTCHAR 0128
ENCODING 296
SWIDTH 266 0
DWIDTH 8 0
BBX 10 27 -1 0
BITMAP
0040
FC40
8780
0000
0000
0000
0C00
0C00
0C00
0C00
0C00
0C00
0C00
0C00
0C00
0C00
0C00
0C00
0C00
0C00
0C00
0C00
0C00
0C00
0C00
0C00
0C00
ENDCHAR
STARTCHAR 0129
ENCODING 297
SWIDTH 233 0
DWIDTH 7 0
BBX 9 22 -1 0
BITMAP
0080
F880
8780
0000
0000
0000
0000
0800
0800
0800
0800
0800
0800
0800
0800
0800
0800
0800
0800
0800
0800
0800
ENDCHAR
STARTCHAR 012A
ENCODING 298
SWIDTH 266 0
DWIDTH 8 0
BBX 8 25 0 0
BITMAP
FF
00
00
00
18
18
18
18
18
18
18
18
18
18
18
18
18
18
18
18
18
18
18
18
18
ENDCHAR
STARTCHAR 012B
ENCODING 299
SWIDTH 233 0
DWIDTH 7 0
BBX 8 20 0 0
BITMAP
FF
00
00
00
00
10
10
10
10
10
10
10
10
10
10
10
10
10
10
10
ENDCHAR
STARTCHAR 012C
ENCODING 300
SWIDTH 266 0
DWIDTH 8 0
BBX 8 27 0 0
BITMAP
81
81
C3
7E
00
00
18
18
18
18
18
18
18
18
18
18
18
18
18
18
18
18
18
18
18
18
18
ENDCHAR
STARTCHAR 012D
ENCODING 301
SWIDTH 233 0
DWIDTH 7 0
BBX 7 22 0 0
BITMAP
82
82
82
7C
00
00
00
10
10
10
10
10
10
10
10
10
10
10
10
10
10
10
ENDCHAR
STARTCHAR 012E
ENCODING 302
SWIDTH 266 0
DWIDTH 8 0
BBX 3 27 2 -6
BITMAP
60
60
60
60
60
60
60
60
60
60
60
60
60
60
60
60
60
60
60
60
60
40
80
80
80
80
E0
ENDCHAR
STARTCHAR 012F
ENCODING 303
SWIDTH 233 0
DWIDTH 7 0
BBX 3 28 1 -6
BITMAP
20
20
00
00
00
00
00
20
20
20
20
20
20
20
20
20
20
20
20
20
20
20
40
40
80
80
80
60
ENDCHAR
STARTCHAR 0130
ENCODING 304
SWIDTH 266 0
DWIDTH 8 0
BBX 2 26 3 0
BITMAP
C0
00
00
00
00
C0
C0
C0
C0
C0
C0
C0
C0
C0
C0
C0
C0
C0
C0
C0
C0
C0
C0
C0
C0
C0
ENDCHAR
STARTCHAR 0131
ENCODING 305
SWIDTH 233 0
DWIDTH 7 0
BBX 1 15 3 0
BITMAP
80
80
80
80
80
80
80
80
80
80
80
80
80
80
80
ENDCHAR
STARTCHAR 0132
ENCODING 306
SWIDTH 600 0
DWIDTH 18 0
BBX 12 21 3 0
BITMAP
C030
C030
C030
C030
C030
C030
C030
C030
C030
C030
C030
C030
C030
C030
C030
C030
C020
C020
C020
C060
C3C0
ENDCHAR
STARTCHAR 0133
ENCODING 307
SWIDTH 466 0
DWIDTH 14 0
BBX 8 28 3 -6
BITMAP
81
81
00
00
00
00
00
81
81
81
81
81
81
81
81
81
81
81
81
81
81
81
01
01
01
01
01
0E
ENDCHAR
STARTCHAR 0134
ENCODING 308
SWIDTH 333 0
DWIDTH 10 0
BBX 9 27 1 0
BITMAP
0C00
1200
2100
4080
0000
0000
0C00
0C00
0C00
0C00
0C00
0C00
0C00
0C00
0C00
0C00
0C00
0C00
0C00
0C00
0C00
0C00
0800
0800
0800
1800
F000
ENDCHAR
STARTCHAR 0135
ENCODING 309
SWIDTH 233 0
DWIDTH 7 0
BBX 7 28 0 -6
BITMAP
38
6C
46
82
00
00
00
10
10
10
10
10
10
10
10
10
10
10
10
10
10
10
10
10
10
10
10
E0
ENDCHAR
STARTCHAR 0136
ENCODING 310
SWIDTH 666 0
DWIDTH 20 0
BBX 16 29 3 -8
BITMAP
C003
C006
C004
C008
C010
C030
C060
C040
C080
C100
FF00
C100
C080
C040
C060
C020
C010
C008
C00C
C006
C003
0000
0000
0000
0300
0300
0100
0100
0600
ENDCHAR
STARTCHAR 0137
ENCODING 311
SWIDTH 533 0
DWIDTH 16 0
BBX 11 30 3 -8
BITMAP
8000
8000
8000
8000
8000
8000
8000
8060
80C0
8180
8300
8200
8400
8800
F800
8C00
8600
8200
8100
8080
8040
8020
0000
0000
0000
0C00
0C00
0400
0400
1800
ENDCHAR
STARTCHAR 0138
ENCODING 312
SWIDTH 533 0
DWIDTH 16 0
BBX 11 15 3 0
BITMAP
8060
80C0
8180
8300
8200
8400
8800
F800
8C00
8600
8200
8100
8080
8040
8020
ENDCHAR
STARTCHAR 0139
ENCODING 313
SWIDTH 533 0
DWIDTH 16 0
BBX 12 27 3 0
BITMAP
3800
2000
4000
8000
0000
0000
C000
C000
C000
C000
C000
C000
C000
C000
C000
C000
C000
C000
C000
C000
C000
C000
C000
C000
C000
C000
FFF0
ENDCHAR
STARTCHAR 013A
ENCODING 314
SWIDTH 233 0
DWIDTH 7 0
BBX 5 29 2 0
BITMAP
18
30
60
C0
00
00
00
40
40
40
40
40
40
40
40
40
40
40
40
40
40
40
40
40
40
40
40
40
40
ENDCHAR
STARTCHAR 013B
ENCODING 315
SWIDTH 533 0
DWIDTH 16 0
BBX 12 29 3 -8
BITMAP
C000
C000
C000
C000
C000
C000
C000
C000
C000
C000
C000
C000
C000
C000
C000
C000
C000
C000
C000
C000
FFF0
0000
0000
0000
0200
0200
0200
0200
0400
ENDCHAR
STARTCHAR 013C
ENCODING 316
SWIDTH 233 0
DWIDTH 7 0
BBX 2 30 2 -8
BITMAP
40
40
40
40
40
40
40
40
40
40
40
40
40
40
40
40
40
40
40
40
40
40
00
00
00
40
40
40
40
80
ENDCHAR
STARTCHAR 013D
ENCODING 317
SWIDTH 533 0
DWIDTH 16 0
BBX 12 21 3 0
BITMAP
C100
C100
C100
C100
C100
C100
C100
C000
C000
C000
C000
C000
C000
C000
C000
C000
C000
C000
C000
C000
FFF0
ENDCHAR
STARTCHAR 013E
ENCODING 318
SWIDTH 233 0
DWIDTH 7 0
BBX 5 22 3 0
BITMAP
80
88
88
88
90
90
90
90
80
80
80
80
80
80
80
80
80
80
80
80
80
80
ENDCHAR
STARTCHAR 013F
ENCODING 319
SWIDTH 533 0
DWIDTH 16 0
BBX 12 21 3 0
BITMAP
C000
C000
C000
C000
C000
C000
C000
C000
C000
C0C0
C0C0
C000
C000
C000
C000
C000
C000
C000
C000
C000
FFF0
ENDCHAR
STARTCHAR 0140
ENCODING 320
SWIDTH 233 0
DWIDTH 7 0
BBX 5 22 3 0
BITMAP
80
80
80
80
80
80
80
80
80
80
80
80
98
98
80
80
80
80
80
80
80
80
ENDCHAR
STARTCHAR 0141
ENCODING 321
SWIDTH 533 0
DWIDTH 16 0
BBX 14 21 1 0
BITMAP
3000
3000
3000
3000
3000
3000
3000
3000
30C0
3300
3C00
F000
3000
3000
3000
3000
3000
3000
3000
3000
3FFC
ENDCHAR
STARTCHAR 0142
ENCODING 322
SWIDTH 233 0
DWIDTH 7 0
BBX 5 22 1 0
BITMAP
20
20
20
20
20
20
20
20
20
20
38
E0
20
20
20
20
20
20
20
20
20
20
ENDCHAR
STARTCHAR 0143
ENCODING 323
SWIDTH 733 0
DWIDTH 22 0
BBX 16 27 3 0
BITMAP
0030
0040
0080
0100
0000
0000
C001
C001
E001
F001
D001
C801
C401
C401
C201
C101
C181
C081
C041
C061
C021
C011
C019
C009
C005
C003
C003
ENDCHAR
STARTCHAR 0144
ENCODING 324
SWIDTH 600 0
DWIDTH 18 0
BBX 12 22 3 0
BITMAP
0180
0200
0400
0C00
0000
0000
0600
B9E0
C030
C010
8010
8010
8010
8010
8010
8010
8010
8010
8010
8010
8010
8010
ENDCHAR
STARTCHAR 0145
ENCODING 325
SWIDTH 733 0
DWIDTH 22 0
BBX 16 29 3 -8
BITMAP
C001
C001
E001
F001
D001
C801
C401
C401
C201
C101
C181
C081
C041
C061
C021
C011
C019
C009
C005
C003
C003
0000
0000
0000
0080
0080
0080
0080
0100
ENDCHAR
STARTCHAR 0146
ENCODING 326
SWIDTH 600 0
DWIDTH 18 0
BBX 12 24 3 -8
BITMAP
0600
B9E0
C030
C010
8010
8010
8010
8010
8010
8010
8010
8010
8010
8010
8010
8010
0000
0000
0000
0600
0600
0200
0200
0C00
ENDCHAR
STARTCHAR 0147
ENCODING 327
SWIDTH 733 0
DWIDTH 22 0
BBX 16 27 3 0
BITMAP
0C10
0220
0140
0180
0000
0000
C001
C001
E001
F001
D001
C801
C401
C401
C201
C101
C181
C081
C041
C061
C021
C011
C019
C009
C005
C003
C003
ENDCHAR
STARTCHAR 0148
ENCODING 328
SWIDTH 600 0
DWIDTH 18 0
BBX 12 22 3 0
BITMAP
30C0
1980
0F00
0600
0000
0000
0600
B9E0
C030
C010
8010
8010
8010
8010
8010
8010
8010
8010
8010
8010
8010
8010
ENDCHAR
STARTCHAR 0149
ENCODING 329
SWIDTH 600 0
DWIDTH 18 0
BBX 15 21 0 0
BITMAP
4000
4000
4000
4000
8000
00C0
173C
1806
1802
1002
1002
1002
1002
1002
1002
1002
1002
1002
1002
1002
1002
ENDCHAR
STARTCHAR 014A
ENCODING 330
SWIDTH 733 0
DWIDTH 22 0
BBX 16 27 3 -6
BITMAP
C001
C001
E001
F001
D001
C801
C401
C401
C201
C101
C181
C081
C041
C061
C021
C011
C019
C009
C005
C003
C003
0001
0001
0001
0001
0003
000E
ENDCHAR
STARTCHAR 014B
ENCODING 331
SWIDTH 600 0
DWIDTH 18 0
BBX 12 22 3 -6
BITMAP
0600
B9E0
C030
C010
8010
8010
8010
8010
8010
8010
8010
8010
8010
8010
8010
8010
0010
0010
0010
0010
0010
00E0
ENDCHAR
STARTCHAR 014C
ENCODING 332
SWIDTH 733 0
DWIDTH 22 0
BBX 16 25 3 0
BITMAP
0FF0
0000
0000
0000
1FF8
600E
4002
8003
8001
8001
8001
8001
8001
8001
8001
8001
8001
8001
8001
8001
8001
8001
C002
6006
3FFC
ENDCHAR
STARTCHAR 014D
ENCODING 333
SWIDTH 566 0
DWIDTH 17 0
BBX 13 20 2 0
BITMAP
1FE0
0000
0000
0000
0600
3CF0
4018
4008
8008
8008
8008
8008
8008
8008
8008
8008
8008
4008
4010
3FE0
ENDCHAR
STARTCHAR 014E
ENCODING 334
SWIDTH 733 0
DWIDTH 22 0
BBX 16 27 3 0
BITMAP
0810
0810
0820
07E0
0000
0000
1FF8
600E
4002
8003
8001
8001
8001
8001
8001
8001
8001
8001
8001
8001
8001
8001
8001
8001
C002
6006
3FFC
ENDCHAR
STARTCHAR 014F
ENCODING 335
SWIDTH 566 0
DWIDTH 17 0
BBX 13 22 2 0
BITMAP
1020
1040
1040
0F80
0000
0000
0600
3CF0
4018
4008
8008
8008
8008
8008
8008
8008
8008
8008
8008
4008
4010
3FE0
ENDCHAR
STARTCHAR 0150
ENCODING 336
SWIDTH 733 0
DWIDTH 22 0
BBX 16 27 3 0
BITMAP
0108
0210
0420
0840
0000
0000
1FF8
600E
4002
8003
8001
8001
8001
8001
8001
8001
8001
8001
8001
8001
8001
8001
8001
8001
C002
6006
3FFC
ENDCHAR
STARTCHAR 0151
ENCODING 337
SWIDTH 566 0
DWIDTH 17 0
BBX 13 22 2 0
BITMAP
0318
0630
0C20
0840
0000
0000
0600
3CF0
4018
4008
8008
8008
8008
8008
8008
8008
8008
8008
8008
4008
4010
3FE0
ENDCHAR
STARTCHAR 0152
ENCODING 338
SWIDTH 1066 0
DWIDTH 32 0
BBX 27 21 3 0
BITMAP
07FFFFE0
781C0000
40020000
80030000
80010000
80010000
80010000
80010000
80010000
80010000
8001FFC0
80010000
80010000
80010000
80010000
80010000
80010000
80030000
C0020000
60060000
1FFFFFE0
ENDCHAR
STARTCHAR 0153
ENCODING 339
SWIDTH 966 0
DWIDTH 29 0
BBX 24 16 2 0
BITMAP
070060
3CF3CE
401401
400C01
800801
800801
800801
800801
800FFF
800800
800800
800800
800800
400C00
401600
3FE3FF
ENDCHAR
STARTCHAR 0154
ENCODING 340
SWIDTH 700 0
DWIDTH 21 0
BBX 15 27 3 0
BITMAP
0060
0080
0100
0200
0000
0000
FFE0
C03C
C004
C002
C002
C002
C002
C002
C002
C006
C00C
FFF8
C010
C010
C018
C008
C008
C004
C004
C006
C002
ENDCHAR
STARTCHAR 0155
ENCODING 341
SWIDTH 333 0
DWIDTH 10 0
BBX 6 22 3 0
BITMAP
18
30
60
C0
00
00
04
BC
A0
C0
80
80
80
80
80
80
80
80
80
80
80
80
ENDCHAR
STARTCHAR 0156
ENCODING 342
SWIDTH 700 0
DWIDTH 21 0
BBX 15 29 3 -8
BITMAP
FFE0
C03C
C004
C002
C002
C002
C002
C002
C002
C006
C00C
FFF8
C010
C010
C018
C008
C008
C004
C004
C006
C002
0000
0000
0000
0100
0100
0100
0100
0200
ENDCHAR
STARTCHAR 0157
ENCODING 343
SWIDTH 333 0
DWIDTH 10 0
BBX 7 24 2 -8
BITMAP
02
5E
50
60
40
40
40
40
40
40
40
40
40
40
40
40
00
00
00
40
40
40
40
80
ENDCHAR
STARTCHAR 0158
ENCODING 344
SWIDTH 700 0
DWIDTH 21 0
BBX 15 27 3 0
BITMAP
1820
0440
0280
0300
0000
0000
FFE0
C03C
C004
C002
C002
C002
C002
C002
C002
C006
C00C
FFF8
C010
C010
C018
C008
C008
C004
C004
C006
C002
ENDCHAR
STARTCHAR 0159
ENCODING 345
SWIDTH 333 0
DWIDTH 10 0
BBX 8 22 1 0
BITMAP
C3
26
34
18
00
00
01
2F
28
30
20
20
20
20
20
20
20
20
20
20
20
20
ENDCHAR
STARTCHAR 015A
ENCODING 346
SWIDTH 633 0
DWIDTH 19 0
BBX 15 27 2 0
BITMAP
0060
00C0
0180
0300
0000
0000
0FFC
3004
4000
4000
C000
8000
8000
C000
4000
7800
0FF8
000C
0004
0002
0002
0002
0002
0006
0004
000C
7FF8
ENDCHAR
STARTCHAR 015B
ENCODING 347
SWIDTH 500 0
DWIDTH 15 0
BBX 11 22 2 0
BITMAP
0300
0200
0400
0800
0000
0000
0600
71C0
8000
8000
8000
8000
8000
7000
1FC0
0060
0020
0020
0020
0020
0060
FFC0
ENDCHAR
STARTCHAR 015C
ENCODING 348
SWIDTH 633 0
DWIDTH 19 0
BBX 15 27 2 0
BITMAP
0380
06C0
0460
0820
0000
0000
0FFC
3004
4000
4000
C000
8000
8000
C000
4000
7800
0FF8
000C
0004
0002
0002
0002
0002
0006
0004
000C
7FF8
ENDCHAR
STARTCHAR 015D
ENCODING 349
SWIDTH 500 0
DWIDTH 15 0
BBX 11 22 2 0
BITMAP
0E00
1B00
1100
2080
0000
0000
0600
71C0
8000
8000
8000
8000
8000
7000
1FC0
0060
0020
0020
0020
0020
0060
FFC0
ENDCHAR
STARTCHAR 015E
ENCODING 350
SWIDTH 633 0
DWIDTH 19 0
BBX 15 27 2 -6
BITMAP
0FFC
3004
4000
4000
C000
8000
8000
C000
4000
7800
0FF8
000C
0004
0002
0002
0002
0002
0006
0004
000C
7FF8
0100
0100
0200
0200
0200
0600
ENDCHAR
STARTCHAR 015F
ENCODING 351
SWIDTH 500 0
DWIDTH 15 0
BBX 11 22 2 -6
BITMAP
0600
71C0
8000
8000
8000
8000
8000
7000
1FC0
0060
0020
0020
0020
0020
0060
FFC0
0400
0400
0800
0800
0800
1800
ENDCHAR
STARTCHAR 0160
ENCODING 352
SWIDTH 633 0
DWIDTH 19 0
BBX 15 27 2 0
BITMAP
0820
0440
0280
0180
0000
0000
0FFC
3004
4000
4000
C000
8000
8000
C000
4000
7800
0FF8
000C
0004
0002
0002
0002
0002
0006
0004
000C
7FF8
ENDCHAR
STARTCHAR 0161
ENCODING 353
SWIDTH 500 0
DWIDTH 15 0
BBX 11 22 2 0
BITMAP
2080
1100
0A00
0400
0000
0000
0600
71C0
8000
8000
8000
8000
8000
7000
1FC0
0060
0020
0020
0020
0020
0060
FFC0
ENDCHAR
STARTCHAR 0162
ENCODING 354
SWIDTH 566 0
DWIDTH 17 0
BBX 15 27 1 -6
BITMAP
FFFE
0100
0100
0100
0100
0100
0100
0100
0100
0100
0100
0100
0100
0100
0100
0100
0100
0100
0100
0100
0100
0100
0100
0100
0200
0200
0200
ENDCHAR
STARTCHAR 0163
ENCODING 355
SWIDTH 333 0
DWIDTH 10 0
BBX 8 26 1 -6
BITMAP
10
10
10
10
10
FF
10
10
10
10
10
10
10
10
10
10
10
10
10
10
10
10
30
20
20
20
ENDCHAR
STARTCHAR 0164
ENCODING 356
SWIDTH 566 0
DWIDTH 17 0
BBX 15 27 1 0
BITMAP
0830
0440
02C0
0180
0000
0000
FFFE
0100
0100
0100
0100
0100
0100
0100
0100
0100
0100
0100
0100
0100
0100
0100
0100
0100
0100
0100
0100
ENDCHAR
STARTCHAR 0165
ENCODING 357
SWIDTH 333 0
DWIDTH 10 0
BBX 8 25 1 0
BITMAP
02
02
02
02
02
12
12
10
10
10
FF
10
10
10
10
10
10
10
10
10
10
10
10
10
10
ENDCHAR
STARTCHAR 0166
ENCODING 358
SWIDTH 566 0
DWIDTH 17 0
BBX 15 21 1 0
BITMAP
FFFE
0100
0100
0100
0100
0100
0100
0100
0100
0100
7FFC
0100
0100
0100
0100
0100
0100
0100
0100
0100
0100
ENDCHAR
STARTCHAR 0167
ENCODING 359
SWIDTH 333 0
DWIDTH 10 0
BBX 8 20 1 0
BITMAP
10
10
10
10
10
FF
10
10
10
10
10
FF
10
10
10
10
10
10
10
10
ENDCHAR
STARTCHAR 0168
ENCODING 360
SWIDTH 733 0
DWIDTH 22 0
BBX 15 27 3 0
BITMAP
0008
1F08
10F0
0000
0000
0000
8002
8002
8002
8002
8002
8002
8002
8002
8002
8002
8002
8002
8002
8002
8002
8002
8002
4002
4006
600C
1FF8
ENDCHAR
STARTCHAR 0169
ENCODING 361
SWIDTH 600 0
DWIDTH 18 0
BBX 12 22 3 0
BITMAP
0020
7E20
41C0
0000
0000
0000
0000
8010
8010
8010
8010
8010
8010
8010
8010
8010
8010
8010
8010
8030
4070
3F90
ENDCHAR
STARTCHAR 016A
ENCODING 362
SWIDTH 733 0
DWIDTH 22 0
BBX 15 25 3 0
BITMAP
0FF0
0000
0000
0000
8002
8002
8002
8002
8002
8002
8002
8002
8002
8002
8002
8002
8002
8002
8002
8002
8002
4002
4006
600C
1FF8
ENDCHAR
STARTCHAR 016B
ENCODING 363
SWIDTH 600 0
DWIDTH 18 0
BBX 12 20 3 0
BITMAP
3FC0
0000
0000
0000
0000
8010
8010
8010
8010
8010
8010
8010
8010
8010
8010
8010
8010
8030
4070
3F90
ENDCHAR
STARTCHAR 016C
ENCODING 364
SWIDTH 733 0
DWIDTH 22 0
BBX 15 27 3 0
BITMAP
0810
0810
0820
07C0
0000
0000
8002
8002
8002
8002
8002
8002
8002
8002
8002
8002
8002
8002
8002
8002
8002
8002
8002
4002
4006
600C
1FF8
ENDCHAR
STARTCHAR 016D
ENCODING 365
SWIDTH 600 0
DWIDTH 18 0
BBX 12 22 3 0
BITMAP
2040
2040
30C0
1F80
0000
0000
0000
8010
8010
8010
8010
8010
8010
8010
8010
8010
8010
8010
8010
8030
4070
3F90
ENDCHAR
STARTCHAR 016E
ENCODING 366
SWIDTH 733 0
DWIDTH 22 0
BBX 15 28 3 0
BITMAP
07E0
0820
0820
0820
07E0
0000
0000
8002
8002
8002
8002
8002
8002
8002
8002
8002
8002
8002
8002
8002
8002
8002
8002
8002
4002
4006
600C
1FF8
ENDCHAR
STARTCHAR 016F
ENCODING 367
SWIDTH 600 0
DWIDTH 18 0
BBX 12 23 3 0
BITMAP
1F80
1080
1080
1080
1F80
0000
0000
0000
8010
8010
8010
8010
8010
8010
8010
8010
8010
8010
8010
8010
8030
4070
3F90
ENDCHAR
STARTCHAR 0170
ENCODING 368
SWIDTH 733 0
DWIDTH 22 0
BBX 15 27 3 0
BITMAP
0108
0210
0420
0840
0000
0000
8002
8002
8002
8002
8002
8002
8002
8002
8002
8002
8002
8002
8002
8002
8002
8002
8002
4002
4006
600C
1FF8
ENDCHAR
STARTCHAR 0171
ENCODING 369
SWIDTH 600 0
DWIDTH 18 0
BBX 12 22 3 0
BITMAP
0610
0420
0840
1080
0000
0000
0000
8010
8010
8010
8010
8010
8010
8010
8010
8010
8010
8010
8010
8030
4070
3F90
ENDCHAR
STARTCHAR 0172
ENCODING 370
SWIDTH 733 0
DWIDTH 22 0
BBX 15 27 3 -6
BITMAP
8002
8002
8002
8002
8002
8002
8002
8002
8002
8002
8002
8002
8002
8002
8002
8002
8002
4002
4006
600C
1FF8
0080
0100
0100
0200
0300
0180
ENDCHAR
STARTCHAR 0173
ENCODING 371
SWIDTH 600 0
DWIDTH 18 0
BBX 12 21 3 -6
BITMAP
8010
8010
8010
8010
8010
8010
8010
8010
8010
8010
8010
8010
8030
4070
3F90
0010
0020
0040
0040
0060
0030
ENDCHAR
STARTCHAR 0174
ENCODING 372
SWIDTH 1000 0
DWIDTH 30 0
BBX 27 27 1 0
BITMAP
000E0000
00090000
00108000
00204000
00000000
00000000
C0040020
40060020
40060040
600A0040
20090040
200900C0
20110080
10108080
10108080
10208100
1820C100
08204100
08404200
08406200
04402200
04802200
04803400
02801400
03001400
03001800
03000800
ENDCHAR
STARTCHAR 0175
ENCODING 373
SWIDTH 800 0
DWIDTH 24 0
BBX 22 22 1 0
BITMAP
003000
004800
008400
010200
000000
000000
000000
C03004
403008
403808
204818
204810
204C10
108430
108420
108420
090260
090240
090240
060180
060180
060180
ENDCHAR
STARTCHAR 0176
ENCODING 374
SWIDTH 600 0
DWIDTH 18 0
BBX 16 27 1 0
BITMAP
0180
0240
0420
0810
0000
0000
8001
C003
4002
2004
200C
1008
0810
0810
0420
0660
0240
0180
0180
0180
0180
0180
0180
0180
0180
0180
0180
ENDCHAR
STARTCHAR 0177
ENCODING 375
SWIDTH 600 0
DWIDTH 18 0
BBX 12 28 3 -6
BITMAP
0600
0900
1080
2040
0000
0000
0000
8010
8010
8010
8010
8010
8010
8010
8010
8010
8010
8010
8010
8030
4070
3F90
0010
0010
0010
0020
0060
FFC0
ENDCHAR
STARTCHAR 0178
ENCODING 376
SWIDTH 600 0
DWIDTH 18 0
BBX 16 26 1 0
BITMAP
0830
0830
0000
0000
0000
8001
C003
4002
2004
200C
1008
0810
0810
0420
0660
0240
0180
0180
0180
0180
0180
0180
0180
0180
0180
0180
ENDCHAR
STARTCHAR 0179
ENCODING 377
SWIDTH 600 0
DWIDTH 18 0
BBX 14 27 2 0
BITMAP
0060
0080
0100
0200
0000
0000
FFFC
0004
0008
0018
0010
0020
0060
0040
0080
0100
0300
0200
0400
0C00
0800
1000
3000
2000
4000
C000
FFFC
ENDCHAR
STARTCHAR 017A
ENCODING 378
SWIDTH 500 0
DWIDTH 15 0
BBX 11 22 2 0
BITMAP
0300
0200
0400
0800
0000
0000
0000
FFE0
0040
00C0
0080
0100
0200
0600
0400
0800
1000
3000
2000
4000
C000
FFE0
ENDCHAR
STARTCHAR 017B
ENCODING 379
SWIDTH 600 0
DWIDTH 18 0
BBX 14 26 2 0
BITMAP
0300
0000
0000
0000
0000
FFFC
0004
0008
0018
0010
0020
0060
0040
0080
0100
0300
0200
0400
0C00
0800
1000
3000
2000
4000
C000
FFFC
ENDCHAR
STARTCHAR 017C
ENCODING 380
SWIDTH 500 0
DWIDTH 15 0
BBX 11 21 2 0
BITMAP
0400
0400
0000
0000
0000
0000
FFE0
0040
00C0
0080
0100
0200
0600
0400
0800
1000
3000
2000
4000
C000
FFE0
ENDCHAR
STARTCHAR 017D
ENCODING 381
SWIDTH 600 0
DWIDTH 18 0
BBX 14 27 2 0
BITMAP
1860
0CC0
0780
0300
0000
0000
FFFC
0004
0008
0018
0010
0020
0060
0040
0080
0100
0300
0200
0400
0C00
0800
1000
3000
2000
4000
C000
FFFC
ENDCHAR
STARTCHAR 017E
ENCODING 382
SWIDTH 500 0
DWIDTH 15 0
BBX 11 22 2 0
BITMAP
2080
1100
0A00
0400
0000
0000
0000
FFE0
0040
00C0
0080
0100
0200
0600
0400
0800
1000
3000
2000
4000
C000
FFE0
ENDCHAR
STARTCHAR 017F
ENCODING 383
SWIDTH 300 0
DWIDTH 9 0
BBX 8 22 1 0
BITMAP
0F
18
10
10
10
10
10
F0
10
10
10
10
10
10
10
10
10
10
10
10
10
10
ENDCHAR
STARTCHAR 018F
ENCODING 399
SWIDTH 700 0
DWIDTH 21 0
BBX 15 21 3 0
BITMAP
1FF0
201C
0004
0002
0002
0002
0002
0002
0002
0002
FFFE
8002
8002
8002
8002
8002
8002
8002
C002
4004
3FF8
ENDCHAR
STARTCHAR 0192
ENCODING 402
SWIDTH 300 0
DWIDTH 9 0
BBX 15 28 -5 -6
BITMAP
001E
0030
0020
0020
0040
0040
0040
07FC
0080
0080
0080
0080
0180
0100
0100
0100
0100
0200
0200
0200
0200
0200
0400
0400
0400
0800
1800
E000
ENDCHAR
STARTCHAR 019D
ENCODING 413
SWIDTH 733 0
DWIDTH 22 0
BBX 19 27 0 -6
BITMAP
180020
180020
1C0020
1E0020
1A0020
190020
188020
188020
184020
182020
183020
181020
180820
180C20
180420
180220
180320
180120
1800A0
180060
180060
180000
180000
180000
100000
100000
F00000
ENDCHAR
STARTCHAR 01A0
ENCODING 416
SWIDTH 733 0
DWIDTH 22 0
BBX 16 24 3 0
BITMAP
0001
0001
0001
1FFF
600E
4002
8003
8001
8001
8001
8001
8001
8001
8001
8001
8001
8001
8001
8001
8001
8001
C002
6006
3FFC
ENDCHAR
STARTCHAR 01A1
ENCODING 417
SWIDTH 566 0
DWIDTH 17 0
BBX 14 18 2 0
BITMAP
0004
0008
0608
3CF0
4018
4008
8008
8008
8008
8008
8008
8008
8008
8008
8008
4008
4010
3FE0
ENDCHAR
STARTCHAR 01AF
ENCODING 431
SWIDTH 733 0
DWIDTH 22 0
BBX 19 24 3 0
BITMAP
000020
000020
000040
8003C0
800200
800200
800200
800200
800200
800200
800200
800200
800200
800200
800200
800200
800200
800200
800200
800200
400200
400600
600C00
1FF800
ENDCHAR
STARTCHAR 01B0
ENCODING 432
SWIDTH 600 0
DWIDTH 18 0
BBX 15 18 3 0
BITMAP
0002
0002
0006
8018
8010
8010
8010
8010
8010
8010
8010
8010
8010
8010
8010
8030
4070
3F90
ENDCHAR
STARTCHAR 01C4
ENCODING 452
SWIDTH 1300 0
DWIDTH 39 0
BBX 34 27 3 0
BITMAP
0000018600
0000008800
0000005800
0000003000
0000000000
0000000000
FF800FFFC0
C0380000C0
C004000080
C006000100
C002000300
C002000200
C002000400
C002000C00
C002000800
C002001000
C002003000
C002002000
C002004000
C00200C000
C002018000
C002010000
C002020000
C006060000
C004040000
C00C080000
FFF00FFFC0
ENDCHAR
STARTCHAR 01C5
ENCODING 453
SWIDTH 1200 0
DWIDTH 36 0
BBX 31 22 3 0
BITMAP
00000608
FF800110
C03800A0
C00400C0
C0060000
C0020000
C0020000
C0020FFE
C0020004
C002000C
C0020018
C0020010
C0020020
C0020060
C00200C0
C0020080
C0020100
C0020300
C0060600
C0040400
C00C0800
FFF01FFE
ENDCHAR
STARTCHAR 01C6
ENCODING 454
SWIDTH 1100 0
DWIDTH 33 0
BBX 29 22 2 0
BITMAP
00080820
00080440
00080280
00080300
00080000
00080000
03080000
3DE83FF8
40280010
40180030
C0080060
80080040
80080080
80080180
80080300
80080200
80080400
80080C00
40181800
40181000
60282000
3FC83FF8
ENDCHAR
STARTCHAR 01C7
ENCODING 455
SWIDTH 866 0
DWIDTH 26 0
BBX 20 21 3 0
BITMAP
C00010
C00010
C00010
C00010
C00010
C00010
C00010
C00010
C00010
C00010
C00010
C00010
C00010
C00010
C00010
C00010
C00030
C00030
C00020
C00020
FFF3C0
ENDCHAR
STARTCHAR 01C8
ENCODING 456
SWIDTH 766 0
DWIDTH 23 0
BBX 17 28 3 -6
BITMAP
000080
C00080
C00000
C00000
C00000
C00000
C00000
C00080
C00080
C00080
C00080
C00080
C00080
C00080
C00080
C00080
C00080
C00080
C00080
C00080
C00080
FFF080
000080
000080
000080
000080
000080
000700
ENDCHAR
STARTCHAR 01C9
ENCODING 457
SWIDTH 466 0
DWIDTH 14 0
BBX 8 28 3 -6
BITMAP
81
81
80
80
80
80
80
81
81
81
81
81
81
81
81
81
81
81
81
81
81
81
01
01
01
01
01
0E
ENDCHAR
STARTCHAR 01CA
ENCODING 458
SWIDTH 1066 0
DWIDTH 32 0
BBX 26 21 3 0
BITMAP
C0010040
C0010040
E0010040
F0010040
D0010040
C8010040
C4010040
C4010040
C2010040
C1010040
C1810040
C0810040
C0410040
C0610040
C0210040
C0110040
C0190040
C00900C0
C0050080
C0030080
C0030F00
ENDCHAR
STARTCHAR 01CB
ENCODING 459
SWIDTH 966 0
DWIDTH 29 0
BBX 23 28 3 -6
BITMAP
000002
C00102
C00100
E00100
F00100
D00100
C80100
C40102
C40102
C20102
C10102
C18102
C08102
C04102
C06102
C02102
C01102
C01902
C00902
C00502
C00302
C00302
000002
000002
000002
000002
000002
00001C
ENDCHAR
STARTCHAR 01CC
ENCODING 460
SWIDTH 833 0
DWIDTH 25 0
BBX 19 28 3 -6
BITMAP
000020
000020
000000
000000
000000
000000
060000
B9E020
C03020
C01020
801020
801020
801020
801020
801020
801020
801020
801020
801020
801020
801020
801020
000020
000020
000020
000020
000020
0001C0
ENDCHAR
STARTCHAR 01CD
ENCODING 461
SWIDTH 666 0
DWIDTH 20 0
BBX 18 27 1 0
BITMAP
060800
011000
00A000
00C000
000000
000000
004000
00C000
00A000
01A000
012000
011000
021000
020800
040800
040C00
040400
080400
080200
1FFE00
100300
300100
200100
200080
400080
400040
C00040
ENDCHAR
STARTCHAR 01CE
ENCODING 462
SWIDTH 566 0
DWIDTH 17 0
BBX 12 22 2 0
BITMAP
1060
0880
0580
0300
0000
0000
0E00
71E0
0030
0010
0010
0010
0010
0010
7FF0
8010
8010
8010
8010
8030
C030
7FD0
ENDCHAR
STARTCHAR 01CF
ENCODING 463
SWIDTH 266 0
DWIDTH 8 0
BBX 8 27 0 0
BITMAP
C3
66
3C
18
00
00
18
18
18
18
18
18
18
18
18
18
18
18
18
18
18
18
18
18
18
18
18
ENDCHAR
STARTCHAR 01D0
ENCODING 464
SWIDTH 233 0
DWIDTH 7 0
BBX 7 22 0 0
BITMAP
82
44
28
18
00
00
00
10
10
10
10
10
10
10
10
10
10
10
10
10
10
10
ENDCHAR
STARTCHAR 01D1
ENCODING 465
SWIDTH 733 0
DWIDTH 22 0
BBX 16 27 3 0
BITMAP
0430
0640
02C0
0180
0000
0000
1FF8
600E
4002
8003
8001
8001
8001
8001
8001
8001
8001
8001
8001
8001
8001
8001
8001
8001
C002
6006
3FFC
ENDCHAR
STARTCHAR 01D2
ENCODING 466
SWIDTH 566 0
DWIDTH 17 0
BBX 13 22 2 0
BITMAP
1060
0880
0500
0300
0000
0000
0600
3CF0
4018
4008
8008
8008
8008
8008
8008
8008
8008
8008
8008
4008
4010
3FE0
ENDCHAR
STARTCHAR 01D3
ENCODING 467
SWIDTH 733 0
DWIDTH 22 0
BBX 15 27 3 0
BITMAP
0830
0440
02C0
0180
0000
0000
8002
8002
8002
8002
8002
8002
8002
8002
8002
8002
8002
8002
8002
8002
8002
8002
8002
4002
4006
600C
1FF8
ENDCHAR
STARTCHAR 01D4
ENCODING 468
SWIDTH 600 0
DWIDTH 18 0
BBX 12 22 3 0
BITMAP
30C0
1980
0F00
0600
0000
0000
0000
8010
8010
8010
8010
8010
8010
8010
8010
8010
8010
8010
8010
8030
4070
3F90
ENDCHAR
STARTCHAR 01D5
ENCODING 469
SWIDTH 733 0
DWIDTH 22 0
BBX 15 31 3 0
BITMAP
0FF0
0000
0000
0000
0000
0830
0830
0000
0000
0000
8002
8002
8002
8002
8002
8002
8002
8002
8002
8002
8002
8002
8002
8002
8002
8002
8002
4002
4006
600C
1FF8
ENDCHAR
STARTCHAR 01D6
ENCODING 470
SWIDTH 600 0
DWIDTH 18 0
BBX 12 25 3 0
BITMAP
3FC0
0000
0000
0000
3040
3040
0000
0000
0000
0000
8010
8010
8010
8010
8010
8010
8010
8010
8010
8010
8010
8010
8030
4070
3F90
ENDCHAR
STARTCHAR 01D7
ENCODING 471
SWIDTH 733 0
DWIDTH 22 0
BBX 15 33 3 0
BITMAP
0060
00C0
0080
0100
0000
0000
0000
0830
0830
0000
0000
0000
8002
8002
8002
8002
8002
8002
8002
8002
8002
8002
8002
8002
8002
8002
8002
8002
8002
4002
4006
600C
1FF8
ENDCHAR
STARTCHAR 01D8
ENCODING 472
SWIDTH 600 0
DWIDTH 18 0
BBX 12 27 3 0
BITMAP
0180
0200
0400
0C00
0000
0000
3040
3040
0000
0000
0000
0000
8010
8010
8010
8010
8010
8010
8010
8010
8010
8010
8010
8010
8030
4070
3F90
ENDCHAR
STARTCHAR 01D9
ENCODING 473
SWIDTH 733 0
DWIDTH 22 0
BBX 15 33 3 0
BITMAP
0830
0440
02C0
0180
0000
0000
0000
0830
0830
0000
0000
0000
8002
8002
8002
8002
8002
8002
8002
8002
8002
8002
8002
8002
8002
8002
8002
8002
8002
4002
4006
600C
1FF8
ENDCHAR
STARTCHAR 01DA
ENCODING 474
SWIDTH 600 0
DWIDTH 18 0
BBX 12 27 3 0
BITMAP
30C0
1980
0F00
0600
0000
0000
3040
3040
0000
0000
0000
0000
8010
8010
8010
8010
8010
8010
8010
8010
8010
8010
8010
8010
8030
4070
3F90
ENDCHAR
STARTCHAR 01DB
ENCODING 475
SWIDTH 733 0
DWIDTH 22 0
BBX 15 33 3 0
BITMAP
0600
0300
0100
0080
0000
0000
0000
0830
0830
0000
0000
0000
8002
8002
8002
8002
8002
8002
8002
8002
8002
8002
8002
8002
8002
8002
8002
8002
8002
4002
4006
600C
1FF8
ENDCHAR
STARTCHAR 01DC
ENCODING 476
SWIDTH 600 0
DWIDTH 18 0
BBX 12 27 3 0
BITMAP
1800
0C00
0600
0300
0000
0000
3040
3040
0000
0000
0000
0000
8010
8010
8010
8010
8010
8010
8010
8010
8010
8010
8010
8010
8030
4070
3F90
ENDCHAR
STARTCHAR 01E6
ENCODING 486
SWIDTH 666 0
DWIDTH 20 0
BBX 14 27 3 0
BITMAP
0C30
0640
02C0
0180
0000
0000
0FF8
3004
4000
C000
8000
8000
8000
8000
8000
8000
8000
80FC
8004
8004
8004
8004
8004
8004
4004
6004
1FFC
ENDCHAR
STARTCHAR 01E7
ENCODING 487
SWIDTH 600 0
DWIDTH 18 0
BBX 13 28 2 -6
BITMAP
1860
0CC0
0780
0300
0000
0000
0300
3DE8
4038
4018
8008
8008
8008
8008
8008
8008
8008
8008
4018
4018
6028
3FC8
0008
0008
0018
0010
0030
7FC0
ENDCHAR
STARTCHAR 01EA
ENCODING 490
SWIDTH 733 0
DWIDTH 22 0
BBX 16 27 3 -6
BITMAP
1FF8
600E
4002
8003
8001
8001
8001
8001
8001
8001
8001
8001
8001
8001
8001
8001
8001
8001
C002
6006
3FFC
0100
0100
0200
0200
0200
0180
ENDCHAR
STARTCHAR 01EB
ENCODING 491
SWIDTH 566 0
DWIDTH 17 0
BBX 13 22 2 -6
BITMAP
0600
3CF0
4018
4008
8008
8008
8008
8008
8008
8008
8008
8008
8008
4008
4010
3FE0
0200
0200
0400
0400
0400
0300
ENDCHAR
STARTCHAR 01F1
ENCODING 497
SWIDTH 1300 0
DWIDTH 39 0
BBX 34 21 3 0
BITMAP
FF800FFFC0
C0380000C0
C004000080
C006000100
C002000300
C002000200
C002000400
C002000C00
C002000800
C002001000
C002003000
C002002000
C002004000
C00200C000
C002018000
C002010000
C002020000
C006060000
C004040000
C00C080000
FFF00FFFC0
ENDCHAR
STARTCHAR 01F2
ENCODING 498
SWIDTH 1200 0
DWIDTH 36 0
BBX 31 21 3 0
BITMAP
FF800000
C0380000
C0040000
C0060000
C0020000
C0020000
C0020FFE
C0020004
C002000C
C0020018
C0020010
C0020020
C0020060
C00200C0
C0020080
C0020100
C0020300
C0060600
C0040400
C00C0800
FFF01FFE
ENDCHAR
STARTCHAR 01F3
ENCODING 499
SWIDTH 1100 0
DWIDTH 33 0
BBX 29 22 2 0
BITMAP
00080000
00080000
00080000
00080000
00080000
00080000
03080000
3DE83FF8
40280010
40180030
C0080060
80080040
80080080
80080180
80080300
80080200
80080400
80080C00
40181800
40181000
60282000
3FC83FF8
ENDCHAR
STARTCHAR 01F4
ENCODING 500
SWIDTH 666 0
DWIDTH 20 0
BBX 14 27 3 0
BITMAP
0060
0040
0080
0100
0000
0000
0FF8
3004
4000
C000
8000
8000
8000
8000
8000
8000
8000
80FC
8004
8004
8004
8004
8004
8004
4004
6004
1FFC
ENDCHAR
STARTCHAR 01F5
ENCODING 501
SWIDTH 600 0
DWIDTH 18 0
BBX 13 28 2 -6
BITMAP
00C0
0100
0200
0400
0000
0000
0300
3DE8
4038
4018
8008
8008
8008
8008
8008
8008
8008
8008
4018
4018
6028
3FC8
0008
0008
0018
0010
0030
7FC0
ENDCHAR
STARTCHAR 01FA
ENCODING 506
SWIDTH 666 0
DWIDTH 20 0
BBX 18 31 1 0
BITMAP
001800
002000
004000
008000
000000
000000
03F000
020800
020800
020800
03F000
00C000
00A000
01A000
012000
011000
021000
020800
040800
040C00
040400
080400
080200
1FFE00
100300
300100
200100
200080
400080
400040
C00040
ENDCHAR
STARTCHAR 01FB
ENCODING 507
SWIDTH 566 0
DWIDTH 17 0
BBX 12 29 2 0
BITMAP
00C0
0100
0200
0400
0000
0000
0FC0
1040
1040
1040
0FC0
0000
0000
0E00
71E0
0030
0010
0010
0010
0010
0010
7FF0
8010
8010
8010
8010
8030
C030
7FD0
ENDCHAR
STARTCHAR 01FC
ENCODING 508
SWIDTH 933 0
DWIDTH 28 0
BBX 27 27 0 0
BITMAP
0000C000
00010000
00020000
00040000
00000000
00000000
001FFFE0
00300000
00300000
00480000
00C80000
00880000
018C0000
01040000
03040000
02060000
0603FF80
04020000
08020000
0FFF0000
10010000
10010000
20008000
20008000
40008000
4000C000
80007FE0
ENDCHAR
STARTCHAR 01FD
ENCODING 509
SWIDTH 933 0
DWIDTH 28 0
BBX 24 22 2 0
BITMAP
000600
000800
001000
002000
000000
000000
0E0040
71E7BC
003802
001802
001002
001002
001002
001002
7FFFFF
C01000
801000
801000
801000
802800
C02C00
7FC7FE
ENDCHAR
STARTCHAR 01FE
ENCODING 510
SWIDTH 733 0
DWIDTH 22 0
BBX 16 30 3 -2
BITMAP
0020
0040
00C0
0080
0100
0000
0003
1FFA
600E
4006
800B
8011
8011
8021
8041
8041
8081
8181
8101
8201
8201
8401
8801
8801
9001
E002
6006
7FFC
C000
8000
ENDCHAR
STARTCHAR 01FF
ENCODING 511
SWIDTH 566 0
DWIDTH 17 0
BBX 13 24 2 -2
BITMAP
00C0
0100
0200
0400
0000
0008
0610
3CF0
4038
4048
8048
8088
8108
8108
8208
8608
8408
8808
8808
5008
6010
3FE0
4000
C000
ENDCHAR
STARTCHAR 0200
ENCODING 512
SWIDTH 666 0
DWIDTH 20 0
BBX 18 27 1 0
BITMAP
0C6000
042000
021000
010800
000000
000000
004000
00C000
00A000
01A000
012000
011000
021000
020800
040800
040C00
040400
080400
080200
1FFE00
100300
300100
200100
200080
400080
400040
C00040
ENDCHAR
STARTCHAR 0201
ENCODING 513
SWIDTH 566 0
DWIDTH 17 0
BBX 12 22 2 0
BITMAP
6300
2180
1080
0840
0000
0000
0E00
71E0
0030
0010
0010
0010
0010
0010
7FF0
8010
8010
8010
8010
8030
C030
7FD0
ENDCHAR
STARTCHAR 0202
ENCODING 514
SWIDTH 666 0
DWIDTH 20 0
BBX 18 27 1 0
BITMAP
03F000
020800
040800
040800
000000
000000
004000
00C000
00A000
01A000
012000
011000
021000
020800
040800
040C00
040400
080400
080200
1FFE00
100300
300100
200100
200080
400080
400040
C00040
ENDCHAR
STARTCHAR 0203
ENCODING 515
SWIDTH 566 0
DWIDTH 17 0
BBX 12 22 2 0
BITMAP
0FC0
1040
1020
1020
0000
0000
0E00
71E0
0030
0010
0010
0010
0010
0010
7FF0
8010
8010
8010
8010
8030
C030
7FD0
ENDCHAR
STARTCHAR 0204
ENCODING 516
SWIDTH 600 0
DWIDTH 18 0
BBX 13 27 3 0
BITMAP
2100
1080
0840
0420
0000
0000
FFF8
C000
C000
C000
C000
C000
C000
C000
C000
C000
FFF0
C000
C000
C000
C000
C000
C000
C000
C000
C000
FFF8
ENDCHAR
STARTCHAR 0205
ENCODING 517
SWIDTH 566 0
DWIDTH 17 0
BBX 13 22 2 0
BITMAP
6300
2100
1080
0840
0000
0000
0200
3CE0
4010
4010
8010
8008
8008
8008
FFF8
8000
8000
8000
4000
4000
6000
3FF0
ENDCHAR
STARTCHAR 0206
ENCODING 518
SWIDTH 600 0
DWIDTH 18 0
BBX 13 27 3 0
BITMAP
0FC0
1020
1020
1020
0000
0000
FFF8
C000
C000
C000
C000
C000
C000
C000
C000
C000
FFF0
C000
C000
C000
C000
C000
C000
C000
C000
C000
FFF8
ENDCHAR
STARTCHAR 0207
ENCODING 519
SWIDTH 566 0
DWIDTH 17 0
BBX 13 22 2 0
BITMAP
0FC0
1040
1040
1040
0000
0000
0200
3CE0
4010
4010
8010
8008
8008
8008
FFF8
8000
8000
8000
4000
4000
6000
3FF0
ENDCHAR
STARTCHAR 0208
ENCODING 520
SWIDTH 266 0
DWIDTH 8 0
BBX 9 27 -1 0
BITMAP
8400
4200
2100
1080
0000
0000
0C00
0C00
0C00
0C00
0C00
0C00
0C00
0C00
0C00
0C00
0C00
0C00
0C00
0C00
0C00
0C00
0C00
0C00
0C00
0C00
0C00
ENDCHAR
STARTCHAR 0209
ENCODING 521
SWIDTH 233 0
DWIDTH 7 0
BBX 9 22 -2 0
BITMAP
8600
4200
2100
1080
0000
0000
0000
0400
0400
0400
0400
0400
0400
0400
0400
0400
0400
0400
0400
0400
0400
0400
ENDCHAR
STARTCHAR 020A
ENCODING 522
SWIDTH 266 0
DWIDTH 8 0
BBX 8 27 0 0
BITMAP
7E
81
81
81
00
00
18
18
18
18
18
18
18
18
18
18
18
18
18
18
18
18
18
18
18
18
18
ENDCHAR
STARTCHAR 020B
ENCODING 523
SWIDTH 233 0
DWIDTH 7 0
BBX 7 22 0 0
BITMAP
7E
82
82
82
00
00
00
10
10
10
10
10
10
10
10
10
10
10
10
10
10
10
ENDCHAR
STARTCHAR 020C
ENCODING 524
SWIDTH 733 0
DWIDTH 22 0
BBX 16 27 3 0
BITMAP
1080
0840
0420
0210
0000
0000
1FF8
600E
4002
8003
8001
8001
8001
8001
8001
8001
8001
8001
8001
8001
8001
8001
8001
8001
C002
6006
3FFC
ENDCHAR
STARTCHAR 020D
ENCODING 525
SWIDTH 566 0
DWIDTH 17 0
BBX 13 22 2 0
BITMAP
6300
2180
1080
0840
0000
0000
0600
3CF0
4018
4008
8008
8008
8008
8008
8008
8008
8008
8008
8008
4008
4010
3FE0
ENDCHAR
STARTCHAR 020E
ENCODING 526
SWIDTH 733 0
DWIDTH 22 0
BBX 16 27 3 0
BITMAP
07E0
0820
0810
0810
0000
0000
1FF8
600E
4002
8003
8001
8001
8001
8001
8001
8001
8001
8001
8001
8001
8001
8001
8001
8001
C002
6006
3FFC
ENDCHAR
STARTCHAR 020F
ENCODING 527
SWIDTH 566 0
DWIDTH 17 0
BBX 13 22 2 0
BITMAP
0FC0
1040
1040
1020
0000
0000
0600
3CF0
4018
4008
8008
8008
8008
8008
8008
8008
8008
8008
8008
4008
4010
3FE0
ENDCHAR
STARTCHAR 0210
ENCODING 528
SWIDTH 700 0
DWIDTH 21 0
BBX 15 27 3 0
BITMAP
3180
1080
0840
0420
0000
0000
FFE0
C03C
C004
C002
C002
C002
C002
C002
C002
C006
C00C
FFF8
C010
C010
C018
C008
C008
C004
C004
C006
C002
ENDCHAR
STARTCHAR 0211
ENCODING 529
SWIDTH 333 0
DWIDTH 10 0
BBX 9 22 0 0
BITMAP
8400
4200
2100
3080
0000
0000
0080
1780
1400
1800
1000
1000
1000
1000
1000
1000
1000
1000
1000
1000
1000
1000
ENDCHAR
STARTCHAR 0212
ENCODING 530
SWIDTH 700 0
DWIDTH 21 0
BBX 15 27 3 0
BITMAP
0FC0
0820
1020
1020
0000
0000
FFE0
C03C
C004
C002
C002
C002
C002
C002
C002
C006
C00C
FFF8
C010
C010
C018
C008
C008
C004
C004
C006
C002
ENDCHAR
STARTCHAR 0213
ENCODING 531
SWIDTH 333 0
DWIDTH 10 0
BBX 8 22 1 0
BITMAP
7E
C1
81
81
00
00
01
2F
28
30
20
20
20
20
20
20
20
20
20
20
20
20
ENDCHAR
STARTCHAR 0214
ENCODING 532
SWIDTH 733 0
DWIDTH 22 0
BBX 15 27 3 0
BITMAP
1080
0840
0420
0610
0000
0000
8002
8002
8002
8002
8002
8002
8002
8002
8002
8002
8002
8002
8002
8002
8002
8002
8002
4002
4006
600C
1FF8
ENDCHAR
STARTCHAR 0215
ENCODING 533
SWIDTH 600 0
DWIDTH 18 0
BBX 12 22 3 0
BITMAP
C200
6100
3080
1880
0000
0000
0000
8010
8010
8010
8010
8010
8010
8010
8010
8010
8010
8010
8010
8030
4070
3F90
ENDCHAR
STARTCHAR 0216
ENCODING 534
SWIDTH 733 0
DWIDTH 22 0
BBX 15 27 3 0
BITMAP
07E0
0820
0810
0810
0000
0000
8002
8002
8002
8002
8002
8002
8002
8002
8002
8002
8002
8002
8002
8002
8002
8002
8002
4002
4006
600C
1FF8
ENDCHAR
STARTCHAR 0217
ENCODING 535
SWIDTH 600 0
DWIDTH 18 0
BBX 12 22 3 0
BITMAP
1F80
2040
2040
2040
0000
0000
0000
8010
8010
8010
8010
8010
8010
8010
8010
8010
8010
8010
8010
8030
4070
3F90
ENDCHAR
STARTCHAR 0218
ENCODING 536
SWIDTH 633 0
DWIDTH 19 0
BBX 15 29 2 -8
BITMAP
0FFC
3004
4000
4000
C000
8000
8000
C000
4000
7800
0FF8
000C
0004
0002
0002
0002
0002
0006
0004
000C
7FF8
0000
0000
0000
0100
0100
0100
0100
0200
ENDCHAR
STARTCHAR 0219
ENCODING 537
SWIDTH 500 0
DWIDTH 15 0
BBX 11 24 2 -8
BITMAP
0600
71C0
8000
8000
8000
8000
8000
7000
1FC0
0060
0020
0020
0020
0020
0060
FFC0
0000
0000
0000
0400
0400
0400
0400
0800
ENDCHAR
STARTCHAR 021A
ENCODING 538
SWIDTH 566 0
DWIDTH 17 0
BBX 15 29 1 -8
BITMAP
FFFE
0100
0100
0100
0100
0100
0100
0100
0100
0100
0100
0100
0100
0100
0100
0100
0100
0100
0100
0100
0100
0000
0000
0000
0100
0100
0080
0100
0200
ENDCHAR
STARTCHAR 021B
ENCODING 539
SWIDTH 333 0
DWIDTH 10 0
BBX 8 28 1 -8
BITMAP
10
10
10
10
10
FF
10
10
10
10
10
10
10
10
10
10
10
10
10
10
00
00
00
10
10
10
10
20
ENDCHAR
STARTCHAR 022A
ENCODING 554
SWIDTH 733 0
DWIDTH 22 0
BBX 16 31 3 0
BITMAP
0FF0
0000
0000
0000
0000
0830
0830
0000
0000
0000
1FF8
600E
4002
8003
8001
8001
8001
8001
8001
8001
8001
8001
8001
8001
8001
8001
8001
8001
C002
6006
3FFC
ENDCHAR
STARTCHAR 022B
ENCODING 555
SWIDTH 566 0
DWIDTH 17 0
BBX 13 25 2 0
BITMAP
1FE0
0000
0000
0000
1040
1040
0000
0000
0000
0600
3CF0
4018
4008
8008
8008
8008
8008
8008
8008
8008
8008
8008
4008
4010
3FE0
ENDCHAR
STARTCHAR 022C
ENCODING 556
SWIDTH 733 0
DWIDTH 22 0
BBX 16 31 3 0
BITMAP
0FF0
0000
0000
0000
0008
1F88
10F0
0000
0000
0000
1FF8
600E
4002
8003
8001
8001
8001
8001
8001
8001
8001
8001
8001
8001
8001
8001
8001
8001
C002
6006
3FFC
ENDCHAR
STARTCHAR 022D
ENCODING 557
SWIDTH 566 0
DWIDTH 17 0
BBX 13 25 2 0
BITMAP
1FE0
0000
0000
0010
3E10
21E0
0000
0000
0000
0600
3CF0
4018
4008
8008
8008
8008
8008
8008
8008
8008
8008
8008
4008
4010
3FE0
ENDCHAR
STARTCHAR 0230
ENCODING 560
SWIDTH 733 0
DWIDTH 22 0
BBX 16 30 3 0
BITMAP
0FF0
0000
0000
0000
0180
0000
0000
0000
0000
1FF8
600E
4002
8003
8001
8001
8001
8001
8001
8001
8001
8001
8001
8001
8001
8001
8001
8001
C002
6006
3FFC
ENDCHAR
STARTCHAR 0231
ENCODING 561
SWIDTH 566 0
DWIDTH 17 0
BBX 13 25 2 0
BITMAP
1FE0
0000
0000
0000
0200
0200
0000
0000
0000
0600
3CF0
4018
4008
8008
8008
8008
8008
8008
8008
8008
8008
8008
4008
4010
3FE0
ENDCHAR
STARTCHAR 0232
ENCODING 562
SWIDTH 600 0
DWIDTH 18 0
BBX 16 25 1 0
BITMAP
0FF0
0000
0000
0000
8001
C003
4002
2004
200C
1008
0810
0810
0420
0660
0240
0180
0180
0180
0180
0180
0180
0180
0180
0180
0180
ENDCHAR
STARTCHAR 0233
ENCODING 563
SWIDTH 600 0
DWIDTH 18 0
BBX 12 26 3 -6
BITMAP
3FC0
0000
0000
0000
0000
8010
8010
8010
8010
8010
8010
8010
8010
8010
8010
8010
8010
8030
4070
3F90
0010
0010
0010
0020
0060
FFC0
ENDCHAR
STARTCHAR 0237
ENCODING 567
SWIDTH 233 0
DWIDTH 7 0
BBX 4 21 0 -6
BITMAP
10
10
10
10
10
10
10
10
10
10
10
10
10
10
10
10
10
10
10
10
E0
ENDCHAR
STARTCHAR 0259
ENCODING 601
SWIDTH 566 0
DWIDTH 17 0
BBX 13 16 2 0
BITMAP
0F00
71E0
0030
0010
0010
0010
0008
0008
FFF8
8008
8008
8018
8010
4010
4030
3FE0
ENDCHAR
STARTCHAR 0272
ENCODING 626
SWIDTH 600 0
DWIDTH 18 0
BBX 15 22 0 -6
BITMAP
00C0
173C
1806
1802
1002
1002
1002
1002
1002
1002
1002
1002
1002
1002
1002
1002
1000
1000
1000
1000
1000
E000
ENDCHAR
STARTCHAR 02B9
ENCODING 697
SWIDTH 66 0
DWIDTH 2 0
BBX 2 9 0 12
BITMAP
40
40
C0
C0
80
80
80
80
80
ENDCHAR
STARTCHAR 02BA
ENCODING 698
SWIDTH 166 0
DWIDTH 5 0
BBX 5 9 0 12
BITMAP
48
48
C8
C8
88
88
88
88
88
ENDCHAR
STARTCHAR 02BC
ENCODING 700
SWIDTH 66 0
DWIDTH 2 0
BBX 2 5 0 17
BITMAP
40
40
40
40
80
ENDCHAR
STARTCHAR 02C6
ENCODING 710
SWIDTH 266 0
DWIDTH 8 0
BBX 8 4 0 18
BITMAP
18
24
42
81
ENDCHAR
STARTCHAR 02C7
ENCODING 711
SWIDTH 266 0
DWIDTH 8 0
BBX 8 4 0 18
BITMAP
C3
64
3C
18
ENDCHAR
STARTCHAR 02C9
ENCODING 713
SWIDTH 266 0
DWIDTH 8 0
BBX 8 1 0 19
BITMAP
FF
ENDCHAR
STARTCHAR 02D8
ENCODING 728
SWIDTH 266 0
DWIDTH 8 0
BBX 8 4 0 18
BITMAP
81
81
82
7E
ENDCHAR
STARTCHAR 02D9
ENCODING 729
SWIDTH 33 0
DWIDTH 1 0
BBX 1 2 0 19
BITMAP
80
80
ENDCHAR
STARTCHAR 02DA
ENCODING 730
SWIDTH 233 0
DWIDTH 7 0
BBX 7 5 0 18
BITMAP
FC
82
82
82
FC
ENDCHAR
STARTCHAR 02DB
ENCODING 731
SWIDTH 100 0
DWIDTH 3 0
BBX 3 6 0 -6
BITMAP
60
40
80
80
80
60
ENDCHAR
STARTCHAR 02DC
ENCODING 732
SWIDTH 333 0
DWIDTH 10 0
BBX 10 3 0 19
BITMAP
0040
FC40
8780
ENDCHAR
STARTCHAR 02DD
ENCODING 733
SWIDTH 300 0
DWIDTH 9 0
BBX 9 4 0 18
BITMAP
1080
2100
4200
8400
ENDCHAR
STARTCHAR 0300
ENCODING 768
SWIDTH 0 0
DWIDTH 0 0
BBX 5 4 0 18
BITMAP
C0
20
10
18
ENDCHAR
STARTCHAR 0301
ENCODING 769
SWIDTH 0 0
DWIDTH 0 0
BBX 5 4 0 18
BITMAP
18
20
40
80
ENDCHAR
STARTCHAR 0302
ENCODING 770
SWIDTH 0 0
DWIDTH 0 0
BBX 8 4 0 18
BITMAP
18
24
42
81
ENDCHAR
STARTCHAR 0303
ENCODING 771
SWIDTH 0 0
DWIDTH 0 0
BBX 10 3 0 19
BITMAP
0040
FC40
8780
ENDCHAR
STARTCHAR 0304
ENCODING 772
SWIDTH 0 0
DWIDTH 0 0
BBX 8 1 0 19
BITMAP
FF
ENDCHAR
STARTCHAR 0306
ENCODING 774
SWIDTH 0 0
DWIDTH 0 0
BBX 8 4 0 18
BITMAP
81
81
82
7E
ENDCHAR
STARTCHAR 0307
ENCODING 775
SWIDTH 0 0
DWIDTH 0 0
BBX 1 2 0 19
BITMAP
80
80
ENDCHAR
STARTCHAR 0308
ENCODING 776
SWIDTH 0 0
DWIDTH 0 0
BBX 8 2 0 19
BITMAP
83
83
ENDCHAR
STARTCHAR 0309
ENCODING 777
SWIDTH 0 0
DWIDTH 0 0
BBX 7 5 0 18
BITMAP
FE
02
02
1C
20
ENDCHAR
STARTCHAR 030A
ENCODING 778
SWIDTH 0 0
DWIDTH 0 0
BBX 7 5 0 18
BITMAP
FC
82
82
82
FC
ENDCHAR
STARTCHAR 030B
ENCODING 779
SWIDTH 0 0
DWIDTH 0 0
BBX 9 4 0 18
BITMAP
1080
2100
4200
8400
ENDCHAR
STARTCHAR 030C
ENCODING 780
SWIDTH 0 0
DWIDTH 0 0
BBX 8 4 0 18
BITMAP
C3
64
3C
18
ENDCHAR
STARTCHAR 030F
ENCODING 783
SWIDTH 0 0
DWIDTH 0 0
BBX 9 4 0 18
BITMAP
C600
4200
2100
1080
ENDCHAR
STARTCHAR 0311
ENCODING 785
SWIDTH 0 0
DWIDTH 0 0
BBX 8 4 0 18
BITMAP
7E
82
81
81
ENDCHAR
STARTCHAR 0312
ENCODING 786
SWIDTH 0 0
DWIDTH 0 0
BBX 2 5 0 18
BITMAP
40
80
80
80
80
ENDCHAR
STARTCHAR 031B
ENCODING 795
SWIDTH 0 0
DWIDTH 0 0
BBX 4 4 0 14
BITMAP
10
10
30
E0
ENDCHAR
STARTCHAR 0323
ENCODING 803
SWIDTH 0 0
DWIDTH 0 0
BBX 1 2 0 -6
BITMAP
80
80
ENDCHAR
STARTCHAR 0324
ENCODING 804
SWIDTH 0 0
DWIDTH 0 0
BBX 8 2 0 -4
BITMAP
83
83
ENDCHAR
STARTCHAR 0326
ENCODING 806
SWIDTH 0 0
DWIDTH 0 0
BBX 2 5 0 -8
BITMAP
40
40
40
40
80
ENDCHAR
STARTCHAR 0327
ENCODING 807
SWIDTH 0 0
DWIDTH 0 0
BBX 3 7 0 -6
BITMAP
20
40
40
40
40
80
80
ENDCHAR
STARTCHAR 0328
ENCODING 808
SWIDTH 0 0
DWIDTH 0 0
BBX 3 6 0 -6
BITMAP
60
40
80
80
80
60
ENDCHAR
STARTCHAR 032E
ENCODING 814
SWIDTH 0 0
DWIDTH 0 0
BBX 8 4 0 -6
BITMAP
81
81
82
7E
ENDCHAR
STARTCHAR 0331
ENCODING 817
SWIDTH 0 0
DWIDTH 0 0
BBX 8 1 0 -5
BITMAP
FF
ENDCHAR
STARTCHAR 0335
ENCODING 821
SWIDTH 0 0
DWIDTH 0 0
BBX 7 1 0 10
BITMAP
FE
ENDCHAR
STARTCHAR 0336
ENCODING 822
SWIDTH 0 0
DWIDTH 0 0
BBX 15 1 0 15
BITMAP
FFFE
ENDCHAR
STARTCHAR 0394
ENCODING 916
SWIDTH 666 0
DWIDTH 20 0
BBX 18 21 1 0
BITMAP
004000
00C000
00A000
01A000
012000
011000
021000
020800
040800
040C00
040400
080400
080200
100200
100300
300100
200100
200080
400080
4000C0
FFFFC0
ENDCHAR
STARTCHAR 03A9
ENCODING 937
SWIDTH 733 0
DWIDTH 22 0
BBX 16 21 3 0
BITMAP
0FF0
700C
4002
8003
8001
8001
8001
8001
8001
8001
8001
8001
8001
8001
8001
8001
8001
C002
4002
300C
FC3F
ENDCHAR
STARTCHAR 03BC
ENCODING 956
SWIDTH 600 0
DWIDTH 18 0
BBX 12 21 3 -6
BITMAP
8010
8010
8010
8010
8010
8010
8010
8010
8010
8010
8010
8010
8030
C070
BF90
8000
8000
8000
8000
8000
8000
ENDCHAR
STARTCHAR 03C0
ENCODING 960
SWIDTH 600 0
DWIDTH 18 0
BBX 12 15 3 0
BITMAP
FFF0
8010
8010
8010
8010
8010
8010
8010
8010
8010
8010
8010
8010
8010
8010
ENDCHAR
STARTCHAR 1E0C
ENCODING 7692
SWIDTH 700 0
DWIDTH 21 0
BBX 15 27 3 -6
BITMAP
FF80
C038
C004
C006
C002
C002
C002
C002
C002
C002
C002
C002
C002
C002
C002
C002
C002
C006
C004
C00C
FFF0
0000
0000
0000
0000
0100
0100
ENDCHAR
STARTCHAR 1E0D
ENCODING 7693
SWIDTH 600 0
DWIDTH 18 0
BBX 13 28 2 -6
BITMAP
0008
0008
0008
0008
0008
0008
0308
3DE8
4028
4018
C008
8008
8008
8008
8008
8008
8008
8008
4018
4018
6028
3FC8
0000
0000
0000
0000
0300
0300
ENDCHAR
STARTCHAR 1E24
ENCODING 7716
SWIDTH 733 0
DWIDTH 22 0
BBX 16 27 3 -6
BITMAP
C001
C001
C001
C001
C001
C001
C001
C001
C001
C001
FFFF
C001
C001
C001
C001
C001
C001
C001
C001
C001
C001
0000
0000
0000
0000
0180
0180
ENDCHAR
STARTCHAR 1E25
ENCODING 7717
SWIDTH 600 0
DWIDTH 18 0
BBX 12 28 3 -6
BITMAP
8000
8000
8000
8000
8000
8000
8600
B9E0
C030
C010
8010
8010
8010
8010
8010
8010
8010
8010
8010
8010
8010
8010
0000
0000
0000
0000
0600
0600
ENDCHAR
STARTCHAR 1E44
ENCODING 7748
SWIDTH 733 0
DWIDTH 22 0
BBX 16 26 3 0
BITMAP
0080
0000
0000
0000
0000
C001
C001
E001
F001
D001
C801
C401
C401
C201
C101
C181
C081
C041
C061
C021
C011
C019
C009
C005
C003
C003
ENDCHAR
STARTCHAR 1E45
ENCODING 7749
SWIDTH 600 0
DWIDTH 18 0
BBX 12 21 3 0
BITMAP
0600
0600
0000
0000
0000
0600
B9E0
C030
C010
8010
8010
8010
8010
8010
8010
8010
8010
8010
8010
8010
8010
ENDCHAR
STARTCHAR 1E5A
ENCODING 7770
SWIDTH 700 0
DWIDTH 21 0
BBX 15 27 3 -6
BITMAP
FFE0
C03C
C004
C002
C002
C002
C002
C002
C002
C006
C00C
FFF8
C010
C010
C018
C008
C008
C004
C004
C006
C002
0000
0000
0000
0000
0100
0100
ENDCHAR
STARTCHAR 1E5B
ENCODING 7771
SWIDTH 333 0
DWIDTH 10 0
BBX 6 22 3 -6
BITMAP
04
BC
A0
C0
80
80
80
80
80
80
80
80
80
80
80
80
00
00
00
00
80
80
ENDCHAR
STARTCHAR 1E62
ENCODING 7778
SWIDTH 633 0
DWIDTH 19 0
BBX 15 27 2 -6
BITMAP
0FFC
3004
4000
4000
C000
8000
8000
C000
4000
7800
0FF8
000C
0004
0002
0002
0002
0002
0006
0004
000C
7FF8
0000
0000
0000
0000
0100
0100
ENDCHAR
STARTCHAR 1E63
ENCODING 7779
SWIDTH 500 0
DWIDTH 15 0
BBX 11 22 2 -6
BITMAP
0600
71C0
8000
8000
8000
8000
8000
7000
1FC0
0060
0020
0020
0020
0020
0060
FFC0
0000
0000
0000
0000
0400
0400
ENDCHAR
STARTCHAR 1E6C
ENCODING 7788
SWIDTH 566 0
DWIDTH 17 0
BBX 15 27 1 -6
BITMAP
FFFE
0100
0100
0100
0100
0100
0100
0100
0100
0100
0100
0100
0100
0100
0100
0100
0100
0100
0100
0100
0100
0000
0000
0000
0000
0100
0100
ENDCHAR
STARTCHAR 1E6D
ENCODING 7789
SWIDTH 333 0
DWIDTH 10 0
BBX 8 26 1 -6
BITMAP
10
10
10
10
10
FF
10
10
10
10
10
10
10
10
10
10
10
10
10
10
00
00
00
00
10
10
ENDCHAR
STARTCHAR 1E80
ENCODING 7808
SWIDTH 1000 0
DWIDTH 30 0
BBX 27 27 1 0
BITMAP
00180000
000C0000
00040000
00020000
00000000
00000000
C0040020
40060020
40060040
600A0040
20090040
200900C0
20110080
10108080
10108080
10208100
1820C100
08204100
08404200
08406200
04402200
04802200
04803400
02801400
03001400
03001800
03000800
ENDCHAR
STARTCHAR 1E81
ENCODING 7809
SWIDTH 800 0
DWIDTH 24 0
BBX 22 22 1 0
BITMAP
00C000
006000
003000
001800
000000
000000
000000
C03004
403008
403808
204818
204810
204C10
108430
108420
108420
090260
090240
090240
060180
060180
060180
ENDCHAR
STARTCHAR 1E82
ENCODING 7810
SWIDTH 1000 0
DWIDTH 30 0
BBX 27 27 1 0
BITMAP
00018000
00030000
00020000
00040000
00000000
00000000
C0040020
40060020
40060040
600A0040
20090040
200900C0
20110080
10108080
10108080
10208100
1820C100
08204100
08404200
08406200
04402200
04802200
04803400
02801400
03001400
03001800
03000800
ENDCHAR
STARTCHAR 1E83
ENCODING 7811
SWIDTH 800 0
DWIDTH 24 0
BBX 22 22 1 0
BITMAP
000C00
001000
002000
006000
000000
000000
000000
C03004
403008
403808
204818
204810
204C10
108430
108420
108420
090260
090240
090240
060180
060180
060180
ENDCHAR
STARTCHAR 1E84
ENCODING 7812
SWIDTH 1000 0
DWIDTH 30 0
BBX 27 26 1 0
BITMAP
0020C000
0020C000
00000000
00000000
00000000
C0040020
40060020
40060040
600A0040
20090040
200900C0
20110080
10108080
10108080
10208100
1820C100
08204100
08404200
08406200
04402200
04802200
04803400
02801400
03001400
03001800
03000800
ENDCHAR
STARTCHAR 1E85
ENCODING 7813
SWIDTH 800 0
DWIDTH 24 0
BBX 22 21 1 0
BITMAP
018200
018200
000000
000000
000000
000000
C03004
403008
403808
204818
204810
204C10
108430
108420
108420
090260
090240
090240
060180
060180
060180
ENDCHAR
STARTCHAR 1E92
ENCODING 7826
SWIDTH 600 0
DWIDTH 18 0
BBX 14 27 2 -6
BITMAP
FFFC
0004
0008
0018
0010
0020
0060
0040
0080
0100
0300
0200
0400
0C00
0800
1000
3000
2000
4000
C000
FFFC
0000
0000
0000
0000
0300
0300
ENDCHAR
STARTCHAR 1E93
ENCODING 7827
SWIDTH 500 0
DWIDTH 15 0
BBX 11 21 2 -6
BITMAP
FFE0
0040
00C0
0080
0100
0200
0600
0400
0800
1000
3000
2000
4000
C000
FFE0
0000
0000
0000
0000
0400
0400
ENDCHAR
STARTCHAR 1E9E
ENCODING 7838
SWIDTH 700 0
DWIDTH 21 0
BBX 16 21 3 0
BITMAP
1FE0
301C
4004
4008
C018
8010
8020
8040
80C0
8080
81F8
8006
8002
8001
8001
8001
8001
8001
8002
8006
8FF8
ENDCHAR
STARTCHAR 1EA0
ENCODING 7840
SWIDTH 666 0
DWIDTH 20 0
BBX 18 27 1 -6
BITMAP
004000
00C000
00A000
01A000
012000
011000
021000
020800
040800
040C00
040400
080400
080200
1FFE00
100300
300100
200100
200080
400080
400040
C00040
000000
000000
000000
000000
004000
004000
ENDCHAR
STARTCHAR 1EA1
ENCODING 7841
SWIDTH 566 0
DWIDTH 17 0
BBX 12 22 2 -6
BITMAP
0E00
71E0
0030
0010
0010
0010
0010
0010
7FF0
8010
8010
8010
8010
8030
C030
7FD0
0000
0000
0000
0000
0200
0200
ENDCHAR
STARTCHAR 1EA2
ENCODING 7842
SWIDTH 666 0
DWIDTH 20 0
BBX 18 28 1 0
BITMAP
03F800
000800
000800
007000
008000
000000
000000
004000
00C000
00A000
01A000
012000
011000
021000
020800
040800
040C00
040400
080400
080200
1FFE00
100300
300100
200100
200080
400080
400040
C00040
ENDCHAR
STARTCHAR 1EA3
ENCODING 7843
SWIDTH 566 0
DWIDTH 17 0
BBX 12 23 2 0
BITMAP
1FC0
0020
0040
01C0
0200
0000
0000
0E00
71E0
0030
0010
0010
0010
0010
0010
7FF0
8010
8010
8010
8010
8030
C030
7FD0
ENDCHAR
STARTCHAR 1EA4
ENCODING 7844
SWIDTH 666 0
DWIDTH 20 0
BBX 18 33 1 0
BITMAP
001800
003000
002000
004000
008000
000000
00E000
012000
021000
040800
000000
000000
004000
00C000
00A000
01A000
012000
011000
021000
020800
040800
040C00
040400
080400
080200
1FFE00
100300
300100
200100
200080
400080
400040
C00040
ENDCHAR
STARTCHAR 1EA5
ENCODING 7845
SWIDTH 566 0
DWIDTH 17 0
BBX 12 28 2 0
BITMAP
00C0
0180
0100
0200
0400
0000
0700
0480
0840
1060
0000
0000
0E00
71E0
0030
0010
0010
0010
0010
0010
7FF0
8010
8010
8010
8010
8030
C030
7FD0
ENDCHAR
STARTCHAR 1EA6
ENCODING 7846
SWIDTH 666 0
DWIDTH 20 0
BBX 18 33 1 0
BITMAP
030000
018000
008000
004000
002000
000000
00E000
012000
021000
040800
000000
000000
004000
00C000
00A000
01A000
012000
011000
021000
020800
040800
040C00
040400
080400
080200
1FFE00
100300
300100
200100
200080
400080
400040
C00040
ENDCHAR
STARTCHAR 1EA7
ENCODING 7847
SWIDTH 566 0
DWIDTH 17 0
BBX 12 28 2 0
BITMAP
0800
0400
0600
0300
0000
0000
0700
0480
0840
1060
0000
0000
0E00
71E0
0030
0010
0010
0010
0010
0010
7FF0
8010
8010
8010
8010
8030
C030
7FD0
ENDCHAR
STARTCHAR 1EA8
ENCODING 7848
SWIDTH 666 0
DWIDTH 20 0
BBX 18 34 1 0
BITMAP
03F000
000800
000800
001800
006000
008000
000000
00E000
012000
021000
040800
000000
000000
004000
00C000
00A000
01A000
012000
011000
021000
020800
040800
040C00
040400
080400
080200
1FFE00
100300
300100
200100
200080
400080
400040
C00040
ENDCHAR
STARTCHAR 1EA9
ENCODING 7849
SWIDTH 566 0
DWIDTH 17 0
BBX 12 29 2 0
BITMAP
1F80
0040
0020
0040
0380
0200
0000
0700
0480
0840
1060
0000
0000
0E00
71E0
0030
0010
0010
0010
0010
0010
7FF0
8010
8010
8010
8010
8030
C030
7FD0
ENDCHAR
STARTCHAR 1EAA
ENCODING 7850
SWIDTH 666 0
DWIDTH 20 0
BBX 18 32 1 0
BITMAP
070400
0CE400
081800
000000
000000
00E000
012000
021000
040800
000000
000000
004000
00C000
00A000
01A000
012000
011000
021000
020800
040800
040C00
040400
080400
080200
1FFE00
100300
300100
200100
200080
400080
400040
C00040
ENDCHAR
STARTCHAR 1EAB
ENCODING 7851
SWIDTH 566 0
DWIDTH 17 0
BBX 12 27 2 0
BITMAP
3C10
2720
20E0
0000
0000
0700
0480
0840
1020
0000
0000
0E00
71E0
0030
0010
0010
0010
0010
0010
7FF0
8010
8010
8010
8010
8030
C030
7FD0
ENDCHAR
STARTCHAR 1EAC
ENCODING 7852
SWIDTH 666 0
DWIDTH 20 0
BBX 18 33 1 -6
BITMAP
00E000
012000
021000
040800
000000
000000
004000
00C000
00A000
01A000
012000
011000
021000
020800
040800
040C00
040400
080400
080200
1FFE00
100300
300100
200100
200080
400080
400040
C00040
000000
000000
000000
000000
004000
004000
ENDCHAR
STARTCHAR 1EAD
ENCODING 7853
SWIDTH 566 0
DWIDTH 17 0
BBX 12 28 2 -6
BITMAP
0700
0480
0840
1060
0000
0000
0E00
71E0
0030
0010
0010
0010
0010
0010
7FF0
8010
8010
8010
8010
8030
C030
7FD0
0000
0000
0000
0000
0200
0200
ENDCHAR
STARTCHAR 1EAE
ENCODING 7854
SWIDTH 666 0
DWIDTH 20 0
BBX 18 33 1 0
BITMAP
001800
001000
002000
004000
008000
000000
040800
040800
020800
03F000
000000
000000
004000
00C000
00A000
01A000
012000
011000
021000
020800
040800
040C00
040400
080400
080200
1FFE00
100300
300100
200100
200080
400080
400040
C00040
ENDCHAR
STARTCHAR 1EAF
ENCODING 7855
SWIDTH 566 0
DWIDTH 17 0
BBX 12 28 2 0
BITMAP
00C0
0180
0100
0200
0400
0000
1020
1020
1040
0F80
0000
0000
0E00
71E0
0030
0010
0010
0010
0010
0010
7FF0
8010
8010
8010
8010
8030
C030
7FD0
ENDCHAR
STARTCHAR 1EB0
ENCODING 7856
SWIDTH 666 0
DWIDTH 20 0
BBX 18 33 1 0
BITMAP
030000
010000
008000
004000
002000
000000
040800
040800
020800
03F000
000000
000000
004000
00C000
00A000
01A000
012000
011000
021000
020800
040800
040C00
040400
080400
080200
1FFE00
100300
300100
200100
200080
400080
400040
C00040
ENDCHAR
STARTCHAR 1EB1
ENCODING 7857
SWIDTH 566 0
DWIDTH 17 0
BBX 12 28 2 0
BITMAP
0800
0C00
0600
0200
0100
0000
1020
1020
1040
0F80
0000
0000
0E00
71E0
0030
0010
0010
0010
0010
0010
7FF0
8010
8010
8010
8010
8030
C030
7FD0
ENDCHAR
STARTCHAR 1EB2
ENCODING 7858
SWIDTH 666 0
DWIDTH 20 0
BBX 18 34 1 0
BITMAP
01E000
021800
000800
000800
007000
008000
000000
040800
040800
020800
03F000
000000
000000
004000
00C000
00A000
01A000
012000
011000
021000
020800
040800
040C00
040400
080400
080200
1FFE00
100300
300100
200100
200080
400080
400040
C00040
ENDCHAR
STARTCHAR 1EB3
ENCODING 7859
SWIDTH 566 0
DWIDTH 17 0
BBX 12 29 2 0
BITMAP
0E80
1040
0020
0040
0380
0200
0000
1020
1020
1040
0F80
0000
0000
0E00
71E0
0030
0010
0010
0010
0010
0010
7FF0
8010
8010
8010
8010
8030
C030
7FD0
ENDCHAR
STARTCHAR 1EB4
ENCODING 7860
SWIDTH 666 0
DWIDTH 20 0
BBX 18 32 1 0
BITMAP
070400
04E400
083800
000000
000000
040800
040800
020800
03F000
000000
000000
004000
00C000
00A000
01A000
012000
011000
021000
020800
040800
040C00
040400
080400
080200
1FFE00
100300
300100
200100
200080
400080
400040
C00040
ENDCHAR
STARTCHAR 1EB5
ENCODING 7861
SWIDTH 566 0
DWIDTH 17 0
BBX 12 27 2 0
BITMAP
1810
2720
20E0
0000
0000
1020
1020
1040
0F80
0000
0000
0E00
71E0
0030
0010
0010
0010
0010
0010
7FF0
8010
8010
8010
8010
8030
C030
7FD0
ENDCHAR
STARTCHAR 1EB6
ENCODING 7862
SWIDTH 666 0
DWIDTH 20 0
BBX 18 33 1 -6
BITMAP
040800
040800
020800
03F000
000000
000000
004000
00C000
00A000
01A000
012000
011000
021000
020800
040800
040C00
040400
080400
080200
1FFE00
100300
300100
200100
200080
400080
400040
C00040
000000
000000
000000
000000
004000
004000
ENDCHAR
STARTCHAR 1EB7
ENCODING 7863
SWIDTH 566 0
DWIDTH 17 0
BBX 12 28 2 -6
BITMAP
1020
1020
1040
0F80
0000
0000
0E00
71E0
0030
0010
0010
0010
0010
0010
7FF0
8010
8010
8010
8010
8030
C030
7FD0
0000
0000
0000
0000
0200
0200
ENDCHAR
STARTCHAR 1EB8
ENCODING 7864
SWIDTH 600 0
DWIDTH 18 0
BBX 13 27 3 -6
BITMAP
FFF8
C000
C000
C000
C000
C000
C000
C000
C000
C000
FFF0
C000
C000
C000
C000
C000
C000
C000
C000
C000
FFF8
0000
0000
0000
0000
0300
0300
ENDCHAR
STARTCHAR 1EB9
ENCODING 7865
SWIDTH 566 0
DWIDTH 17 0
BBX 13 22 2 -6
BITMAP
0200
3CE0
4010
4010
8010
8008
8008
8008
FFF8
8000
8000
8000
4000
4000
6000
3FF0
0000
0000
0000
0000
0200
0200
ENDCHAR
STARTCHAR 1EBA
ENCODING 7866
SWIDTH 600 0
DWIDTH 18 0
BBX 13 28 3 0
BITMAP
0FC0
0020
0020
01C0
0200
0000
0000
FFF8
C000
C000
C000
C000
C000
C000
C000
C000
C000
FFF0
C000
C000
C000
C000
C000
C000
C000
C000
C000
FFF8
ENDCHAR
STARTCHAR 1EBB
ENCODING 7867
SWIDTH 566 0
DWIDTH 17 0
BBX 13 23 2 0
BITMAP
1FC0
0040
0040
0180
0200
0000
0000
0200
3CE0
4010
4010
8010
8008
8008
8008
FFF8
8000
8000
8000
4000
4000
6000
3FF0
ENDCHAR
STARTCHAR 1EBC
ENCODING 7868
SWIDTH 600 0
DWIDTH 18 0
BBX 13 27 3 0
BITMAP
0010
3F10
21E0
0000
0000
0000
FFF8
C000
C000
C000
C000
C000
C000
C000
C000
C000
FFF0
C000
C000
C000
C000
C000
C000
C000
C000
C000
FFF8
ENDCHAR
STARTCHAR 1EBD
ENCODING 7869
SWIDTH 566 0
DWIDTH 17 0
BBX 13 22 2 0
BITMAP
0020
3E20
21E0
0000
0000
0000
0200
3CE0
4010
4010
8010
8008
8008
8008
FFF8
8000
8000
8000
4000
4000
6000
3FF0
ENDCHAR
STARTCHAR 1EBE
ENCODING 7870
SWIDTH 600 0
DWIDTH 18 0
BBX 13 33 3 0
BITMAP
0060
00C0
0180
0100
0200
0000
0300
0480
0840
1020
0000
0000
FFF8
C000
C000
C000
C000
C000
C000
C000
C000
C000
FFF0
C000
C000
C000
C000
C000
C000
C000
C000
C000
FFF8
ENDCHAR
STARTCHAR 1EBF
ENCODING 7871
SWIDTH 566 0
DWIDTH 17 0
BBX 13 28 2 0
BITMAP
00C0
0180
0300
0200
0400
0000
0700
0D80
08C0
1040
0000
0000
0200
3CE0
4010
4010
8010
8008
8008
8008
FFF8
8000
8000
8000
4000
4000
6000
3FF0
ENDCHAR
STARTCHAR 1EC0
ENCODING 7872
SWIDTH 600 0
DWIDTH 18 0
BBX 13 33 3 0
BITMAP
0C00
0400
0200
0100
0080
0000
0300
0480
0840
1020
0000
0000
FFF8
C000
C000
C000
C000
C000
C000
C000
C000
C000
FFF0
C000
C000
C000
C000
C000
C000
C000
C000
C000
FFF8
ENDCHAR
STARTCHAR 1EC1
ENCODING 7873
SWIDTH 566 0
DWIDTH 17 0
BBX 13 28 2 0
BITMAP
1800
0C00
0600
0200
0100
0000
0700
0D80
08C0
1040
0000
0000
0200
3CE0
4010
4010
8010
8008
8008
8008
FFF8
8000
8000
8000
4000
4000
6000
3FF0
ENDCHAR
STARTCHAR 1EC2
ENCODING 7874
SWIDTH 600 0
DWIDTH 18 0
BBX 13 34 3 0
BITMAP
0F80
0060
0020
0060
0380
0200
0000
0300
0480
0840
1020
0000
0000
FFF8
C000
C000
C000
C000
C000
C000
C000
C000
C000
FFF0
C000
C000
C000
C000
C000
C000
C000
C000
C000
FFF8
ENDCHAR
STARTCHAR 1EC3
ENCODING 7875
SWIDTH 566 0
DWIDTH 17 0
BBX 13 29 2 0
BITMAP
1F80
0040
0040
0040
0380
0400
0000
0700
0D80
08C0
1040
0000
0000
0200
3CE0
4010
4010
8010
8008
8008
8008
FFF8
8000
8000
8000
4000
4000
6000
3FF0
ENDCHAR
STARTCHAR 1EC4
ENCODING 7876
SWIDTH 600 0
DWIDTH 18 0
BBX 13 32 3 0
BITMAP
1C10
23B0
20E0
0000
0000
0300
0480
0840
1020
0000
0000
FFF8
C000
C000
C000
C000
C000
C000
C000
C000
C000
FFF0
C000
C000
C000
C000
C000
C000
C000
C000
C000
FFF8
ENDCHAR
STARTCHAR 1EC5
ENCODING 7877
SWIDTH 566 0
DWIDTH 17 0
BBX 13 27 2 0
BITMAP
3820
2720
20C0
0000
0000
0700
0D80
08C0
1040
0000
0000
0200
3CE0
4010
4010
8010
8008
8008
8008
FFF8
8000
8000
8000
4000
4000
6000
3FF0
ENDCHAR
STARTCHAR 1EC6
ENCODING 7878
SWIDTH 600 0
DWIDTH 18 0
BBX 13 33 3 -6
BITMAP
0300
0480
0840
1020
0000
0000
FFF8
C000
C000
C000
C000
C000
C000
C000
C000
C000
FFF0
C000
C000
C000
C000
C000
C000
C000
C000
C000
FFF8
0000
0000
0000
0000
0300
0300
ENDCHAR
STARTCHAR 1EC7
ENCODING 7879
SWIDTH 566 0
DWIDTH 17 0
BBX 13 28 2 -6
BITMAP
0700
0D80
08C0
1040
0000
0000
0200
3CE0
4010
4010
8010
8008
8008
8008
FFF8
8000
8000
8000
4000
4000
6000
3FF0
0000
0000
0000
0000
0200
0200
ENDCHAR
STARTCHAR 1EC8
ENCODING 7880
SWIDTH 266 0
DWIDTH 8 0
BBX 7 28 1 0
BITMAP
FC
02
02
1C
20
00
00
30
30
30
30
30
30
30
30
30
30
30
30
30
30
30
30
30
30
30
30
30
ENDCHAR
STARTCHAR 1EC9
ENCODING 7881
SWIDTH 233 0
DWIDTH 7 0
BBX 7 23 0 0
BITMAP
FE
02
02
0C
30
00
00
00
10
10
10
10
10
10
10
10
10
10
10
10
10
10
10
ENDCHAR
STARTCHAR 1ECA
ENCODING 7882
SWIDTH 266 0
DWIDTH 8 0
BBX 2 27 3 -6
BITMAP
C0
C0
C0
C0
C0
C0
C0
C0
C0
C0
C0
C0
C0
C0
C0
C0
C0
C0
C0
C0
C0
00
00
00
00
C0
C0
ENDCHAR
STARTCHAR 1ECB
ENCODING 7883
SWIDTH 233 0
DWIDTH 7 0
BBX 1 28 3 -6
BITMAP
80
80
00
00
00
00
00
80
80
80
80
80
80
80
80
80
80
80
80
80
80
80
00
00
00
00
80
80
ENDCHAR
STARTCHAR 1ECC
ENCODING 7884
SWIDTH 733 0
DWIDTH 22 0
BBX 16 27 3 -6
BITMAP
1FF8
600E
4002
8003
8001
8001
8001
8001
8001
8001
8001
8001
8001
8001
8001
8001
8001
8001
C002
6006
3FFC
0000
0000
0000
0000
0180
0180
ENDCHAR
STARTCHAR 1ECD
ENCODING 7885
SWIDTH 566 0
DWIDTH 17 0
BBX 13 22 2 -6
BITMAP
0600
3CF0
4018
4008
8008
8008
8008
8008
8008
8008
8008
8008
8008
4008
4010
3FE0
0000
0000
0000
0000
0200
0200
ENDCHAR
STARTCHAR 1ECE
ENCODING 7886
SWIDTH 733 0
DWIDTH 22 0
BBX 16 28 3 0
BITMAP
07E0
0010
0010
00E0
0100
0000
0000
1FF8
600E
4002
8003
8001
8001
8001
8001
8001
8001
8001
8001
8001
8001
8001
8001
8001
8001
C002
6006
3FFC
ENDCHAR
STARTCHAR 1ECF
ENCODING 7887
SWIDTH 566 0
DWIDTH 17 0
BBX 13 23 2 0
BITMAP
1FC0
0040
0040
0180
0200
0000
0000
0600
3CF0
4018
4008
8008
8008
8008
8008
8008
8008
8008
8008
8008
4008
4010
3FE0
ENDCHAR
STARTCHAR 1ED0
ENCODING 7888
SWIDTH 733 0
DWIDTH 22 0
BBX 16 33 3 0
BITMAP
0020
0040
00C0
0180
0000
0000
0380
0240
0420
0810
0000
0000
1FF8
600E
4002
8003
8001
8001
8001
8001
8001
8001
8001
8001
8001
8001
8001
8001
8001
8001
C002
6006
3FFC
ENDCHAR
STARTCHAR 1ED1
ENCODING 7889
SWIDTH 566 0
DWIDTH 17 0
BBX 13 28 2 0
BITMAP
00C0
0180
0100
0200
0400
0000
0700
0480
0840
1060
0000
0000
0600
3CF0
4018
4008
8008
8008
8008
8008
8008
8008
8008
8008
8008
4008
4010
3FE0
ENDCHAR
STARTCHAR 1ED2
ENCODING 7890
SWIDTH 733 0
DWIDTH 22 0
BBX 16 33 3 0
BITMAP
0400
0200
0100
0080
0000
0000
0380
0240
0420
0810
0000
0000
1FF8
600E
4002
8003
8001
8001
8001
8001
8001
8001
8001
8001
8001
8001
8001
8001
8001
8001
C002
6006
3FFC
ENDCHAR
STARTCHAR 1ED3
ENCODING 7891
SWIDTH 566 0
DWIDTH 17 0
BBX 13 28 2 0
BITMAP
0800
0C00
0600
0200
0100
0000
0700
0480
0840
1060
0000
0000
0600
3CF0
4018
4008
8008
8008
8008
8008
8008
8008
8008
8008
8008
4008
4010
3FE0
ENDCHAR
STARTCHAR 1ED4
ENCODING 7892
SWIDTH 733 0
DWIDTH 22 0
BBX 16 34 3 0
BITMAP
07C0
0030
0010
0020
01C0
0100
0000
0380
0240
0420
0810
0000
0000
1FF8
600E
4002
8003
8001
8001
8001
8001
8001
8001
8001
8001
8001
8001
8001
8001
8001
8001
C002
6006
3FFC
ENDCHAR
STARTCHAR 1ED5
ENCODING 7893
SWIDTH 566 0
DWIDTH 17 0
BBX 13 29 2 0
BITMAP
1F80
0040
0040
0040
0380
0200
0000
0700
0480
0840
1060
0000
0000
0600
3CF0
4018
4008
8008
8008
8008
8008
8008
8008
8008
8008
8008
4008
4010
3FE0
ENDCHAR
STARTCHAR 1ED6
ENCODING 7894
SWIDTH 733 0
DWIDTH 22 0
BBX 16 32 3 0
BITMAP
0E08
11D8
1030
0000
0000
0380
0240
0420
0810
0000
0000
1FF8
600E
4002
8003
8001
8001
8001
8001
8001
8001
8001
8001
8001
8001
8001
8001
8001
8001
C002
6006
3FFC
ENDCHAR
STARTCHAR 1ED7
ENCODING 7895
SWIDTH 566 0
DWIDTH 17 0
BBX 13 27 2 0
BITMAP
3C10
2720
20E0
0000
0000
0700
0480
0840
1060
0000
0000
0600
3CF0
4018
4008
8008
8008
8008
8008
8008
8008
8008
8008
8008
4008
4010
3FE0
ENDCHAR
STARTCHAR 1ED8
ENCODING 7896
SWIDTH 733 0
DWIDTH 22 0
BBX 16 33 3 -6
BITMAP
0380
0240
0420
0810
0000
0000
1FF8
600E
4002
8003
8001
8001
8001
8001
8001
8001
8001
8001
8001
8001
8001
8001
8001
8001
C002
6006
3FFC
0000
0000
0000
0000
0180
0180
ENDCHAR
STARTCHAR 1ED9
ENCODING 7897
SWIDTH 566 0
DWIDTH 17 0
BBX 13 28 2 -6
BITMAP
0700
0480
0840
1060
0000
0000
0600
3CF0
4018
4008
8008
8008
8008
8008
8008
8008
8008
8008
8008
4008
4010
3FE0
0000
0000
0000
0000
0200
0200
ENDCHAR
STARTCHAR 1EDA
ENCODING 7898
SWIDTH 733 0
DWIDTH 22 0
BBX 16 27 3 0
BITMAP
0060
0040
0080
0101
0001
0001
1FFF
600E
4002
8003
8001
8001
8001
8001
8001
8001
8001
8001
8001
8001
8001
8001
8001
8001
C002
6006
3FFC
ENDCHAR
STARTCHAR 1EDB
ENCODING 7899
SWIDTH 566 0
DWIDTH 17 0
BBX 14 22 2 0
BITMAP
00C0
0100
0200
0400
0004
0008
0608
3CF0
4018
4008
8008
8008
8008
8008
8008
8008
8008
8008
8008
4008
4010
3FE0
ENDCHAR
STARTCHAR 1EDC
ENCODING 7900
SWIDTH 733 0
DWIDTH 22 0
BBX 16 27 3 0
BITMAP
0600
0300
0180
0081
0001
0001
1FFF
600E
4002
8003
8001
8001
8001
8001
8001
8001
8001
8001
8001
8001
8001
8001
8001
8001
C002
6006
3FFC
ENDCHAR
STARTCHAR 1EDD
ENCODING 7901
SWIDTH 566 0
DWIDTH 17 0
BBX 14 22 2 0
BITMAP
0C00
0400
0200
0100
0004
0008
0608
3CF0
4018
4008
8008
8008
8008
8008
8008
8008
8008
8008
8008
4008
4010
3FE0
ENDCHAR
STARTCHAR 1EDE
ENCODING 7902
SWIDTH 733 0
DWIDTH 22 0
BBX 16 28 3 0
BITMAP
07E0
0010
0010
00E0
0101
0001
0001
1FFF
600E
4002
8003
8001
8001
8001
8001
8001
8001
8001
8001
8001
8001
8001
8001
8001
8001
C002
6006
3FFC
ENDCHAR
STARTCHAR 1EDF
ENCODING 7903
SWIDTH 566 0
DWIDTH 17 0
BBX 14 23 2 0
BITMAP
1FC0
0040
0040
0180
0200
0004
0008
0608
3CF0
4018
4008
8008
8008
8008
8008
8008
8008
8008
8008
8008
4008
4010
3FE0
ENDCHAR
STARTCHAR 1EE0
ENCODING 7904
SWIDTH 733 0
DWIDTH 22 0
BBX 16 27 3 0
BITMAP
0008
1F88
10F0
0001
0001
0001
1FFF
600E
4002
8003
8001
8001
8001
8001
8001
8001
8001
8001
8001
8001
8001
8001
8001
8001
C002
6006
3FFC
ENDCHAR
STARTCHAR 1EE1
ENCODING 7905
SWIDTH 566 0
DWIDTH 17 0
BBX 14 22 2 0
BITMAP
0010
3E10
21E0
0000
0004
0008
0608
3CF0
4018
4008
8008
8008
8008
8008
8008
8008
8008
8008
8008
4008
4010
3FE0
ENDCHAR
STARTCHAR 1EE2
ENCODING 7906
SWIDTH 733 0
DWIDTH 22 0
BBX 16 30 3 -6
BITMAP
0001
0001
0001
1FFF
600E
4002
8003
8001
8001
8001
8001
8001
8001
8001
8001
8001
8001
8001
8001
8001
8001
C002
6006
3FFC
0000
0000
0000
0000
0180
0180
ENDCHAR
STARTCHAR 1EE3
ENCODING 7907
SWIDTH 566 0
DWIDTH 17 0
BBX 14 24 2 -6
BITMAP
0004
0008
0608
3CF0
4018
4008
8008
8008
8008
8008
8008
8008
8008
8008
8008
4008
4010
3FE0
0000
0000
0000
0000
0200
0200
ENDCHAR
STARTCHAR 1EE4
ENCODING 7908
SWIDTH 733 0
DWIDTH 22 0
BBX 15 27 3 -6
BITMAP
8002
8002
8002
8002
8002
8002
8002
8002
8002
8002
8002
8002
8002
8002
8002
8002
8002
4002
4006
600C
1FF8
0000
0000
0000
0000
0100
0100
ENDCHAR
STARTCHAR 1EE5
ENCODING 7909
SWIDTH 600 0
DWIDTH 18 0
BBX 12 21 3 -6
BITMAP
8010
8010
8010
8010
8010
8010
8010
8010
8010
8010
8010
8010
8030
4070
3F90
0000
0000
0000
0000
0400
0400
ENDCHAR
STARTCHAR 1EE6
ENCODING 7910
SWIDTH 733 0
DWIDTH 22 0
BBX 15 28 3 0
BITMAP
0FE0
0010
0020
00E0
0100
0000
0000
8002
8002
8002
8002
8002
8002
8002
8002
8002
8002
8002
8002
8002
8002
8002
8002
8002
4002
4006
600C
1FF8
ENDCHAR
STARTCHAR 1EE7
ENCODING 7911
SWIDTH 600 0
DWIDTH 18 0
BBX 12 23 3 0
BITMAP
1FC0
0040
0040
0380
0400
0000
0000
0000
8010
8010
8010
8010
8010
8010
8010
8010
8010
8010
8010
8010
8030
4070
3F90
ENDCHAR
STARTCHAR 1EE8
ENCODING 7912
SWIDTH 733 0
DWIDTH 22 0
BBX 19 27 3 0
BITMAP
006000
00C000
008000
010020
000020
000040
8003C0
800200
800200
800200
800200
800200
800200
800200
800200
800200
800200
800200
800200
800200
800200
800200
800200
400200
400600
600C00
1FF800
ENDCHAR
STARTCHAR 1EE9
ENCODING 7913
SWIDTH 600 0
DWIDTH 18 0
BBX 15 22 3 0
BITMAP
0180
0200
0400
0C00
0002
0002
0006
8018
8010
8010
8010
8010
8010
8010
8010
8010
8010
8010
8010
8030
4070
3F90
ENDCHAR
STARTCHAR 1EEA
ENCODING 7914
SWIDTH 733 0
DWIDTH 22 0
BBX 19 27 3 0
BITMAP
060000
030000
010000
008020
000020
000040
8003C0
800200
800200
800200
800200
800200
800200
800200
800200
800200
800200
800200
800200
800200
800200
800200
800200
400200
400600
600C00
1FF800
ENDCHAR
STARTCHAR 1EEB
ENCODING 7915
SWIDTH 600 0
DWIDTH 18 0
BBX 15 22 3 0
BITMAP
1800
0C00
0600
0300
0002
0002
0006
8018
8010
8010
8010
8010
8010
8010
8010
8010
8010
8010
8010
8030
4070
3F90
ENDCHAR
STARTCHAR 1EEC
ENCODING 7916
SWIDTH 733 0
DWIDTH 22 0
BBX 19 28 3 0
BITMAP
0FE000
001000
002000
00E000
010020
000020
000040
8003C0
800200
800200
800200
800200
800200
800200
800200
800200
800200
800200
800200
800200
800200
800200
800200
800200
400200
400600
600C00
1FF800
ENDCHAR
STARTCHAR 1EED
ENCODING 7917
SWIDTH 600 0
DWIDTH 18 0
BBX 15 23 3 0
BITMAP
1FC0
0040
0040
0380
0400
0002
0002
0006
8018
8010
8010
8010
8010
8010
8010
8010
8010
8010
8010
8010
8030
4070
3F90
ENDCHAR
STARTCHAR 1EEE
ENCODING 7918
SWIDTH 733 0
DWIDTH 22 0
BBX 19 27 3 0
BITMAP
000800
1F0800
10F000
000020
000020
000040
8003C0
800200
800200
800200
800200
800200
800200
800200
800200
800200
800200
800200
800200
800200
800200
800200
800200
400200
400600
600C00
1FF800
ENDCHAR
STARTCHAR 1EEF
ENCODING 7919
SWIDTH 600 0
DWIDTH 18 0
BBX 15 22 3 0
BITMAP
0020
7E20
41C0
0000
0002
0002
0006
8018
8010
8010
8010
8010
8010
8010
8010
8010
8010
8010
8010
8030
4070
3F90
ENDCHAR
STARTCHAR 1EF0
ENCODING 7920
SWIDTH 733 0
DWIDTH 22 0
BBX 19 30 3 -6
BITMAP
000020
000020
000040
8003C0
800200
800200
800200
800200
800200
800200
800200
800200
800200
800200
800200
800200
800200
800200
800200
800200
400200
400600
600C00
1FF800
000000
000000
000000
000000
010000
010000
ENDCHAR
STARTCHAR 1EF1
ENCODING 7921
SWIDTH 600 0
DWIDTH 18 0
BBX 15 24 3 -6
BITMAP
0002
0002
0006
8018
8010
8010
8010
8010
8010
8010
8010
8010
8010
8010
8010
8030
4070
3F90
0000
0000
0000
0000
0600
0600
ENDCHAR
STARTCHAR 1EF2
ENCODING 7922
SWIDTH 600 0
DWIDTH 18 0
BBX 16 27 1 0
BITMAP
0600
0100
0080
00C0
0000
0000
8001
C003
4002
2004
200C
1008
0810
0810
0420
0660
0240
0180
0180
0180
0180
0180
0180
0180
0180
0180
0180
ENDCHAR
STARTCHAR 1EF3
ENCODING 7923
SWIDTH 600 0
DWIDTH 18 0
BBX 12 28 3 -6
BITMAP
1800
0C00
0600
0300
0000
0000
0000
8010
8010
8010
8010
8010
8010
8010
8010
8010
8010
8010
8010
8030
4070
3F90
0010
0010
0010
0020
0060
FFC0
ENDCHAR
STARTCHAR 1EF4
ENCODING 7924
SWIDTH 600 0
DWIDTH 18 0
BBX 16 27 1 -6
BITMAP
8001
C003
4002
2004
200C
1008
0810
0810
0420
0660
0240
0180
0180
0180
0180
0180
0180
0180
0180
0180
0180
0000
0000
0000
0000
0180
0180
ENDCHAR
STARTCHAR 1EF5
ENCODING 7925
SWIDTH 600 0
DWIDTH 18 0
BBX 12 27 3 -12
BITMAP
8010
8010
8010
8010
8010
8010
8010
8010
8010
8010
8010
8010
8030
4070
3F90
0010
0010
0010
0020
0060
FFC0
0000
0000
0000
0000
0400
0400
ENDCHAR
STARTCHAR 1EF6
ENCODING 7926
SWIDTH 600 0
DWIDTH 18 0
BBX 16 28 1 0
BITMAP
07E0
0010
0010
00E0
0100
0000
0000
8001
C003
4002
2004
200C
1008
0810
0810
0420
0660
0240
0180
0180
0180
0180
0180
0180
0180
0180
0180
0180
ENDCHAR
STARTCHAR 1EF7
ENCODING 7927
SWIDTH 600 0
DWIDTH 18 0
BBX 12 29 3 -6
BITMAP
1FC0
0040
0040
0380
0400
0000
0000
0000
8010
8010
8010
8010
8010
8010
8010
8010
8010
8010
8010
8010
8030
4070
3F90
0010
0010
0010
0020
0060
FFC0
ENDCHAR
STARTCHAR 1EF8
ENCODING 7928
SWIDTH 600 0
DWIDTH 18 0
BBX 16 27 1 0
BITMAP
0008
1F88
10F0
0000
0000
0000
8001
C003
4002
2004
200C
1008
0810
0810
0420
0660
0240
0180
0180
0180
0180
0180
0180
0180
0180
0180
0180
ENDCHAR
STARTCHAR 1EF9
ENCODING 7929
SWIDTH 600 0
DWIDTH 18 0
BBX 12 28 3 -6
BITMAP
0020
7E20
41C0
0000
0000
0000
0000
8010
8010
8010
8010
8010
8010
8010
8010
8010
8010
8010
8010
8030
4070
3F90
0010
0010
0010
0020
0060
FFC0
ENDCHAR
STARTCHAR 2002
ENCODING 8194
SWIDTH 500 0
DWIDTH 15 0
BBX 0 0 0 0
BITMAP
ENDCHAR
STARTCHAR 2003
ENCODING 8195
SWIDTH 1000 0
DWIDTH 30 0
BBX 0 0 0 0
BITMAP
ENDCHAR
STARTCHAR 2004
ENCODING 8196
SWIDTH 333 0
DWIDTH 10 0
BBX 0 0 0 0
BITMAP
ENDCHAR
STARTCHAR 2005
ENCODING 8197
SWIDTH 266 0
DWIDTH 8 0
BBX 0 0 0 0
BITMAP
ENDCHAR
STARTCHAR 2010
ENCODING 8208
SWIDTH 366 0
DWIDTH 11 0
BBX 7 1 2 8
BITMAP
FE
ENDCHAR
STARTCHAR 2013
ENCODING 8211
SWIDTH 466 0
DWIDTH 14 0
BBX 10 1 2 9
BITMAP
FFC0
ENDCHAR
STARTCHAR 2014
ENCODING 8212
SWIDTH 866 0
DWIDTH 26 0
BBX 22 1 2 9
BITMAP
FFFFFC
ENDCHAR
STARTCHAR 2017
ENCODING 8215
SWIDTH 333 0
DWIDTH 10 0
BBX 10 4 0 -8
BITMAP
FFC0
0000
0000
FFC0
ENDCHAR
STARTCHAR 2018
ENCODING 8216
SWIDTH 166 0
DWIDTH 5 0
BBX 2 5 2 16
BITMAP
40
80
80
80
80
ENDCHAR
STARTCHAR 2019
ENCODING 8217
SWIDTH 166 0
DWIDTH 5 0
BBX 2 5 1 16
BITMAP
40
40
40
40
C0
ENDCHAR
STARTCHAR 201A
ENCODING 8218
SWIDTH 166 0
DWIDTH 5 0
BBX 2 5 1 -3
BITMAP
40
40
40
40
C0
ENDCHAR
STARTCHAR 201C
ENCODING 8220
SWIDTH 300 0
DWIDTH 9 0
BBX 6 5 2 16
BITMAP
44
88
88
88
88
ENDCHAR
STARTCHAR 201D
ENCODING 8221
SWIDTH 300 0
DWIDTH 9 0
BBX 6 5 1 16
BITMAP
44
44
44
44
CC
ENDCHAR
STARTCHAR 201E
ENCODING 8222
SWIDTH 300 0
DWIDTH 9 0
BBX 6 5 1 -3
BITMAP
44
44
44
44
CC
ENDCHAR
STARTCHAR 2020
ENCODING 8224
SWIDTH 400 0
DWIDTH 12 0
BBX 10 21 1 0
BITMAP
0400
0400
0400
0400
0400
0400
FFC0
0400
0400
0400
0400
0400
0400
0400
0400
0400
0400
0400
0400
0400
0400
ENDCHAR
STARTCHAR 2021
ENCODING 8225
SWIDTH 400 0
DWIDTH 12 0
BBX 10 21 1 0
BITMAP
0400
0400
0400
0400
0400
0400
FFC0
0400
0400
0400
0400
0400
0400
0400
FFC0
0400
0400
0400
0400
0400
0400
ENDCHAR
STARTCHAR 2022
ENCODING 8226
SWIDTH 366 0
DWIDTH 11 0
BBX 6 6 2 7
BITMAP
FC
FC
FC
FC
FC
78
ENDCHAR
STARTCHAR 2026
ENCODING 8230
SWIDTH 533 0
DWIDTH 16 0
BBX 12 2 2 0
BITMAP
8630
8630
ENDCHAR
STARTCHAR 2030
ENCODING 8240
SWIDTH 933 0
DWIDTH 28 0
BBX 24 21 2 0
BITMAP
7C0200
C60400
820C00
820800
821000
823000
822000
824000
82C000
7C8000
010000
033C3E
024263
04C241
0C8241
088241
108241
308241
20C241
404241
C07E3E
ENDCHAR
STARTCHAR 2032
ENCODING 8242
SWIDTH 166 0
DWIDTH 5 0
BBX 1 9 2 12
BITMAP
80
80
80
80
80
80
80
80
80
ENDCHAR
STARTCHAR 2033
ENCODING 8243
SWIDTH 300 0
DWIDTH 9 0
BBX 5 9 2 12
BITMAP
88
88
88
88
88
88
88
88
88
ENDCHAR
STARTCHAR 2039
ENCODING 8249
SWIDTH 300 0
DWIDTH 9 0
BBX 5 12 2 3
BITMAP
18
10
20
60
40
80
80
40
60
20
10
18
ENDCHAR
STARTCHAR 203A
ENCODING 8250
SWIDTH 300 0
DWIDTH 9 0
BBX 5 12 2 3
BITMAP
C0
40
20
10
10
08
08
10
30
20
40
C0
ENDCHAR
STARTCHAR 203C
ENCODING 8252
SWIDTH 400 0
DWIDTH 12 0
BBX 7 21 2 0
BITMAP
C2
C2
C2
C2
C2
C2
C2
C2
C2
C2
82
82
82
82
82
82
00
00
00
C2
C2
ENDCHAR
STARTCHAR 2044
ENCODING 8260
SWIDTH 133 0
DWIDTH 4 0
BBX 14 21 -5 0
BITMAP
0004
000C
0008
0010
0030
0020
0040
00C0
0080
0100
0300
0200
0400
0C00
0800
1000
1000
2000
6000
4000
8000
ENDCHAR
STARTCHAR 2052
ENCODING 8274
SWIDTH 333 0
DWIDTH 10 0
BBX 10 21 0 0
BITMAP
4040
4080
0080
0180
0100
0100
0200
0200
0400
0400
0C00
0800
0800
1000
1000
2000
2000
6000
4000
4080
8080
ENDCHAR
STARTCHAR 2070
ENCODING 8304
SWIDTH 400 0
DWIDTH 12 0
BBX 9 11 1 13
BITMAP
7F80
4080
4080
C080
C080
C080
C080
4080
4080
4080
7F00
ENDCHAR
STARTCHAR 2074
ENCODING 8308
SWIDTH 366 0
DWIDTH 11 0
BBX 9 11 1 13
BITMAP
0C00
1800
1000
2100
2100
4300
C300
FF80
0300
0300
0300
ENDCHAR
STARTCHAR 2075
ENCODING 8309
SWIDTH 366 0
DWIDTH 11 0
BBX 8 11 2 13
BITMAP
FE
80
80
80
F8
86
02
03
03
02
FC
ENDCHAR
STARTCHAR 2076
ENCODING 8310
SWIDTH 366 0
DWIDTH 11 0
BBX 9 11 1 13
BITMAP
3F80
4000
4000
4000
DE00
E180
C080
4080
4080
4080
3F00
ENDCHAR
STARTCHAR 2077
ENCODING 8311
SWIDTH 333 0
DWIDTH 10 0
BBX 8 11 1 13
BITMAP
FF
03
02
06
04
0C
08
18
10
30
20
ENDCHAR
STARTCHAR 2078
ENCODING 8312
SWIDTH 400 0
DWIDTH 12 0
BBX 10 11 1 13
BITMAP
7F80
4080
C080
4080
6180
3F00
4080
C0C0
C0C0
4080
3F80
ENDCHAR
STARTCHAR 2079
ENCODING 8313
SWIDTH 366 0
DWIDTH 11 0
BBX 9 11 1 13
BITMAP
7F00
8180
8080
8080
8080
7F80
0080
0080
0080
0100
7F00
ENDCHAR
STARTCHAR 2080
ENCODING 8320
SWIDTH 400 0
DWIDTH 12 0
BBX 9 11 1 -3
BITMAP
7F80
4080
4080
C080
C080
C080
C080
4080
4080
4080
7F00
ENDCHAR
STARTCHAR 2081
ENCODING 8321
SWIDTH 233 0
DWIDTH 7 0
BBX 4 11 1 -3
BITMAP
70
B0
30
30
30
30
30
30
30
30
30
ENDCHAR
STARTCHAR 2082
ENCODING 8322
SWIDTH 366 0
DWIDTH 11 0
BBX 8 11 1 -3
BITMAP
7F
01
01
01
03
1C
70
C0
80
80
FF
ENDCHAR
STARTCHAR 2083
ENCODING 8323
SWIDTH 366 0
DWIDTH 11 0
BBX 8 11 1 -3
BITMAP
FE
01
01
01
02
3E
01
01
01
01
FE
ENDCHAR
STARTCHAR 2084
ENCODING 8324
SWIDTH 366 0
DWIDTH 11 0
BBX 9 11 1 -3
BITMAP
0C00
1800
1000
2100
2100
4300
C300
FF80
0300
0300
0300
ENDCHAR
STARTCHAR 2085
ENCODING 8325
SWIDTH 366 0
DWIDTH 11 0
BBX 8 11 2 -3
BITMAP
FE
80
80
80
F8
86
02
03
03
02
FC
ENDCHAR
STARTCHAR 2086
ENCODING 8326
SWIDTH 366 0
DWIDTH 11 0
BBX 9 11 1 -3
BITMAP
3F80
4000
4000
4000
DE00
E180
C080
4080
4080
4080
3F00
ENDCHAR
STARTCHAR 2087
ENCODING 8327
SWIDTH 333 0
DWIDTH 10 0
BBX 8 11 1 -3
BITMAP
FF
03
02
06
04
0C
08
18
10
30
20
ENDCHAR
STARTCHAR 2088
ENCODING 8328
SWIDTH 400 0
DWIDTH 12 0
BBX 10 11 1 -3
BITMAP
7F80
4080
C080
4080
6180
3F00
4080
C0C0
C0C0
4080
3F80
ENDCHAR
STARTCHAR 2089
ENCODING 8329
SWIDTH 366 0
DWIDTH 11 0
BBX 9 11 1 -3
BITMAP
7F00
8180
8080
8080
8080
7F80
0080
0080
0080
0100
7F00
ENDCHAR
STARTCHAR 20A1
ENCODING 8353
SWIDTH 566 0
DWIDTH 17 0
BBX 13 25 3 -2
BITMAP
00C8
0088
1FF8
7088
4090
8110
8110
8110
8110
8220
8220
8220
8220
8260
8440
8440
8440
8440
8480
8880
4880
6880
3FF0
1900
1100
ENDCHAR
STARTCHAR 20A3
ENCODING 8355
SWIDTH 566 0
DWIDTH 17 0
BBX 16 21 0 0
BITMAP
1FFF
1800
1800
1800
1800
1800
1800
1800
1800
1800
1FFE
1800
1800
1800
1800
1800
FFE0
1800
1800
1800
1800
ENDCHAR
STARTCHAR 20A4
ENCODING 8356
SWIDTH 566 0
DWIDTH 17 0
BBX 14 21 2 0
BITMAP
03FC
0C00
1000
1000
2000
2000
2000
2000
FFF0
2000
2000
2000
FFF0
2000
2000
2000
2000
2000
2000
2000
FFFC
ENDCHAR
STARTCHAR 20A6
ENCODING 8358
SWIDTH 733 0
DWIDTH 22 0
BBX 21 21 1 0
BITMAP
300040
300040
380040
3C0040
340040
320040
310040
310040
308040
304040
FFFFF8
302040
301040
301840
300840
300440
300640
300240
300140
3000C0
3000C0
ENDCHAR
STARTCHAR 20A7
ENCODING 8359
SWIDTH 666 0
DWIDTH 20 0
BBX 21 21 0 0
BITMAP
1FF800
180700
180080
180080
180040
180040
FFFFF8
180040
180040
180080
180080
180300
1FFC00
180000
180000
180000
180000
180000
180000
180000
180000
ENDCHAR
STARTCHAR 20A9
ENCODING 8361
SWIDTH 1000 0
DWIDTH 30 0
BBX 27 21 1 0
BITMAP
C0040020
40060020
40060040
600A0040
20090040
200900C0
20110080
10108080
10108080
10208100
FFFFFFE0
08204100
08404200
08406200
04402200
04802200
04803400
02801400
03001400
03001800
03000800
ENDCHAR
STARTCHAR 20AB
ENCODING 8363
SWIDTH 566 0
DWIDTH 17 0
BBX 14 22 2 0
BITMAP
0010
01FC
0010
0010
0010
0010
0410
3DD0
4030
4010
8010
8010
8010
8010
8010
8010
4010
4030
6050
1F90
0000
7FF0
ENDCHAR
STARTCHAR 20AC
ENCODING 8364
SWIDTH 633 0
DWIDTH 19 0
BBX 16 21 1 0
BITMAP
01FF
0600
0800
0800
1800
1000
1000
1000
FFFC
1000
1000
1000
FFFC
1000
1000
1000
1000
0800
0800
0400
03FF
ENDCHAR
STARTCHAR 20AD
ENCODING 8365
SWIDTH 666 0
DWIDTH 20 0
BBX 18 21 1 0
BITMAP
3000C0
300180
300100
300200
300400
300C00
301800
301000
302000
304000
FFFF80
304000
302000
301000
301800
300800
300400
300200
300300
300180
3000C0
ENDCHAR
STARTCHAR 20B1
ENCODING 8369
SWIDTH 666 0
DWIDTH 20 0
BBX 21 21 0 0
BITMAP
1FFC00
180700
180080
180080
FFFFF8
180040
180040
180040
FFFFF8
180080
180080
180300
1FFC00
180000
180000
180000
180000
180000
180000
180000
180000
ENDCHAR
STARTCHAR 20B2
ENCODING 8370
SWIDTH 600 0
DWIDTH 18 0
BBX 13 21 3 0
BITMAP
0200
0200
0200
7FF0
4200
8200
8200
8200
8200
8200
83F8
8208
8208
8208
8208
8218
C210
6230
1FC0
0200
0200
ENDCHAR
STARTCHAR 20B5
ENCODING 8373
SWIDTH 566 0
DWIDTH 17 0
BBX 12 25 3 -2
BITMAP
0100
0100
1FF0
7100
4100
8100
8100
8100
8100
8100
8100
8100
8100
8100
8100
8100
8100
8100
8100
8100
4100
6100
3FF0
0100
0100
ENDCHAR
STARTCHAR 20B9
ENCODING 8377
SWIDTH 600 0
DWIDTH 18 0
BBX 15 21 3 0
BITMAP
FFFE
0060
0010
0018
0008
0008
FFFE
0008
0008
0010
0030
FFE0
C000
2000
1800
0C00
0200
0180
00C0
0060
0018
ENDCHAR
STARTCHAR 20BA
ENCODING 8378
SWIDTH 533 0
DWIDTH 16 0
BBX 15 21 1 0
BITMAP
3000
3000
3000
3000
3000
3000
3020
37C0
F800
3000
3000
30E0
3F00
F002
3002
3002
3002
3002
3006
300C
3FF0
ENDCHAR
STARTCHAR 20BC
ENCODING 8380
SWIDTH 733 0
DWIDTH 22 0
BBX 15 23 3 0
BITMAP
0100
0100
0FF0
311C
4106
4102
8102
8102
8102
8102
8102
8102
8102
8102
8102
8102
8102
8102
8102
8102
8102
8102
8102
ENDCHAR
STARTCHAR 20BD
ENCODING 8381
SWIDTH 666 0
DWIDTH 20 0
BBX 18 21 0 0
BITMAP
1FFC00
180700
180080
180080
180040
180040
180040
180040
180040
180080
180080
180300
FFFC00
180000
180000
180000
FFE000
180000
180000
180000
180000
ENDCHAR
STARTCHAR 2113
ENCODING 8467
SWIDTH 466 0
DWIDTH 14 0
BBX 11 21 1 0
BITMAP
0380
0C40
0820
1020
1020
1020
1040
1040
1040
3080
3180
3100
3200
3C00
1800
F000
1000
1000
1020
0860
0F80
ENDCHAR
STARTCHAR 2116
ENCODING 8470
SWIDTH 1066 0
DWIDTH 32 0
BBX 26 21 3 0
BITMAP
C0010F80
C00110C0
E0011040
F0011040
D0011040
C8011040
C4011040
C4011040
C2010F80
C1010000
C1810000
C0810000
C0410000
C0611FC0
C0210000
C0110000
C0190000
C0090000
C0050000
C0030000
C0030000
ENDCHAR
STARTCHAR 2122
ENCODING 8482
SWIDTH 700 0
DWIDTH 21 0
BBX 18 9 1 12
BITMAP
FE4040
1040C0
10A0C0
10A140
10A140
109240
109240
108A40
108C40
ENDCHAR
STARTCHAR 2126
ENCODING 8486
SWIDTH 733 0
DWIDTH 22 0
BBX 16 21 3 0
BITMAP
0FF0
700C
4002
8003
8001
8001
8001
8001
8001
8001
8001
8001
8001
8001
8001
8001
8001
C002
4002
300C
FC3F
ENDCHAR
STARTCHAR 212E
ENCODING 8494
SWIDTH 733 0
DWIDTH 22 0
BBX 16 21 3 0
BITMAP
1FF8
600E
4002
8003
8001
8001
8001
8001
8001
8001
FFFF
8000
8000
8000
8000
8001
8001
8001
C002
6006
3FFC
ENDCHAR
STARTCHAR 2153
ENCODING 8531
SWIDTH 700 0
DWIDTH 21 0
BBX 19 21 1 0
BITMAP
100200
700400
B00C00
300800
301000
303000
302000
304000
30C000
308000
311FC0
330040
020060
040040
0C00C0
080780
100040
300020
200020
400040
C01FC0
ENDCHAR
STARTCHAR 2154
ENCODING 8532
SWIDTH 833 0
DWIDTH 25 0
BBX 23 21 1 0
BITMAP
7E0020
830040
0100C0
010080
010100
070300
1C0200
600400
C00400
800800
8011FC
FF1006
002002
006002
004004
00807C
018006
010002
020002
060006
0C01FC
ENDCHAR
STARTCHAR 215B
ENCODING 8539
SWIDTH 766 0
DWIDTH 23 0
BBX 20 21 1 0
BITMAP
100200
700400
B00C00
300800
301000
303000
302000
304000
30C000
308000
310FE0
331010
021010
041010
0C0820
080FE0
101010
301010
201010
401810
C00FE0
ENDCHAR
STARTCHAR 215C
ENCODING 8540
SWIDTH 866 0
DWIDTH 26 0
BBX 24 21 1 0
BITMAP
780020
870040
0100C0
010080
010100
060300
3E0200
010400
010C00
010800
0310FE
FE3101
002101
004101
00C082
0080FE
010101
030101
020101
040103
0C00FE
ENDCHAR
STARTCHAR 215D
ENCODING 8541
SWIDTH 900 0
DWIDTH 27 0
BBX 23 21 2 0
BITMAP
FE0040
8000C0
800080
800100
800300
FC0200
020400
030C00
030800
021000
0231FE
FC2302
004202
00C302
008106
0100FC
030302
020202
040202
0C0302
0801FC
ENDCHAR
STARTCHAR 215E
ENCODING 8542
SWIDTH 800 0
DWIDTH 24 0
BBX 22 21 1 0
BITMAP
FF0180
010100
020200
020600
040400
040800
081800
081000
182000
102000
3047F8
20C40C
008404
010404
030608
0203F8
04040C
0C0404
080404
10040C
3003F8
ENDCHAR
STARTCHAR 2190
ENCODING 8592
SWIDTH 866 0
DWIDTH 26 0
BBX 23 7 2 6
BITMAP
020000
060000
1C0000
FFFFFE
7C0000
1C0000
060000
ENDCHAR
STARTCHAR 2191
ENCODING 8593
SWIDTH 400 0
DWIDTH 12 0
BBX 6 23 3 -2
BITMAP
20
20
30
70
78
78
FC
A4
20
20
20
20
20
20
20
20
20
20
20
20
20
20
20
ENDCHAR
STARTCHAR 2192
ENCODING 8594
SWIDTH 866 0
DWIDTH 26 0
BBX 23 7 2 6
BITMAP
000100
0000C0
0000F0
FFFFFE
0000F8
0000E0
000180
ENDCHAR
STARTCHAR 2193
ENCODING 8595
SWIDTH 400 0
DWIDTH 12 0
BBX 6 24 3 -3
BITMAP
20
20
20
20
20
20
20
20
20
20
20
20
20
20
20
20
A4
FC
78
78
30
30
20
20
ENDCHAR
STARTCHAR 2194
ENCODING 8596
SWIDTH 866 0
DWIDTH 26 0
BBX 23 7 2 6
BITMAP
010100
0600C0
1C00F0
FFFFFE
7C00F8
1E00E0
020180
ENDCHAR
STARTCHAR 2195
ENCODING 8597
SWIDTH 400 0
DWIDTH 12 0
BBX 6 24 3 -3
BITMAP
20
30
30
70
78
78
FC
A4
20
20
20
20
20
20
20
20
A4
FC
78
78
30
30
20
20
ENDCHAR
STARTCHAR 21A8
ENCODING 8616
SWIDTH 400 0
DWIDTH 12 0
BBX 8 26 2 -5
BITMAP
10
18
18
38
3C
3C
7E
92
10
10
10
10
10
10
10
10
52
7E
3C
3C
18
18
10
10
00
FF
ENDCHAR
STARTCHAR 2202
ENCODING 8706
SWIDTH 566 0
DWIDTH 17 0
BBX 13 22 2 0
BITMAP
0300
0080
0040
0060
0020
0010
0610
3DF0
4018
4008
8008
8008
8008
8008
8008
8008
8008
8008
8008
4008
4010
3FE0
ENDCHAR
STARTCHAR 2206
ENCODING 8710
SWIDTH 666 0
DWIDTH 20 0
BBX 18 21 1 0
BITMAP
004000
00C000
00A000
01A000
012000
011000
021000
020800
040800
040C00
040400
080400
080200
100200
100300
300100
200100
200080
400080
4000C0
FFFFC0
ENDCHAR
STARTCHAR 220F
ENCODING 8719
SWIDTH 733 0
DWIDTH 22 0
BBX 16 27 3 -6
BITMAP
FFFF
C001
C001
C001
C001
C001
C001
C001
C001
C001
C001
C001
C001
C001
C001
C001
C001
C001
C001
C001
C001
C001
C001
C001
C001
C001
C001
ENDCHAR
STARTCHAR 2211
ENCODING 8721
SWIDTH 700 0
DWIDTH 21 0
BBX 15 27 3 -6
BITMAP
FFFE
C000
4000
2000
1000
1800
0800
0400
0200
0100
0180
0080
0040
0020
0040
00C0
0180
0100
0200
0400
0C00
1800
1000
2000
4000
C000
FFFE
ENDCHAR
STARTCHAR 2212
ENCODING 8722
SWIDTH 533 0
DWIDTH 16 0
BBX 12 1 2 7
BITMAP
FFF0
ENDCHAR
STARTCHAR 2215
ENCODING 8725
SWIDTH 333 0
DWIDTH 10 0
BBX 10 21 0 0
BITMAP
0040
0080
0080
0180
0100
0100
0200
0200
0400
0400
0C00
0800
0800
1000
1000
2000
2000
6000
4000
4000
8000
ENDCHAR
STARTCHAR 2219
ENCODING 8729
SWIDTH 366 0
DWIDTH 11 0
BBX 6 6 2 7
BITMAP
FC
FC
FC
FC
FC
FC
ENDCHAR
STARTCHAR 221A
ENCODING 8730
SWIDTH 566 0
DWIDTH 17 0
BBX 16 26 1 -3
BITMAP
0003
0002
0002
0002
0006
0004
0004
0004
0008
0008
0008
0008
0010
2010
E010
B010
1020
1820
0820
0C20
0440
0640
0240
03C0
0180
0180
ENDCHAR
STARTCHAR 221E
ENCODING 8734
SWIDTH 1033 0
DWIDTH 31 0
BBX 27 12 2 2
BITMAP
0F801C00
30E0E380
40118040
C00B0020
800A0020
80040020
80040020
80060020
800A0020
401B0060
603180C0
3FC07F80
ENDCHAR
STARTCHAR 222B
ENCODING 8747
SWIDTH 366 0
DWIDTH 11 0
BBX 6 27 3 -6
BITMAP
1C
20
40
40
60
60
20
20
20
20
20
20
20
20
20
20
20
20
20
20
20
30
10
10
10
20
C0
ENDCHAR
STARTCHAR 2248
ENCODING 8776
SWIDTH 500 0
DWIDTH 15 0
BBX 11 9 2 3
BITMAP
7020
CE40
81C0
0000
0000
0000
7820
87C0
8000
ENDCHAR
STARTCHAR 2260
ENCODING 8800
SWIDTH 533 0
DWIDTH 16 0
BBX 12 15 2 0
BITMAP
0040
0080
0080
0100
FFF0
0200
0200
0400
0400
0C00
FFF0
0800
1000
1000
2000
ENDCHAR
STARTCHAR 2264
ENCODING 8804
SWIDTH 533 0
DWIDTH 16 0
BBX 12 18 2 0
BITMAP
0010
0070
01C0
0700
1800
6000
8000
E000
1800
0600
01C0
0070
0010
0000
0000
0000
0000
FFF0
ENDCHAR
STARTCHAR 2265
ENCODING 8805
SWIDTH 533 0
DWIDTH 16 0
BBX 12 18 2 0
BITMAP
8000
E000
3800
0600
0180
0070
0010
0070
01C0
0600
1800
E000
8000
0000
0000
0000
0000
FFF0
ENDCHAR
STARTCHAR 2302
ENCODING 8962
SWIDTH 733 0
DWIDTH 22 0
BBX 18 21 2 0
BITMAP
00C000
01A000
031000
060800
0C0400
180200
300100
600080
C00040
800040
800040
800040
800040
800040
800040
800040
800040
800040
800040
800040
FFFFC0
ENDCHAR
STARTCHAR 25CA
ENCODING 9674
SWIDTH 533 0
DWIDTH 16 0
BBX 12 21 2 0
BITMAP
0600
0600
0900
0980
1080
10C0
2040
2020
4020
C010
8010
8010
4020
4020
2040
3040
1080
1880
0900
0500
0600
ENDCHAR
STARTCHAR 27E8
ENCODING 10216
SWIDTH 266 0
DWIDTH 8 0
BBX 6 25 1 -2
BITMAP
04
08
08
08
10
10
30
20
20
60
40
40
80
C0
40
40
20
20
20
10
10
18
08
08
04
ENDCHAR
STARTCHAR 27E9
ENCODING 10217
SWIDTH 266 0
DWIDTH 8 0
BBX 6 25 1 -2
BITMAP
80
40
40
40
20
20
30
10
10
18
08
08
04
08
08
08
10
10
30
20
20
60
40
40
80
ENDCHAR
STARTCHAR A78B
ENCODING 42891
SWIDTH 233 0
DWIDTH 7 0
BBX 1 12 3 9
BITMAP
80
80
80
80
80
80
80
80
80
80
80
80
ENDCHAR
STARTCHAR A78C
ENCODING 42892
SWIDTH 233 0
DWIDTH 7 0
BBX 1 13 3 9
BITMAP
80
80
80
80
80
80
80
80
80
80
80
80
80
ENDCHAR
STARTCHAR E0FF
ENCODING 57599
SWIDTH 833 0
DWIDTH 25 0
BBX 21 21 2 0
BITMAP
FFFFF8
FFFFF8
FFFFF8
FFFFF8
FF07F8
FE01F8
FC00F8
F870F8
F870F8
F87078
F87078
F87078
F870F8
F870F8
FC00F8
FC01F8
FF07F8
FFFFF8
FFFFF8
FFFFF8
FFFFF8
ENDCHAR
STARTCHAR EFFD
ENCODING 61437
SWIDTH 900 0
DWIDTH 27 0
BBX 21 35 3 -3
BITMAP
002000
002000
002000
006200
03FC00
00F800
00F000
00F800
008800
010000
000000
FFFFF8
FFFFF8
FFFFF8
E38E78
E38E78
E38E78
E38E78
E38E78
E38E78
E38E78
E38E78
E38E78
E38E78
E38E78
E38E78
E38E78
E38E78
E38E78
E38E78
E38E70
7F8FF0
00D800
006000
002000
ENDCHAR
STARTCHAR F000
ENCODING 61440
SWIDTH 600 0
DWIDTH 18 0
BBX 0 0 0 0
BITMAP
ENDCHAR
STARTCHAR F8FF
ENCODING 63743
SWIDTH 833 0
DWIDTH 25 0
BBX 21 21 2 0
BITMAP
FFFFF8
FFFFF8
FFFFF8
FFFFF8
FF07F8
FE01F8
FC00F8
F870F8
F870F8
F87078
F87078
F87078
F870F8
F870F8
FC00F8
FC01F8
FF07F8
FFFFF8
FFFFF8
FFFFF8
FFFFF8
ENDCHAR
STARTCHAR FB01
ENCODING 64257
SWIDTH 566 0
DWIDTH 17 0
BBX 13 22 1 0
BITMAP
0F08
1808
1000
1000
1000
1000
1000
FF08
1008
1008
1008
1008
1008
1008
1008
1008
1008
1008
1008
1008
1008
1008
ENDCHAR
STARTCHAR FB02
ENCODING 64258
SWIDTH 566 0
DWIDTH 17 0
BBX 13 22 1 0
BITMAP
0F08
1808
1008
1008
1008
1008
1008
FF08
1008
1008
1008
1008
1008
1008
1008
1008
1008
1008
1008
1008
1008
1008
ENDCHAR
ENDFONT
